<?xml version="1.0" encoding="UTF-8" standalone="no"?>
<!-- Created with Inkscape (http://www.inkscape.org/) -->

<svg
   width="206.7205mm"
   height="26.583294mm"
   viewBox="0 0 206.7205 26.583294"
   version="1.1"
   id="svg1"
   xml:space="preserve"
   xmlns:inkscape="http://www.inkscape.org/namespaces/inkscape"
   xmlns:sodipodi="http://sodipodi.sourceforge.net/DTD/sodipodi-0.dtd"
   xmlns="http://www.w3.org/2000/svg"
   xmlns:svg="http://www.w3.org/2000/svg"><sodipodi:namedview
     id="namedview1"
     pagecolor="#ffffff"
     bordercolor="#000000"
     borderopacity="0.25"
     inkscape:showpageshadow="2"
     inkscape:pageopacity="0.0"
     inkscape:pagecheckerboard="0"
     inkscape:deskcolor="#d1d1d1"
     inkscape:document-units="mm"><inkscape:page
       x="0"
       y="0"
       width="206.7205"
       height="26.583294"
       id="page2"
       margin="0"
       bleed="0" /></sodipodi:namedview><defs
     id="defs1" /><g
     inkscape:label="Capa 1"
     inkscape:groupmode="layer"
     id="layer1"
     transform="translate(-1.626201,-131.70074)"><g
       id="g1"><path
         style="fill:#fefefe"
         d="m 8.6040531,152.87207 v -5.37318 L 11.98395,147.2556 c 6.996019,-0.50356 10.319269,-3.11799 10.319269,-8.11824 0,-2.84044 -0.925391,-4.55649 -3.15155,-5.84424 -1.709558,-0.98891 -7.814471,-1.48056 -13.6716142,-1.10103 -2.5548288,0.16556 -3.8538539,0.11901 -3.8538539,-0.13807 0,-0.26592 20.1154811,-0.37576 63.9999881,-0.34949 35.199991,0.0211 63.399531,0.1617 62.665641,0.3125 -6.21946,1.27795 -11.09194,5.96996 -11.80563,11.36838 l -0.28731,2.17321 1.2622,-0.24053 c 5.00907,-0.95456 5.76244,-1.26878 6.28204,-2.62022 1.05304,-2.73886 4.52131,-5.01464 7.67146,-5.03379 3.31911,-0.0202 6.60773,1.91274 8.03648,4.72353 0.94072,1.85067 0.98187,1.87526 4.64396,2.77421 l 2.8814,0.70731 -0.2546,-2.34036 c -0.58956,-5.41938 -4.65824,-9.64591 -10.89672,-11.31946 -1.54814,-0.41531 4.03889,-0.48414 35.45012,-0.43672 20.50835,0.031 33.46099,0.14604 28.78364,0.25572 l -8.50425,0.19943 -0.11471,13.02815 -0.11471,13.02815 -2.28134,-0.11298 -2.28135,-0.11299 -1.82977,-12.54081 c -1.00637,-6.89745 -1.8416,-12.75139 -1.85607,-13.00875 -0.0174,-0.3098 -0.7729,-0.46794 -2.2354,-0.46794 h -2.20909 l -2.53022,4.58582 c -5.05017,9.15305 -6.52188,11.71225 -7.15463,12.44139 -0.60458,0.69668 -0.83042,0.41739 -3.63251,-4.49223 -1.64332,-2.87931 -3.75274,-6.63828 -4.68759,-8.35327 -1.86853,-3.42783 -2.94817,-4.29355 -5.13033,-4.11382 l -1.44824,0.11928 -2.04039,12.54082 c -1.12222,6.89744 -2.05441,12.75138 -2.07155,13.00875 -0.0238,0.35771 -1.9573,0.46199 -8.20833,0.44267 -7.29914,-0.0225 -7.96313,-0.0748 -6.18384,-0.48661 1.09634,-0.25374 2.89519,-0.91502 3.99746,-1.4695 2.2334,-1.1235 5.24801,-3.91608 4.83967,-4.48322 -0.36582,-0.50808 -5.29336,-0.0419 -9.31456,0.88114 -3.37884,0.77563 -9.17285,3.21434 -9.47297,3.98719 -0.0966,0.24887 0.73224,0.67377 1.93136,0.99005 2.01623,0.5318 1.74592,0.55512 -6.72503,0.58014 l -8.82569,0.0261 -0.11468,-13.00875 -0.11468,-13.00876 -3.59795,-0.10872 -3.59796,-0.10873 v 5.44325 5.44325 h -6.311703 -6.311704 l -0.121004,-5.33452 -0.121003,-5.33453 h -3.706984 -3.706984 l -0.11468,13.00876 -0.11468,13.00875 h -5.445796 -5.445796 v -5.67793 -5.67792 l 4.579216,-6.98743 c 2.518568,-3.84308 4.579215,-7.18407 4.579215,-7.42441 0,-0.27551 -0.815416,-0.43699 -2.206595,-0.43699 h -2.206595 l -3.28691,5.89605 -3.28691,5.89605 -3.05759,-5.24093 c -1.681675,-2.88252 -3.361308,-5.53574 -3.732519,-5.89606 -0.546931,-0.53087 -1.406475,-0.65511 -4.532377,-0.65511 -2.611675,0 -3.85745,0.13874 -3.85745,0.42961 0,0.23629 2.164378,3.76516 4.809728,7.84195 l 4.809728,7.41233 -0.121483,5.16681 -0.121484,5.1668 -5.996591,0.10415 -5.996592,0.10416 v -13.12805 -13.12804 l -3.597955,0.10873 -3.597955,0.10872 -0.121076,5.34474 -0.121076,5.34474 -6.202603,-0.1038 -6.202602,-0.1038 -0.218058,-5.24094 -0.218058,-5.24094 -3.597955,-0.10872 -3.597955,-0.10873 v 13.11748 13.11748 H 17.326368 8.6040531 Z M 125.3334,153.71984 c 4.33315,-1.67876 8.82723,-2.57649 14.68676,-2.93378 5.37708,-0.32787 6.51843,-0.66168 5.27971,-1.54414 -1.00666,-0.71713 -10.65368,-0.95249 -14.94742,-0.36468 -2.80804,0.38443 -11.26147,2.42151 -11.79077,2.84132 -0.31454,0.24946 2.64223,3.15752 3.21041,3.15752 0.31728,0 1.91987,-0.52031 3.56131,-1.15624 z m 2.95241,-5.63821 c 1.91404,-0.25857 5.92597,-0.33512 10.57072,-0.20169 6.35505,0.18256 7.52318,0.13164 7.73273,-0.3371 0.33804,-0.75616 -0.95852,-1.12397 -6.4126,-1.81914 -7.86487,-1.00243 -17.43291,-0.5187 -21.97712,1.1111 -1.42684,0.51174 -1.52584,0.64852 -1.26857,1.75268 0.15347,0.65869 0.48119,1.30486 0.72826,1.43593 0.24706,0.13107 2.04503,-0.15845 3.99548,-0.64337 1.95045,-0.48493 4.93444,-1.06921 6.6311,-1.29841 z m -94.823158,3.9868 v -6.17682 h 6.323678 6.323679 v 6.17682 6.17682 H 39.78633 33.462652 Z m 58.439512,0 v -6.17682 h 6.323679 6.323677 v 6.17682 6.17682 h -6.323677 -6.323679 z m 62.106266,4.39864 c 0.14282,-0.97799 0.57268,-4.47351 0.95523,-7.76781 0.38255,-3.29431 0.76324,-6.04996 0.84597,-6.12368 0.0827,-0.0737 2.22347,3.4218 4.75719,7.76782 l 4.60676,7.90185 h -5.71241 -5.71242 z m 18.47811,-6.44622 c 2.54652,-4.52342 4.70615,-8.15907 4.79918,-8.07921 0.15557,0.13354 1.79029,14.15379 1.82457,15.64849 0.0136,0.59078 -0.5383,0.65512 -5.61937,0.65512 h -5.6344 z m 26.59107,5.395 c -0.17989,-0.15962 -0.32708,-2.28363 -0.32708,-4.72005 v -4.42983 h 4.79727 4.79727 v 4.49223 4.49223 l -1.63543,0.003 c -0.89949,0.001 -2.91107,0.10398 -4.47019,0.22781 -1.55911,0.12383 -2.98194,0.0946 -3.16184,-0.065 z M 8.7516449,140.83841 c 0.1586882,-2.22625 0.288524,-4.61113 0.288524,-5.29973 0,-1.15052 0.1095849,-1.252 1.3519591,-1.252 1.813279,0 4.140531,1.99137 4.557635,3.89985 0.652545,2.98576 -1.609709,6.02028 -4.821694,6.4677 l -1.664948,0.23192 z M 198.75053,139.15327 v -3.74353 h 4.79727 4.79727 v 3.74353 3.74352 h -4.79727 -4.79727 z"
         id="path8" /><path
         style="fill:#c7c5c4"
         d="m 84.261662,145.14291 0.0085,-12.91517 h 3.706984 3.706984 l 0.01929,5.42812 0.01929,5.42811 -0.140291,-5.33453 -0.14029,-5.33452 h -3.471301 -3.471301 l -0.123156,12.82158 -0.123157,12.82157 z m 7.382836,6.92552 c -5.01e-4,-3.5002 0.06505,-4.98248 0.145669,-3.29397 0.08062,1.68852 0.08103,4.55232 9.11e-4,6.364 -0.08012,1.81168 -0.146078,0.43017 -0.14658,-3.07003 z m 99.888392,-6.73835 c 1.5e-4,-7.20628 0.0587,-10.10133 0.1302,-6.43343 0.0715,3.6679 0.0713,9.56395 -2.7e-4,13.10234 -0.0716,3.53839 -0.13008,0.53738 -0.12993,-6.66891 z m -12.80926,9.70198 c 0.0209,-0.4361 0.12427,-0.52481 0.26349,-0.22618 0.12598,0.27024 0.11049,0.59312 -0.0344,0.71751 -0.14492,0.1244 -0.248,-0.0967 -0.22906,-0.49133 z m 24.71514,0.34479 c 0.29983,-0.10385 0.79046,-0.10385 1.09029,0 0.29983,0.10385 0.0545,0.18882 -0.54514,0.18882 -0.59966,0 -0.84498,-0.085 -0.54515,-0.18882 z m -62.3373,-3.75132 c 0.31482,-0.10814 0.69097,-0.0948 0.83589,0.0296 0.14492,0.1244 -0.11266,0.21288 -0.5724,0.19662 -0.50805,-0.018 -0.61139,-0.10667 -0.26349,-0.22617 z m 37.18605,-0.71135 c 0.0209,-0.4361 0.12426,-0.52481 0.26348,-0.22617 0.12598,0.27023 0.11049,0.59311 -0.0344,0.7175 -0.14492,0.1244 -0.24799,-0.0967 -0.22905,-0.49133 z m -36.55913,-0.41403 c 0.41976,-0.0942 1.10664,-0.0942 1.52641,0 0.41976,0.0942 0.0763,0.1712 -0.76321,0.1712 -0.83952,0 -1.18296,-0.077 -0.7632,-0.1712 z m -7.41397,-3.00491 c 0.65963,-0.0858 1.73901,-0.0858 2.39864,0 0.65962,0.0858 0.11993,0.15596 -1.19932,0.15596 -1.31925,0 -1.85894,-0.0702 -1.19932,-0.15596 z M 11.547835,147.1411 c 0.299829,-0.10385 0.790459,-0.10385 1.090289,0 0.29983,0.10385 0.05451,0.18882 -0.545145,0.18882 -0.599659,0 -0.844974,-0.085 -0.545144,-0.18882 z M 177.8514,146.7963 c 0.0209,-0.4361 0.12427,-0.52481 0.26349,-0.22617 0.12598,0.27023 0.11048,0.59311 -0.0344,0.71751 -0.14492,0.12439 -0.248,-0.0967 -0.22906,-0.49134 z M 19.725005,144.76856 c 0.434147,-0.41179 0.887485,-0.74871 1.007417,-0.74871 0.119932,0 -0.137154,0.33692 -0.571301,0.74871 -0.434147,0.41178 -0.887485,0.7487 -1.007417,0.7487 -0.119932,0 0.137154,-0.33692 0.571301,-0.7487 z m 116.143075,0.49297 c 0.31483,-0.10813 0.69098,-0.0948 0.83589,0.0296 0.14492,0.12439 -0.11266,0.21287 -0.5724,0.19662 -0.50805,-0.018 -0.61139,-0.10667 -0.26349,-0.22618 z M 12.529095,143.87851 c 0,-0.0777 0.343441,-0.37254 0.763203,-0.65512 0.691703,-0.46564 0.707129,-0.4524 0.164657,0.14134 -0.569728,0.62358 -0.92786,0.82189 -0.92786,0.51378 z m 33.781015,-6.40983 0.01796,-5.24094 3.488926,-0.0227 3.488926,-0.0227 -3.368029,0.13124 -3.36803,0.13125 -0.138854,5.13237 -0.138853,5.13238 z m -24.085288,1.68459 c 0,-0.72063 0.08975,-1.01544 0.199446,-0.65512 0.109695,0.36031 0.109695,0.94992 0,1.31023 -0.109696,0.36032 -0.199446,0.0655 -0.199446,-0.65511 z m 114.977748,0.46794 c -0.54247,-0.59375 -0.52704,-0.60699 0.16466,-0.14134 0.72646,0.48904 0.95749,0.79645 0.59855,0.79645 -0.0906,0 -0.43401,-0.2948 -0.76321,-0.65511 z M 8.7471602,137.09433 c 0.00193,-1.44126 0.080761,-1.98499 0.1751694,-1.2083 0.094408,0.7767 0.092825,1.95591 -0.00352,2.62047 -0.096343,0.66456 -0.1735864,0.0291 -0.1716517,-1.41217 z m -1.7626175,-4.95646 c 1.3879742,-0.0745 3.5467473,-0.0738 4.7972733,0.002 1.250526,0.0754 0.114911,0.13633 -2.5235892,0.13549 -2.6385004,-8.5e-4 -3.6616582,-0.0625 -2.2736841,-0.13702 z m 20.6995753,0.003 c 1.01942,-0.0788 2.687563,-0.0788 3.706984,0 1.01942,0.0788 0.185349,0.14329 -1.853492,0.14329 -2.038841,0 -2.872913,-0.0645 -1.853492,-0.14329 z m 51.243602,0.006 c 0.659625,-0.0858 1.739012,-0.0858 2.398637,0 0.659625,0.0858 0.119932,0.15595 -1.199319,0.15595 -1.31925,0 -1.858943,-0.0702 -1.199318,-0.15595 z m 27.25724,-0.006 c 1.01942,-0.0788 2.68756,-0.0788 3.70698,0 1.01942,0.0788 0.18535,0.14329 -1.85349,0.14329 -2.03884,0 -2.87292,-0.0645 -1.85349,-0.14329 z"
         id="path7" /><path
         style="fill:#e09c9d"
         d="m 130.8255,157.9872 c 0.41976,-0.0942 1.10664,-0.0942 1.5264,0 0.41976,0.0942 0.0763,0.1712 -0.7632,0.1712 -0.83952,0 -1.18297,-0.077 -0.7632,-0.1712 z m 11.55706,-6.35387 c 0.29983,-0.10385 0.79046,-0.10385 1.09029,0 0.29983,0.10385 0.0545,0.18882 -0.54514,0.18882 -0.59966,0 -0.84498,-0.085 -0.54515,-0.18882 z m -2.61669,-1.12306 c 0.29983,-0.10385 0.79046,-0.10385 1.09029,0 0.29983,0.10385 0.0545,0.18882 -0.54515,0.18882 -0.59966,0 -0.84497,-0.085 -0.54514,-0.18882 z m 1.3356,-1.87956 c 0.31482,-0.10814 0.69097,-0.0948 0.83589,0.0296 0.14492,0.1244 -0.11266,0.21287 -0.5724,0.19662 -0.50805,-0.018 -0.61139,-0.10667 -0.26349,-0.22617 z m -9.18568,-1.11526 c 0.29982,-0.10385 0.79046,-0.10385 1.09028,0 0.29983,0.10385 0.0545,0.18882 -0.54514,0.18882 -0.59966,0 -0.84497,-0.085 -0.54514,-0.18882 z m 6.10562,0 c 0.29983,-0.10385 0.79046,-0.10385 1.09029,0 0.29983,0.10385 0.0545,0.18882 -0.54515,0.18882 -0.59966,0 -0.84497,-0.085 -0.54514,-0.18882 z m -21.53353,-2.54737 c -0.13503,-0.30205 -0.16135,-0.76531 -0.0585,-1.02947 0.10286,-0.26416 0.29041,-0.017 0.41678,0.54918 0.24672,1.10555 0.0432,1.37838 -0.3583,0.48029 z m 11.06675,0.30125 c 0.29983,-0.10385 0.79046,-0.10385 1.09029,0 0.29983,0.10385 0.0545,0.18882 -0.54515,0.18882 -0.59966,0 -0.84497,-0.085 -0.54514,-0.18882 z m 6.54173,0 c 0.29983,-0.10385 0.79046,-0.10385 1.09029,0 0.29983,0.10385 0.0545,0.18882 -0.54514,0.18882 -0.59966,0 -0.84498,-0.085 -0.54515,-0.18882 z m -9.0494,-5.13434 c 0,-0.0777 0.34344,-0.37254 0.7632,-0.65512 0.69171,-0.46565 0.70713,-0.45241 0.16466,0.14134 -0.56973,0.62357 -0.92786,0.82188 -0.92786,0.51378 z m -4.57921,-4.3509 c 0.43414,-0.41179 0.88748,-0.7487 1.00741,-0.7487 0.11993,0 -0.13715,0.33691 -0.5713,0.7487 -0.43414,0.41179 -0.88748,0.74871 -1.00741,0.74871 -0.11994,0 0.13715,-0.33692 0.5713,-0.74871 z m 10.13969,-4.00772 c 0.53969,-0.0892 1.42283,-0.0892 1.96252,0 0.53969,0.0892 0.0981,0.16224 -0.98126,0.16224 -1.07939,0 -1.52096,-0.073 -0.98126,-0.16224 z"
         id="path6" /><path
         style="fill:#94918f"
         d="m 46.288459,152.06843 c -5.01e-4,-3.5002 0.06505,-4.98248 0.145669,-3.29397 0.08062,1.68852 0.08103,4.55232 9.11e-4,6.364 -0.08012,1.81168 -0.146079,0.43017 -0.14658,-3.07003 z m 65.435241,-6.73835 c 1.5e-4,-7.20628 0.0588,-10.10133 0.13021,-6.43343 0.0715,3.6679 0.0713,9.56395 -2.7e-4,13.10234 -0.0716,3.53839 -0.13009,0.53738 -0.12994,-6.66891 z m 42.14133,9.70198 c 0.0209,-0.4361 0.12427,-0.52481 0.26349,-0.22618 0.12598,0.27024 0.11049,0.59312 -0.0344,0.71751 -0.14492,0.1244 -0.24799,-0.0967 -0.22906,-0.49133 z m 51.3182,0.34479 c 0.29983,-0.10385 0.79046,-0.10385 1.09029,0 0.29983,0.10385 0.0545,0.18882 -0.54514,0.18882 -0.59966,0 -0.84498,-0.085 -0.54515,-0.18882 z m -26.4596,-1.46785 c 0.0209,-0.4361 0.12427,-0.52481 0.26349,-0.22617 0.12598,0.27023 0.11049,0.59311 -0.0344,0.71751 -0.14492,0.12439 -0.248,-0.0967 -0.22906,-0.49134 z M 72.870289,150.7582 c 0,-1.956 0.0735,-2.75617 0.163344,-1.77818 0.08984,0.978 0.08984,2.57836 0,3.55635 -0.08984,0.978 -0.163344,0.17782 -0.163344,-1.77817 z m -6.999932,-0.56153 c 0.0024,-1.23537 0.08387,-1.69561 0.180928,-1.02277 0.09706,0.67285 0.09506,1.6836 -0.0045,2.24612 -0.09951,0.56252 -0.178925,0.012 -0.176477,-1.22335 z m 88.430793,1.09186 c 0.0209,-0.4361 0.12427,-0.52481 0.26349,-0.22617 0.12598,0.27023 0.11048,0.59311 -0.0344,0.71751 -0.14491,0.12439 -0.24799,-0.0967 -0.22905,-0.49134 z m 13.74814,-1.591 c -0.12354,-0.17158 0.0525,-0.31196 0.39119,-0.31196 0.33869,0 0.51473,0.14038 0.39119,0.31196 -0.12353,0.17158 -0.29957,0.31196 -0.39119,0.31196 -0.0916,0 -0.26766,-0.14038 -0.39119,-0.31196 z M 154.73726,147.545 c 0.0209,-0.4361 0.12427,-0.5248 0.26349,-0.22617 0.12598,0.27024 0.11049,0.59312 -0.0344,0.71751 -0.14492,0.1244 -0.24799,-0.0967 -0.22906,-0.49134 z M 9.5936137,147.1296 c 0.4243263,-0.0949 1.0130823,-0.0887 1.3083473,0.0139 0.295265,0.10255 -0.05191,0.1802 -0.771503,0.17257 -0.7195907,-0.008 -0.9611708,-0.0915 -0.5368443,-0.18644 z M 155.17338,143.80148 c 0.0209,-0.4361 0.12427,-0.52481 0.26349,-0.22617 0.12598,0.27023 0.11048,0.59311 -0.0344,0.71751 -0.14492,0.12439 -0.248,-0.0967 -0.22906,-0.49134 z m 29.21976,0 c 0.0209,-0.4361 0.12426,-0.52481 0.26348,-0.22617 0.12598,0.27023 0.11049,0.59311 -0.0344,0.71751 -0.14492,0.12439 -0.24799,-0.0967 -0.22905,-0.49134 z M 8.3030762,141.96091 c 0.00245,-1.23536 0.083865,-1.69561 0.1809279,-1.02276 0.097062,0.67284 0.09506,1.68359 -0.00445,2.24611 -0.09951,0.56252 -0.1789251,0.012 -0.1764779,-1.22335 z m 29.6478998,1.03228 c 1.629055,-0.0722 4.180332,-0.0717 5.669504,0.001 1.489173,0.0729 0.156309,0.13197 -2.961918,0.13131 -3.118228,-6.5e-4 -4.336642,-0.0603 -2.707586,-0.1325 z m 163.089154,0.001 c 1.37922,-0.0743 3.63612,-0.0743 5.01534,0 1.37921,0.0743 0.25076,0.13508 -2.50767,0.13508 -2.75843,0 -3.88688,-0.0608 -2.50767,-0.13508 z m -23.84929,-1.11103 c -0.23668,-0.53353 -0.18658,-0.57653 0.24413,-0.20956 0.29805,0.25393 0.43205,0.556 0.29777,0.67126 -0.13427,0.11526 -0.37813,-0.0925 -0.5419,-0.4617 z M 33.195984,137.09433 c 7.63e-4,-2.67662 0.07023,-3.72249 0.154367,-2.32414 0.08414,1.39835 0.08351,3.58831 -0.0014,4.86659 -0.0849,1.27827 -0.153743,0.13417 -0.15298,-2.54245 z m -20.286402,-1.96535 c -0.542472,-0.59375 -0.527046,-0.60699 0.164658,-0.14134 0.726459,0.48904 0.957483,0.79645 0.598544,0.79645 -0.09056,0 -0.434002,-0.2948 -0.763202,-0.65511 z m 45.084581,-2.98922 c 1.139353,-0.0771 3.003748,-0.0771 4.1431,0 1.139353,0.0771 0.207155,0.14021 -2.07155,0.14021 -2.278705,0 -3.210902,-0.0631 -2.07155,-0.14021 z m 122.118407,0.007 c 0.66293,-0.0861 1.64419,-0.0837 2.18058,0.005 0.5364,0.0889 -0.006,0.15926 -1.20531,0.15645 -1.19932,-0.003 -1.63819,-0.0755 -0.97527,-0.16156 z m 15.69417,-0.0104 c 2.33868,-0.0673 6.16559,-0.0673 8.50426,0 2.33867,0.0673 0.42522,0.12238 -4.25213,0.12238 -4.67734,0 -6.5908,-0.0551 -4.25213,-0.12238 z"
         id="path5" /><path
         style="fill:#cd5e5f"
         d="m 141.61936,154.73474 c 0,-0.0777 0.34344,-0.37254 0.7632,-0.65512 0.69171,-0.46565 0.70713,-0.45241 0.16466,0.14134 -0.56973,0.62358 -0.92786,0.82188 -0.92786,0.51378 z m -3.13458,-4.23227 c 0.31482,-0.10814 0.69097,-0.0948 0.83589,0.0296 0.14492,0.12439 -0.11267,0.21287 -0.5724,0.19661 -0.50805,-0.018 -0.61139,-0.10667 -0.26349,-0.22617 z m -4.82453,-1.86396 c 0.29983,-0.10385 0.79046,-0.10385 1.09029,0 0.29983,0.10385 0.0545,0.18882 -0.54515,0.18882 -0.59966,0 -0.84497,-0.085 -0.54514,-0.18882 z m 6.13288,-0.008 c 0.31482,-0.10814 0.69097,-0.0948 0.83588,0.0296 0.14492,0.1244 -0.11266,0.21287 -0.5724,0.19662 -0.50805,-0.018 -0.61139,-0.10667 -0.26348,-0.22617 z m 4.36115,-0.74871 c 0.31483,-0.10814 0.69097,-0.0948 0.83589,0.0296 0.14492,0.12439 -0.11266,0.21287 -0.5724,0.19661 -0.50805,-0.018 -0.61139,-0.10666 -0.26349,-0.22617 z m -13.51958,-0.37435 c 0.31482,-0.10814 0.69097,-0.0948 0.83588,0.0296 0.14492,0.1244 -0.11266,0.21288 -0.5724,0.19662 -0.50805,-0.018 -0.61139,-0.10667 -0.26348,-0.22617 z m 9.15843,0 c 0.31482,-0.10814 0.69097,-0.0948 0.83588,0.0296 0.14492,0.1244 -0.11266,0.21288 -0.5724,0.19662 -0.50805,-0.018 -0.61139,-0.10667 -0.26348,-0.22617 z m -9.614,-2.26169 c 0.78386,-0.0833 1.96137,-0.0816 2.6167,0.004 0.65533,0.0854 0.014,0.15358 -1.42519,0.15148 -1.43918,-0.002 -1.97536,-0.072 -1.19151,-0.1553 z m 16.32252,-0.66458 c 0.009,-0.61768 0.10663,-0.82505 0.21721,-0.46082 0.11057,0.36424 0.1033,0.86961 -0.0162,1.12306 -0.11946,0.25345 -0.20993,-0.0446 -0.20105,-0.66224 z m -15.4581,-7.17345 c 0.29983,-0.10385 0.79046,-0.10385 1.09029,0 0.29983,0.10385 0.0545,0.18882 -0.54514,0.18882 -0.59966,0 -0.84498,-0.085 -0.54515,-0.18882 z m 11.18855,-1.71743 -0.8308,-0.84229 0.98126,0.71314 c 0.5397,0.39222 0.98126,0.77126 0.98126,0.84229 0,0.29958 -0.35098,0.0784 -1.13172,-0.71314 z"
         id="path4" /><path
         style="fill:#bd2728"
         d="m 127.33657,157.42594 c -0.77956,-0.22663 -1.41738,-0.54905 -1.41738,-0.71648 0,-0.41751 3.22919,-1.99565 5.96052,-2.91296 3.01349,-1.01208 8.80191,-1.99384 10.88874,-1.84683 l 1.68566,0.11876 -1.9008,1.77051 c -2.78844,2.5973 -5.88481,3.77337 -10.26323,3.89822 -1.94487,0.0555 -4.17395,-0.0846 -4.95351,-0.31122 z m -6.71166,-3.57933 c -1.85984,-1.9273 -1.85963,-1.92635 -0.53165,-2.36108 6.68783,-2.18934 15.22549,-3.25247 21.06877,-2.62355 3.83461,0.41272 5.314,0.96383 3.46419,1.29049 -0.57438,0.10143 -2.93586,0.28129 -5.24773,0.39969 -4.94856,0.25343 -9.55972,1.19668 -13.66938,2.7962 -3.41104,1.3276 -4.20845,1.40575 -5.0842,0.49825 z m -3.23723,-4.73294 c -0.45828,-1.56734 -0.002,-1.95295 3.15143,-2.66374 6.65283,-1.49951 25.65947,-0.8039 25.65947,0.93909 0,0.45755 -0.48458,0.52687 -2.6167,0.37436 -1.43918,-0.10295 -5.56047,-0.16671 -9.15843,-0.1417 -6.47965,0.0451 -8.1053,0.27387 -15.78942,2.22244 -0.78181,0.19825 -1.01471,0.0618 -1.24635,-0.73045 z m 28.37478,-3.79408 c -0.23986,-0.0762 -1.55281,-0.40885 -2.91767,-0.7392 -2.22031,-0.53741 -2.53507,-0.73983 -2.98994,-1.92293 -1.43711,-3.73779 -5.94648,-5.88812 -10.35124,-4.93606 -2.41176,0.52128 -5.52043,2.99302 -5.96897,4.74601 -0.16459,0.64322 -0.49627,1.27402 -0.73708,1.40178 -0.43591,0.23125 -5.03154,1.23498 -5.77072,1.26038 -0.73363,0.0252 0.11861,-4.19389 1.24706,-6.17372 1.31597,-2.30883 3.62537,-4.22044 6.86643,-5.68372 2.05031,-0.92568 2.76349,-1.04099 6.44837,-1.04259 3.68779,-0.002 4.4067,0.11411 6.54174,1.05292 4.88653,2.14869 7.79042,5.65622 8.18613,9.8878 0.12072,1.29085 0.14355,2.3337 0.0507,2.31745 -0.0928,-0.0163 -0.36499,-0.0919 -0.60485,-0.16812 z"
         id="path3" /><path
         style="fill:#5c5753"
         d="m 26.245014,145.33008 c 1.5e-4,-7.20628 0.05874,-10.10133 0.130206,-6.43343 0.07146,3.6679 0.07134,9.56395 -2.71e-4,13.10234 -0.07161,3.53839 -0.130084,0.53738 -0.129935,-6.66891 z m 46.603195,10.85623 c 0.0024,-1.23536 0.08387,-1.69561 0.180928,-1.02277 0.09706,0.67285 0.09506,1.6836 -0.0045,2.24612 -0.09951,0.56252 -0.178926,0.012 -0.176478,-1.22335 z m -6.982303,-2.05894 c 0,-1.13242 0.08176,-1.59568 0.181682,-1.02947 0.09992,0.56621 0.09992,1.49273 0,2.05894 -0.09992,0.56621 -0.181682,0.10295 -0.181682,-1.02947 z m 134.111194,1.61604 c 0.31482,-0.10814 0.69097,-0.0948 0.83589,0.0296 0.14492,0.1244 -0.11266,0.21287 -0.5724,0.19662 -0.50805,-0.018 -0.61139,-0.10667 -0.26349,-0.22617 z m 6.9506,-0.36656 c 0.29983,-0.10385 0.79046,-0.10385 1.09029,0 0.29983,0.10385 0.0545,0.18882 -0.54515,0.18882 -0.59966,0 -0.84497,-0.085 -0.54514,-0.18882 z m -8.41624,-4.71163 0.021,-4.58643 4.90711,-0.0193 4.90711,-0.0193 -4.78477,0.12501 -4.78477,0.125 -0.14335,4.48069 -0.14335,4.48068 z m -20.22394,-1.62281 c 0.0209,-0.4361 0.12426,-0.5248 0.26348,-0.22617 0.12598,0.27024 0.11049,0.59312 -0.0344,0.71751 -0.14492,0.1244 -0.24799,-0.0967 -0.22905,-0.49134 z m -0.43612,-4.11787 c 0.0209,-0.4361 0.12427,-0.52481 0.26349,-0.22618 0.12598,0.27024 0.11048,0.59312 -0.0344,0.71751 -0.14492,0.1244 -0.248,-0.0967 -0.22906,-0.49133 z m -83.223512,-1.93165 c 1.858943,-0.0702 4.90085,-0.0702 6.759792,0 1.85895,0.0702 0.33799,0.12758 -3.379895,0.12758 -3.717887,0 -5.238841,-0.0574 -3.379897,-0.12758 z m 103.881712,-4.0268 0.0229,-3.74353 4.90711,-0.0193 4.90711,-0.0193 -4.78298,0.12499 -4.78298,0.12499 -0.147,3.6378 -0.147,3.6378 z m -183.32938,0.34316 c 0.02093,-0.4361 0.124267,-0.52481 0.263486,-0.22618 0.125981,0.27024 0.110488,0.59312 -0.03443,0.71751 -0.144917,0.1244 -0.247993,-0.0967 -0.229056,-0.49133 z m 4.707214,-5.30333 c -0.542471,-0.59375 -0.527046,-0.60699 0.164658,-0.14134 0.726459,0.48904 0.957483,0.79645 0.598545,0.79645 -0.09056,0 -0.434003,-0.2948 -0.763203,-0.65511 z M 155.25628,132.1555 c 0.42433,-0.0949 1.01308,-0.0887 1.30835,0.0139 0.29526,0.10254 -0.0519,0.1802 -0.77151,0.17257 -0.71959,-0.008 -0.96117,-0.0915 -0.53684,-0.18644 z"
         id="path2" /><path
         style="fill:#201814"
         d="m 1.6262009,145.29438 v -12.95087 l 8.0368594,0.12929 c 7.3028797,0.11749 8.1467847,0.19978 9.2405127,0.90113 2.470367,1.58411 3.002011,2.60074 3.002011,5.74054 0,2.55627 -0.146326,3.09092 -1.231013,4.49786 -1.60125,2.07698 -4.12037,3.04158 -8.63732,3.30733 l -3.4331979,0.202 v 5.56179 5.5618 H 5.115127 1.6262009 Z m 10.9028941,-1.23697 c 2.673057,-1.66066 3.550349,-5.13051 1.914038,-7.57037 -0.967616,-1.44279 -3.445037,-2.65043 -4.8090984,-2.34424 -0.8574023,0.19247 -0.9440353,0.54724 -1.234502,5.05547 -0.2378627,3.69178 -0.1804173,4.98497 0.2407916,5.42062 0.6554077,0.67788 2.2688358,0.44493 3.8887708,-0.56148 z m 13.955704,1.27267 v -12.91516 h 3.270869 3.270868 v 4.83984 c 0,3.90073 0.13298,4.954 0.685325,5.42812 0.557418,0.47847 1.819037,0.58826 6.759794,0.58826 h 6.07447 v -5.42811 -5.42811 h 3.488926 3.488926 v 12.91516 12.91517 h -3.488926 -3.488926 v -6.17682 -6.17682 h -6.541737 -6.541736 v 6.17682 6.17682 h -3.488926 -3.488927 z m 39.567267,7.76782 0.197885,-5.14735 -4.836582,-7.41173 c -2.66012,-4.07645 -4.836582,-7.57197 -4.836582,-7.76782 0,-0.19823 1.70116,-0.35608 3.837496,-0.35608 h 3.837497 l 3.555105,5.89605 3.555105,5.89606 3.309087,-5.89606 3.309086,-5.89605 h 2.205168 2.205167 l -1.082923,1.591 c -0.595608,0.87505 -2.773029,4.19548 -4.838714,7.37873 l -3.755791,5.78773 v 5.53643 5.53644 h -3.429444 -3.429445 z m 18.43613,-7.76782 v -12.91516 h 3.488926 3.488926 v 5.42811 5.42811 h 6.541737 6.541735 v -5.42811 -5.42811 h 3.48893 3.48892 v 12.91516 12.91517 h -3.48892 -3.48893 v -6.17682 -6.17682 h -6.541735 -6.541737 v 6.17682 6.17682 h -3.488926 -3.488926 z m 65.853484,12.36321 c 0,-0.30358 0.88313,-6.00786 1.96252,-12.67619 1.07938,-6.66832 1.96252,-12.23176 1.96252,-12.3632 0,-0.55798 3.38588,-0.20723 4.01705,0.41614 0.36483,0.36031 2.76725,4.3612 5.33872,8.89087 4.60563,8.11285 4.68623,8.22284 5.40087,7.36987 0.39901,-0.47624 2.71501,-4.43502 5.14668,-8.79729 l 4.42122,-7.93139 h 2.11699 2.11699 l 1.56462,11.0434 c 0.86054,6.07387 1.69245,11.84358 1.84868,12.82157 l 0.28406,1.77818 h -3.45386 -3.45386 l -0.24545,-1.591 c -0.135,-0.87505 -0.55989,-4.62325 -0.9442,-8.32935 -0.66282,-6.39181 -0.90709,-7.60185 -1.36024,-6.73834 -0.10805,0.20589 -2.28902,3.99621 -4.8466,8.42293 -4.0618,7.03026 -4.78809,8.06226 -5.74043,8.15671 -1.01362,0.10052 -1.42197,-0.46248 -5.80671,-8.00568 -2.59403,-4.46259 -4.87212,-7.96465 -5.06242,-7.78235 -0.1903,0.18229 -0.68456,3.53216 -1.09836,7.44415 -0.4138,3.91198 -0.8474,7.4075 -0.96356,7.76781 -0.27443,0.85124 -3.20523,0.94557 -3.20523,0.10316 z m 41.43099,-12.36321 v -12.91516 h 8.2862 8.2862 v 1.29797 1.29798 l -4.9063,0.10585 -4.9063,0.10584 v 3.93071 3.9307 l 4.9063,0.10585 4.9063,0.10585 v 1.28571 1.28571 l -4.9063,0.10585 -4.9063,0.10585 -0.1235,4.46109 c -0.0771,2.78328 0.0502,4.61024 0.33847,4.85764 0.28456,0.24426 2.21608,0.35259 5.0298,0.28208 l 4.56783,-0.11446 v 1.34006 1.34005 h -8.2862 -8.2862 z"
         id="path1" /></g></g></svg>
