<?xml version="1.0" encoding="UTF-8" standalone="no"?>
<!-- Created with Inkscape (http://www.inkscape.org/) -->

<svg
   width="152.93282mm"
   height="92.267418mm"
   viewBox="0 0 152.93282 92.267418"
   version="1.1"
   id="svg1"
   xml:space="preserve"
   inkscape:export-filename="manyusolar.svg"
   inkscape:export-xdpi="46.869999"
   inkscape:export-ydpi="46.869999"
   xmlns:inkscape="http://www.inkscape.org/namespaces/inkscape"
   xmlns:sodipodi="http://sodipodi.sourceforge.net/DTD/sodipodi-0.dtd"
   xmlns="http://www.w3.org/2000/svg"
   xmlns:svg="http://www.w3.org/2000/svg"><sodipodi:namedview
     id="namedview1"
     pagecolor="#ffffff"
     bordercolor="#000000"
     borderopacity="0.25"
     inkscape:showpageshadow="2"
     inkscape:pageopacity="0.0"
     inkscape:pagecheckerboard="0"
     inkscape:deskcolor="#d1d1d1"
     inkscape:document-units="mm"><inkscape:page
       x="0"
       y="1.1050097e-15"
       width="152.93282"
       height="92.267426"
       id="page2"
       margin="0"
       bleed="0" /></sodipodi:namedview><defs
     id="defs1" /><g
     inkscape:label="Capa 1"
     inkscape:groupmode="layer"
     id="layer1"
     transform="translate(-28.174465,-93.433819)"><g
       id="g22"
       transform="translate(-2.6458333,-9.260417)"><path
         style="fill:#e5b2a7"
         d="m 40.815614,194.80806 c 0.402183,-0.0608 0.997496,-0.0592 1.322917,0.004 0.325421,0.0628 -0.0036,0.11256 -0.731242,0.11057 -0.727605,-0.002 -0.993858,-0.0534 -0.591675,-0.11418 z m 101.001056,-0.0707 c 35.62055,-0.14738 33.26019,-0.051 36.00405,-1.46993 1.2271,-0.63456 3.61357,-2.95081 4.36982,-4.24126 1.49396,-2.54924 1.42433,-0.58738 1.42743,-40.21704 0.003,-33.3798 -0.0351,-36.644 -0.43744,-37.83541 -1.15411,-3.41778 -4.00693,-6.29126 -7.4261,-7.47987 -1.14004,-0.39632 -4.42574,-0.45172 -34.07005,-0.57445 l -32.80834,-0.13583 32.33241,-0.0626 c 35.02655,-0.0678 33.60477,-0.12092 36.53575,1.36432 2.00955,1.01832 4.15032,3.24797 5.15488,5.36889 l 0.85405,1.80314 v 37.70313 37.70312 l -0.83203,1.5875 c -1.60807,3.06816 -3.97634,5.14113 -7.10211,6.21655 -1.51402,0.5209 -2.12259,0.52922 -34.24218,0.46819 l -32.70077,-0.0621 z M 39.373304,194.5526 c 0.190996,-0.0764 0.419199,-0.067 0.507118,0.0209 0.08792,0.0879 -0.06835,0.15046 -0.347265,0.13897 -0.308225,-0.0127 -0.37092,-0.0754 -0.159853,-0.15985 z m -2.744092,-1.02449 c -0.493189,-0.39512 -0.489943,-0.40001 0.08172,-0.12298 0.327422,0.15867 0.595313,0.34383 0.595313,0.41147 0,0.20247 -0.137215,0.144 -0.677035,-0.28849 z m -2.642706,-2.03592 -1.045884,-1.12448 1.124479,1.04588 c 0.618463,0.57524 1.124479,1.08126 1.124479,1.12448 0,0.20018 -0.230412,-1.3e-4 -1.203074,-1.04588 z m 24.287971,-0.66142 c 9.276953,-0.0386 24.457423,-0.0386 33.734376,0 9.276957,0.0385 1.686719,0.0701 -16.867188,0.0701 -18.553907,0 -26.144142,-0.0315 -16.867188,-0.0701 z m -17.842839,-0.24692 c 0.190996,-0.0764 0.419199,-0.067 0.507118,0.0209 0.08792,0.0879 -0.06835,0.15046 -0.347266,0.13897 -0.308224,-0.0127 -0.370919,-0.0754 -0.159852,-0.15985 z m -2.103892,-0.8933 -0.624624,-0.54487 0.727604,0.44301 c 0.400182,0.24365 0.727604,0.48884 0.727604,0.54487 0,0.2066 -0.221056,0.0887 -0.830584,-0.44301 z m -1.443513,-1.10878 -0.504028,-0.59531 0.595313,0.50403 c 0.559447,0.47366 0.715761,0.6866 0.504028,0.6866 -0.05021,0 -0.318098,-0.26789 -0.595313,-0.59532 z m -5.498425,-0.87012 c -0.255317,-0.66535 -0.179999,-0.83703 0.131904,-0.30066 0.154434,0.26558 0.225054,0.5386 0.156932,0.60673 -0.06812,0.0681 -0.198098,-0.0696 -0.288836,-0.30607 z m 3.96875,-1.32292 c -0.255317,-0.66534 -0.179999,-0.83702 0.131904,-0.30065 0.154434,0.26557 0.225054,0.5386 0.156932,0.60672 -0.06812,0.0681 -0.198098,-0.0696 -0.288836,-0.30607 z m -4.534259,-37.6929 c 0,-20.30015 0.0314,-28.60476 0.06977,-18.45468 0.03838,10.15008 0.03838,26.75929 0,36.90937 -0.03837,10.15008 -0.06977,1.84547 -0.06977,-18.45469 z m 4.146474,36.24792 c 0,-0.3638 0.06005,-0.51263 0.133452,-0.33073 0.0734,0.1819 0.0734,0.47956 0,0.66146 -0.0734,0.1819 -0.133452,0.0331 -0.133452,-0.33073 z m -0.177855,-36.24792 c 0,-19.57255 0.03146,-27.5795 0.0699,-17.79322 0.03845,9.78627 0.03845,25.80018 0,35.58645 -0.03844,9.78628 -0.0699,1.77933 -0.0699,-17.79323 z m 88.355062,25.43484 c -3.86331,-1.32122 -6.66814,-4.27706 -7.69057,-8.10463 -0.52072,-1.94937 -0.51244,-30.62345 0.009,-32.58338 1.05641,-3.96757 4.23232,-7.13182 8.22989,-8.19966 1.03973,-0.27774 5.07051,-0.35406 18.82992,-0.35653 9.62886,-0.002 17.69534,0.0691 17.92552,0.15746 0.34579,0.13269 0.41852,0.65583 0.41852,3.01032 0,2.04439 -0.0992,2.93201 -0.35091,3.14094 -0.24523,0.20352 -5.44445,0.31288 -17.26406,0.36312 -16.51283,0.0702 -16.93821,0.0849 -17.97149,0.61949 -0.61379,0.31759 -1.42223,1.08437 -1.92467,1.82549 l -0.86634,1.27789 0.0726,14.62225 0.0726,14.62225 0.79375,1.1235 c 0.43656,0.61792 1.27,1.37222 1.85208,1.67622 1.03661,0.54138 1.40557,0.55424 17.9737,0.62646 11.99509,0.0523 17.0192,0.15991 17.27236,0.37001 0.26919,0.22341 0.33869,1.01868 0.28255,3.23356 l -0.0744,2.93728 -18.12396,0.0485 c -16.58804,0.0444 -18.23773,0.01 -19.46644,-0.41058 z m 37.40187,-2.50933 c 0.0494,-1.69481 -0.0313,-2.73615 -0.23084,-2.97656 -0.2568,-0.30943 -3.00606,-0.36978 -16.8464,-0.36978 -11.93246,0 -16.82944,-0.0869 -17.58037,-0.31185 -1.54803,-0.4638 -3.27207,-2.49434 -3.64562,-4.29372 -0.19791,-0.95331 -0.26762,-5.73054 -0.21511,-14.74044 0.0775,-13.30026 0.0791,-13.33279 0.68633,-14.56556 0.70435,-1.42984 1.88668,-2.42424 3.37304,-2.8369 0.70499,-0.19573 6.301,-0.2919 17.185,-0.29533 8.87677,-0.003 16.41135,-0.0779 16.74351,-0.16688 0.58705,-0.15727 0.60184,-0.24036 0.52917,-2.97295 l -0.0748,-2.81116 -17.19791,-0.0776 c -11.9017,-0.0537 -17.67744,0.0136 -18.75501,0.21878 -3.6128,0.68777 -6.30064,2.78358 -8.01354,6.24845 l -1.0127,2.04851 -0.0824,14.65885 c -0.0892,15.85507 0.009,17.44987 1.21926,19.86626 1.34779,2.69036 4.43237,5.13549 7.34154,5.8196 0.60017,0.14113 8.60863,0.22884 18.77372,0.20562 l 17.72708,-0.0405 z m -97.641165,2.56385 c 0.181902,-0.0734 0.479558,-0.0734 0.661459,0 0.181901,0.0734 0.03307,0.13345 -0.330729,0.13345 -0.363802,0 -0.512631,-0.06 -0.33073,-0.13345 z m 31.750002,0 c 0.181901,-0.0734 0.479557,-0.0734 0.661458,0 0.181901,0.0734 0.03307,0.13345 -0.330729,0.13345 -0.363802,0 -0.51263,-0.06 -0.330729,-0.13345 z m -34.858856,-0.8831 c -0.238467,-0.15411 -0.271101,-0.2581 -0.08176,-0.26054 0.173313,-0.002 0.388699,0.11501 0.478636,0.26054 0.203016,0.32848 0.111422,0.32848 -0.396876,0 z m -1.5066,-0.94535 -0.742358,-0.68076 0.859896,0.59823 c 0.472942,0.32902 0.859895,0.63536 0.859895,0.68076 0,0.20884 -0.292659,0.0297 -0.977433,-0.59823 z m 43.035129,-1.23747 c 0.64876,-0.69122 1.21431,-1.25677 1.25677,-1.25677 0.19867,0 -0.0114,0.23755 -1.17957,1.33398 l -1.25677,1.17956 z m -45.68827,-1.32291 c -0.396659,-0.51288 -0.646176,-0.99219 -0.516512,-0.99219 0.06461,0 0.312509,0.29765 0.550881,0.66146 0.446043,0.68074 0.421203,0.91978 -0.03437,0.33073 z m -1.010513,-1.53896 c -0.09592,-0.1552 -0.117656,-0.33893 -0.0483,-0.40829 0.06936,-0.0693 0.196603,0.0576 0.282774,0.28219 0.178907,0.46622 0.02642,0.54823 -0.234472,0.1261 z m 17.822665,-0.18068 c 3.830128,-0.0413 10.021378,-0.0413 13.758334,8e-5 3.736956,0.0414 0.603215,0.0752 -6.963869,0.0752 -7.567084,-4e-5 -10.624593,-0.0339 -6.794465,-0.0752 z m -18.308266,-1.00257 c -0.255318,-0.66535 -0.179999,-0.83703 0.131903,-0.30066 0.154435,0.26558 0.225055,0.5386 0.156933,0.60673 -0.06812,0.0681 -0.198099,-0.0696 -0.288836,-0.30607 z m 8.152752,-0.45279 -0.777105,-0.8599 0.92472,0.79375 c 0.508596,0.43656 0.974924,0.82352 1.036285,0.8599 0.06136,0.0364 -0.0051,0.0661 -0.147615,0.0661 -0.142549,0 -0.608877,-0.38695 -1.036285,-0.85989 z m 41.973992,-0.61737 c 0.0127,-0.30822 0.0754,-0.37091 0.15985,-0.15985 0.0764,0.191 0.067,0.4192 -0.0209,0.50712 -0.0879,0.0879 -0.15046,-0.0684 -0.13897,-0.34727 z m -7.279918,-0.71696 c 0.09936,-0.26094 0.247304,-0.40778 0.328766,-0.32632 0.08146,0.0815 1.68e-4,0.29496 -0.180654,0.47443 -0.261306,0.25936 -0.291697,0.22897 -0.148112,-0.14811 z m 7.590338,-0.84849 c 0.003,-0.58208 0.0571,-0.78905 0.12041,-0.45993 0.0633,0.32912 0.0609,0.80537 -0.005,1.05833 -0.0662,0.25297 -0.11801,-0.0163 -0.11507,-0.5984 z m -43.822581,-0.0102 c -0.255317,-0.66534 -0.179999,-0.83702 0.131904,-0.30065 0.154435,0.26557 0.225054,0.5386 0.156932,0.60672 -0.06812,0.0681 -0.198098,-0.0696 -0.288836,-0.30607 z M 53.571484,144.9917 c 0,-10.8413 0.03271,-15.27638 0.07268,-9.85573 0.03998,5.42065 0.03998,14.29081 0,19.71146 -0.03998,5.42065 -0.07268,0.98557 -0.07268,-9.85573 z m 44.13544,17.59479 c 0.002,-0.7276 0.05337,-0.99386 0.114186,-0.59167 0.06081,0.40218 0.05919,0.99749 -0.0036,1.32291 -0.0628,0.32542 -0.11256,-0.004 -0.110574,-0.73124 z m 0.0063,-5.02708 c 0.0015,-0.87313 0.05088,-1.19842 0.109765,-0.72287 0.05889,0.47555 0.05767,1.18992 -0.0027,1.5875 -0.06037,0.39758 -0.10855,0.008 -0.107065,-0.86463 z m 0.0134,-5.95313 c 0,-1.38245 0.04459,-1.94799 0.0991,-1.25677 0.0545,0.69122 0.0545,1.82232 0,2.51354 -0.0545,0.69123 -0.0991,0.12568 -0.0991,-1.25677 z m -0.01609,-12.96458 c 0,-0.80037 0.0496,-1.12779 0.110223,-0.72761 0.06062,0.40019 0.06062,1.05503 0,1.45521 -0.06062,0.40018 -0.110223,0.0728 -0.110223,-0.7276 z m 0.02351,-5.42396 c 4.63e-4,-1.89177 0.04261,-2.63096 0.09365,-1.64264 0.05105,0.98831 0.05067,2.53613 -8.41e-4,3.43958 -0.05151,0.90345 -0.09327,0.0948 -0.09281,-1.79694 z m -37.409053,-7.61987 c 0,-0.36757 -0.424305,-0.44471 -2.844271,-0.51707 l -2.844271,-0.085 2.852575,-0.0562 c 2.362151,-0.0465 2.879511,0.014 3.009249,0.35209 0.08617,0.22456 0.08243,0.48253 -0.0083,0.57326 -0.09074,0.0907 -0.164978,-0.0294 -0.164978,-0.26704 z M 104.51042,125.476 c 0,-0.15911 -0.20836,-0.34373 -0.46302,-0.41028 -0.41744,-0.10909 -0.41898,-0.12402 -0.0156,-0.15169 0.47735,-0.0327 0.90167,0.42822 0.63742,0.69246 -0.0873,0.0873 -0.15878,0.0286 -0.15878,-0.13049 z m -6.411268,-0.37265 c 0.15375,-0.15375 0.435721,-0.22749 0.626602,-0.16386 0.198159,0.066 0.07823,0.18599 -0.279546,0.27954 -0.440093,0.11509 -0.543395,0.0807 -0.347056,-0.11568 z m -44.173764,-0.13617 c 0.190996,-0.0764 0.419199,-0.067 0.507118,0.0209 0.08792,0.0879 -0.06835,0.15045 -0.347265,0.13896 -0.308225,-0.0127 -0.37092,-0.0754 -0.159853,-0.15985 z m 47.348622,-0.011 c 0.47555,-0.0589 1.18992,-0.0577 1.5875,0.003 0.39758,0.0604 0.008,0.10855 -0.86464,0.10706 -0.87312,-10e-4 -1.19841,-0.0509 -0.72286,-0.10976 z M 34.945885,112.55816 c 0.0127,-0.30822 0.07539,-0.37092 0.159852,-0.15985 0.07643,0.19099 0.06703,0.4192 -0.02089,0.50712 -0.08792,0.0879 -0.150453,-0.0683 -0.138964,-0.34727 z m 0.508278,-1.68213 c 0,-0.13693 0.117699,-0.32171 0.261553,-0.41061 0.149982,-0.0927 0.194339,0.0135 0.103984,0.24896 -0.175892,0.45837 -0.365537,0.54224 -0.365537,0.16165 z m 0.926042,-1.33853 c 0.263389,-0.29104 0.538421,-0.52917 0.611181,-0.52917 0.07276,0 -0.08321,0.23813 -0.346598,0.52917 -0.263389,0.29104 -0.53842,0.52917 -0.61118,0.52917 -0.07276,0 0.08321,-0.23813 0.346597,-0.52917 z m -4.630208,-0.51355 c 0,-0.13693 0.117698,-0.32171 0.261552,-0.41062 0.149982,-0.0927 0.194339,0.0135 0.103984,0.24897 -0.175892,0.45837 -0.365536,0.54223 -0.365536,0.16165 z m 5.55625,-0.38009 c 0,-0.055 0.208359,-0.26331 0.463021,-0.46302 0.419644,-0.32911 0.429002,-0.31975 0.0999,0.0999 -0.345644,0.44073 -0.562916,0.58089 -0.562916,0.36313 z m -4.497917,-1.32292 c 0,-0.0549 0.208359,-0.2633 0.463021,-0.46302 0.419644,-0.32911 0.429002,-0.31975 0.09989,0.0999 -0.345644,0.44073 -0.562916,0.58089 -0.562916,0.36313 z m 25.466147,-0.62768 c 9.276953,-0.0386 24.457423,-0.0386 33.734376,0 9.276957,0.0386 1.686719,0.0701 -16.867188,0.0701 -18.553907,0 -26.144142,-0.0315 -16.867188,-0.0701 z m -23.481772,-1.38909 c 0.263389,-0.29104 0.538421,-0.52917 0.611181,-0.52917 0.07276,0 -0.08321,0.23813 -0.346598,0.52917 -0.263389,0.29104 -0.53842,0.52916 -0.611181,0.52916 -0.07276,0 0.08321,-0.23812 0.346598,-0.52916 z m 2.442986,-1.62033 c 0.179476,-0.18083 0.39297,-0.26212 0.474432,-0.18066 0.08146,0.0815 -0.06538,0.22941 -0.326319,0.32877 -0.377084,0.14358 -0.407475,0.11319 -0.148113,-0.14811 z m 1.87303,-0.67708 c 0.190996,-0.0764 0.419199,-0.067 0.507118,0.0209 0.08792,0.0879 -0.06835,0.15045 -0.347266,0.13896 -0.308224,-0.0127 -0.370919,-0.0754 -0.159852,-0.15985 z"
         id="path28" /><path
         style="fill:#9b9b9b"
         d="m 59.22105,194.79951 c 9.215485,-0.0386 24.217361,-0.0386 33.337502,2e-5 9.120138,0.0386 1.580197,0.0701 -16.755428,0.0701 -18.335626,-1e-5 -25.797559,-0.0316 -16.582074,-0.0702 z m -18.938241,-0.24856 c 0.254662,-0.0666 0.671381,-0.0666 0.926042,0 0.254662,0.0666 0.0463,0.121 -0.463021,0.121 -0.509323,0 -0.717682,-0.0545 -0.463021,-0.121 z m -1.174088,-0.26294 c 0.190996,-0.0764 0.419199,-0.067 0.507118,0.0209 0.08792,0.0879 -0.06835,0.15045 -0.347266,0.13896 -0.308224,-0.0127 -0.370919,-0.0754 -0.159852,-0.15985 z m -1.932893,-0.60998 c -0.09269,-0.14998 0.01351,-0.19434 0.248969,-0.10398 0.458368,0.17589 0.542233,0.36554 0.161648,0.36554 -0.136933,0 -0.32171,-0.1177 -0.410617,-0.26156 z m -1.615821,-1.02851 c -1.286561,-0.9487 -2.495854,-2.25669 -3.239293,-3.50366 -0.960482,-1.61103 -0.633841,-1.47123 0.440774,0.18864 0.964066,1.48912 2.055636,2.61393 3.49268,3.59902 0.360362,0.24703 0.583771,0.45539 0.496464,0.46302 -0.08731,0.008 -0.623088,-0.32853 -1.190625,-0.74702 z m 23.111345,-1.55417 c 9.204193,-0.0386 24.2656,-0.0386 33.469793,0 9.204195,0.0386 1.67349,0.0701 -16.734896,0.0701 -18.408387,0 -25.93909,-0.0316 -16.734897,-0.0701 z m -17.991668,-0.24141 c 0.181902,-0.0734 0.479558,-0.0734 0.661459,0 0.181901,0.0734 0.03307,0.13345 -0.330729,0.13345 -0.363802,0 -0.512631,-0.0601 -0.33073,-0.13345 z m -1.373812,-0.32926 c -0.08155,-0.13195 0.09002,-0.1776 0.38126,-0.10144 0.617799,0.16156 0.695893,0.34135 0.148272,0.34135 -0.209694,0 -0.447983,-0.10796 -0.529532,-0.23991 z m -2.071895,-1.36707 c -1.013479,-0.8354 -2.313502,-2.779 -2.30317,-3.44335 0.0032,-0.2055 0.234536,0.13023 0.514089,0.74606 0.279553,0.61584 1.061772,1.65763 1.738264,2.31511 1.43041,1.3902 1.449698,1.53525 0.05082,0.38218 z m -6.112366,-2.92401 c -0.22057,-1.10285 -0.0068,-1.31661 0.231511,-0.23151 0.100456,0.45737 0.127495,0.88674 0.06009,0.95414 -0.06741,0.0674 -0.198627,-0.25778 -0.291599,-0.72263 z m 3.580579,-1.55443 c 0,-0.3638 0.06005,-0.51263 0.133452,-0.33073 0.0734,0.1819 0.0734,0.47956 0,0.66146 -0.0734,0.1819 -0.133452,0.0331 -0.133452,-0.33073 z m -0.17791,-35.98334 c 0,-19.28151 0.03148,-27.1694 0.06996,-17.52864 0.03848,9.64075 0.03848,25.41654 0,35.05729 -0.03847,9.64076 -0.06996,1.75287 -0.06996,-17.52865 z m 36.847073,25.46631 c 4.256484,-0.0409 11.221641,-0.0409 15.478125,0 4.256485,0.0409 0.773907,0.0743 -7.739063,0.0743 -8.512969,0 -11.995547,-0.0334 -7.739062,-0.0743 z m -10.16747,-0.41716 c -0.462499,-0.17083 -0.936245,-0.40732 -1.052769,-0.52552 -0.116525,-0.11821 0.142821,-0.0785 0.576323,0.0882 0.433502,0.16669 1.264436,0.39919 1.846519,0.51666 0.902928,0.18222 0.941779,0.21488 0.264584,0.22244 -0.436563,0.005 -1.172158,-0.13091 -1.634657,-0.30174 z m 33.803582,0.25366 c 0.06063,-0.0534 0.586493,-0.16971 1.168576,-0.25834 0.737605,-0.11231 0.897969,-0.0885 0.529167,0.0786 -0.507923,0.23012 -1.925068,0.38016 -1.697743,0.17974 z m 3.682118,-1.24323 c 2.434847,-1.34135 3.884487,-2.96053 4.933367,-5.51029 0.33568,-0.81601 0.61199,-1.30507 0.61402,-1.08678 0.008,0.83848 -1.3413,3.2268 -2.55711,4.52685 -1.16389,1.24453 -3.54257,2.87978 -4.180902,2.8742 -0.145521,-0.001 0.39026,-0.36306 1.190625,-0.80398 z m -40.754553,-0.8675 c -0.80516,-0.63209 -1.676149,-1.49521 -1.935531,-1.91806 -0.348133,-0.56752 -0.207307,-0.48089 0.537884,0.33089 0.55522,0.60483 1.533369,1.46803 2.173667,1.91822 0.640297,0.4502 1.057016,0.81847 0.926041,0.81838 -0.130974,-1e-4 -0.896902,-0.51734 -1.702061,-1.14943 z m -3.046706,-3.6375 c -0.232748,-0.45008 -0.376207,-0.86531 -0.318797,-0.92272 0.05741,-0.0574 0.302388,0.31085 0.544395,0.81834 0.544138,1.14107 0.355604,1.2283 -0.225598,0.10438 z m 10.249705,0.0644 c -0.33601,-0.0946 6.011095,-0.17206 14.104678,-0.17206 8.093583,0 14.440688,0.0774 14.104678,0.17206 -0.33601,0.0946 -6.683115,0.17207 -14.104678,0.17207 -7.421563,0 -13.768668,-0.0774 -14.104678,-0.17207 z m -1.638031,-0.56893 c -0.218281,-0.14107 -0.277813,-0.25649 -0.132292,-0.25649 0.145521,0 0.443177,0.11542 0.661459,0.25649 0.218281,0.14106 0.277812,0.25648 0.132291,0.25648 -0.14552,0 -0.443177,-0.11542 -0.661458,-0.25648 z m 31.646934,-0.43044 c 0.56601,-0.38227 1.111932,-0.8253 1.21316,-0.98453 0.101229,-0.15923 0.261131,-0.21242 0.35534,-0.11821 0.186119,0.18612 -1.907862,1.79776 -2.335802,1.79776 -0.143994,0 0.201292,-0.31276 0.767302,-0.69502 z m -33.012064,-0.56175 c -0.856393,-0.92949 -1.545565,-1.95941 -1.544298,-2.30783 5.44e-4,-0.14952 0.250808,0.14486 0.556143,0.65418 0.305335,0.50932 0.862946,1.25347 1.239137,1.65365 0.376191,0.40018 0.624452,0.7276 0.551692,0.7276 -0.07276,0 -0.433964,-0.32742 -0.802674,-0.7276 z m -8.118094,-0.8599 c 0,-0.3638 0.06005,-0.51263 0.133452,-0.33073 0.0734,0.1819 0.0734,0.47956 0,0.66146 -0.0734,0.1819 -0.133452,0.0331 -0.133452,-0.33073 z m 50.290446,-1.05833 c 0,-0.50932 0.0545,-0.71768 0.121,-0.46302 0.0666,0.25466 0.0666,0.67138 0,0.92604 -0.0665,0.25466 -0.121,0.0463 -0.121,-0.46302 z m -50.555029,-0.26458 c 0,-0.36381 0.06005,-0.51264 0.133452,-0.33073 0.0734,0.1819 0.0734,0.47955 0,0.66145 -0.0734,0.18191 -0.133452,0.0331 -0.133452,-0.33072 z m 43.637123,0.39687 c 0.02755,-0.50118 0.468513,-1.3451 0.483871,-0.92604 0.008,0.21828 -0.100871,0.57547 -0.241935,0.79375 -0.141065,0.21828 -0.249936,0.27781 -0.241936,0.13229 z M 60.45048,144.99167 c 0,-10.55026 0.03278,-14.86628 0.07285,-9.59115 0.04007,5.27513 0.04007,13.90716 0,19.18229 -0.04007,5.27513 -0.07285,0.95912 -0.07285,-9.59114 z m 37.574987,-0.50714 c 0.0023,-16.8053 0.05144,-19.17358 0.399533,-19.26858 0.292008,-0.0797 0.309953,-0.0467 0.06791,0.12479 -0.255887,0.18132 -0.34464,4.46168 -0.399533,19.26858 l -0.07057,19.03547 z m 6.549283,0.22933 c -0.0486,-14.29836 -0.14203,-19.00864 -0.38183,-19.24844 -0.24126,-0.24126 -0.24247,-0.3175 -0.005,-0.3175 0.17185,0 0.37731,0.26789 0.45657,0.59531 0.0793,0.32742 0.11049,8.98922 0.0694,19.24844 l -0.0747,18.65312 z M 53.710414,125.4125 c 0,-0.14552 0.126089,-0.26458 0.280198,-0.26458 0.15411,0 0.206614,0.11906 0.116677,0.26458 -0.08994,0.14552 -0.216026,0.26458 -0.280198,0.26458 -0.06417,0 -0.116677,-0.11906 -0.116677,-0.26458 z m 5.953125,0 c -0.504919,-0.21697 -0.501888,-0.22824 0.06615,-0.24599 0.327422,-0.0102 0.595313,0.10047 0.595313,0.24599 0,0.14552 -0.02977,0.25622 -0.06615,0.24599 -0.03638,-0.0102 -0.304271,-0.12092 -0.595313,-0.24599 z m 39.621356,-0.44697 c 0.254662,-0.0666 0.671381,-0.0666 0.926045,0 0.25466,0.0665 0.0463,0.121 -0.463024,0.121 -0.509323,0 -0.717682,-0.0545 -0.463021,-0.121 z M 34.678113,112.95042 c -0.02035,-0.48703 0.527488,-2.16218 0.662852,-2.02681 0.04961,0.0496 -0.07525,0.62123 -0.277475,1.27027 -0.202223,0.64905 -0.375642,0.98949 -0.385377,0.75654 z m -3.684674,-1.03167 c 0,-0.21828 0.102326,-0.635 0.227391,-0.92604 0.143329,-0.33354 0.227391,-0.38245 0.227391,-0.13229 0,0.21828 -0.102326,0.635 -0.227391,0.92604 -0.143329,0.33354 -0.227391,0.38245 -0.227391,0.13229 z m 0.491974,-1.68623 c 0,-0.28575 1.050981,-2.28252 1.20138,-2.28252 0.07276,0 -0.122888,0.50602 -0.434775,1.12448 -0.613347,1.21625 -0.766605,1.44776 -0.766605,1.15804 z m 5.291667,-1.32132 c 0.509323,-0.55255 1.164167,-1.13005 1.455209,-1.28334 0.291041,-0.15329 0.469635,-0.22334 0.396875,-0.15567 -0.07276,0.0677 -0.727605,0.64517 -1.455209,1.28334 -1.257364,1.10281 -1.27703,1.11053 -0.396875,0.15567 z m -3.461448,-1.88724 c 0.584245,-0.78948 2.3792,-2.3364 3.263011,-2.81211 0.821171,-0.44199 0.492441,-0.0558 -0.529167,0.6216 -0.545703,0.36186 -1.516226,1.18135 -2.156718,1.82109 -0.746269,0.7454 -0.953554,0.87808 -0.577126,0.36942 z m 6.239573,-0.0767 c 0.737445,-0.42033 3.224255,-0.45291 35.057294,-0.45919 l 34.263541,-0.007 -34.263541,0.13906 c -26.717549,0.10843 -34.390821,0.21189 -34.841462,0.46978 -0.317855,0.18191 -0.675043,0.32597 -0.79375,0.32014 -0.118708,-0.006 0.141356,-0.21418 0.577918,-0.46302 z m -1.455208,-3.49514 c 0.218281,-0.14106 0.575469,-0.24993 0.79375,-0.24193 0.261687,0.01 0.216625,0.092 -0.132292,0.24193 -0.727362,0.31256 -1.145108,0.31256 -0.661458,0 z m 2.060101,-0.57671 c 0.249393,-0.0989 15.812504,-0.16026 34.584692,-0.13632 18.772189,0.0239 30.55938,0.0748 26.19375,0.11309 -19.424096,0.17024 -61.189358,0.1862 -60.778442,0.0232 z"
         id="path27" /><path
         style="fill:#d1715d"
         d="m 141.68438,194.47221 c 30.57924,-0.1319 32.88864,-0.17336 33.99029,-0.6102 3.80035,-1.50695 6.23024,-4.02299 7.30497,-7.56398 0.55324,-1.82279 0.55324,-73.11702 0,-74.9398 -1.02297,-3.37045 -3.51933,-6.0334 -6.95648,-7.42071 l -1.53045,-0.61773 -32.80833,-0.13679 -32.80834,-0.13678 32.14688,-0.0577 c 35.07034,-0.063 34.12721,-0.0997 36.74033,1.43164 2.54085,1.48904 4.52168,3.88454 5.41915,6.55358 0.39984,1.18911 0.43818,4.51999 0.43557,37.83541 -0.002,31.61269 -0.056,36.70663 -0.3974,37.83209 -1.17321,3.86741 -4.77553,7.05292 -8.84948,7.82553 -0.90704,0.17202 -12.77504,0.24539 -33.45043,0.2068 l -32.04462,-0.0598 z m -19.54219,-20.41723 c -3.32294,-1.30141 -5.87239,-4.09502 -6.93641,-7.6007 -0.54556,-1.79749 -0.54556,-31.60273 0,-33.40022 1.23488,-4.06863 4.9258,-7.51951 8.83765,-8.26287 1.60874,-0.30571 36.62507,-0.21186 36.93592,0.099 0.16955,0.16954 0.28419,1.51022 0.28419,3.32332 0,2.41355 -0.0817,3.09077 -0.39687,3.29001 -0.23895,0.15104 -6.93187,0.25249 -16.81917,0.25493 -18.36475,0.005 -18.4168,0.009 -19.92108,1.72231 -0.44369,0.50534 -0.93753,1.36726 -1.09741,1.91538 -0.19963,0.6844 -0.26553,5.36134 -0.21037,14.93079 l 0.0803,13.93421 0.79375,1.12347 c 0.43656,0.61791 1.27,1.3722 1.85208,1.6762 1.03337,0.5397 1.46195,0.55585 18.16836,0.68503 9.41051,0.0728 17.20911,0.2312 17.33021,0.35209 0.1211,0.12089 0.25999,1.50133 0.30865,3.06764 0.0738,2.37742 0.0161,2.9202 -0.34963,3.28593 -0.39943,0.39942 -2.04184,0.4372 -18.6093,0.42803 l -18.1712,-0.01 z m 38.66663,-2.49955 c 0.0561,-2.21488 -0.0134,-3.01015 -0.28255,-3.23356 -0.25316,-0.2101 -5.27727,-0.31773 -17.27236,-0.37001 -16.56813,-0.0722 -16.93709,-0.0851 -17.9737,-0.62646 -0.58208,-0.304 -1.41552,-1.0583 -1.85208,-1.67622 l -0.79375,-1.1235 -0.0726,-14.62225 -0.0726,-14.62225 0.86634,-1.27789 c 0.50244,-0.74112 1.31088,-1.5079 1.92467,-1.82549 1.03328,-0.53463 1.45866,-0.54929 17.97149,-0.61949 11.81961,-0.0502 17.01883,-0.1596 17.26406,-0.36312 0.25174,-0.20893 0.35091,-1.09655 0.35091,-3.14094 0,-2.35449 -0.0727,-2.87763 -0.41852,-3.01032 -0.23018,-0.0883 -8.29666,-0.15918 -17.92552,-0.15746 -13.75941,0.002 -17.79019,0.0788 -18.82992,0.35653 -3.99757,1.06784 -7.17348,4.23209 -8.22989,8.19966 -0.52185,1.95993 -0.53013,30.63401 -0.009,32.58338 1.02243,3.82757 3.82726,6.78341 7.69057,8.10463 1.22871,0.42021 2.8784,0.455 19.46644,0.41058 l 18.12396,-0.0485 z"
         id="path26" /><path
         style="fill:#5f5f5f"
         d="m 40.216664,194.4332 c -2.583199,-0.42296 -5.486132,-2.2164 -6.92331,-4.27723 -0.354189,-0.50789 0.01312,-0.23996 0.91809,0.66969 1.469415,1.477 2.570187,2.18279 4.788866,3.07049 0.978563,0.39153 4.444263,0.44756 35.612189,0.57579 l 34.528131,0.14206 -33.734381,0.0287 c -18.90947,0.0161 -34.373883,-0.076 -35.189585,-0.20954 z m -0.132292,-3.41095 c -0.353341,-0.15645 -0.133559,-0.18199 0.661458,-0.0769 0.654844,0.0866 1.240235,0.20039 1.300868,0.2529 0.229825,0.19903 -1.457008,0.0477 -1.962326,-0.17603 z m -1.5875,-0.67134 c -1.297093,-0.67068 -2.969583,-2.48313 -3.622647,-3.9258 l -0.610687,-1.34907 v -36.38021 -36.3802 l 0.655146,-1.32292 c 0.826754,-1.66944 2.409815,-3.24895 4.110256,-4.10104 l 1.320015,-0.66146 34.113141,-0.071 c 18.762228,-0.0391 34.204614,0.0205 34.316414,0.13229 0.1118,0.11183 -15.239112,0.20332 -34.11314,0.20332 H 40.348955 l -1.339706,0.70705 c -1.601076,0.845 -3.140207,2.47836 -3.915626,4.15536 l -0.565501,1.22301 -0.07531,35.05729 c -0.05335,24.83245 0.01056,35.57258 0.219101,36.82402 0.44628,2.67802 1.497549,4.10414 4.391054,5.95678 0.709611,0.45434 0.363191,0.4131 -0.566091,-0.0674 z M 32.0044,188.0988 c -0.302556,-0.59306 -0.513335,-1.23887 -0.468398,-1.43513 0.04494,-0.19626 0.334172,0.28897 0.642745,1.07829 0.665582,1.70254 0.590536,1.85613 -0.174347,0.35684 z m -0.88139,-2.69203 c -0.221292,-0.82574 -0.171968,-72.98431 0.05027,-73.54429 0.09891,-0.24924 0.179842,16.33022 0.179842,36.84323 0,20.513 -0.01588,37.29638 -0.03529,37.29638 -0.01941,0 -0.107079,-0.26789 -0.194824,-0.59532 z m 31.330641,-11.59996 c -2.745488,-0.53818 -5.947797,-2.89947 -7.163258,-5.28197 -0.706596,-1.38504 -0.478998,-1.33363 0.358137,0.0809 1.471808,2.48695 4.281847,4.44573 7.134215,4.97302 0.985544,0.18218 7.091376,0.25158 17.572474,0.1997 8.834178,-0.0437 15.710189,-0.004 15.280024,0.0876 -1.204063,0.2573 -31.845858,0.20256 -33.181592,-0.0593 z m 35.30989,-0.87719 c 2.071542,-0.94982 3.865289,-2.54398 4.960939,-4.40894 0.5457,-0.92886 0.99107,-1.57249 0.9897,-1.43028 -0.006,0.61691 -1.62468,3.00585 -2.72243,4.01773 -1.188473,1.09549 -3.561998,2.47246 -4.211601,2.4433 -0.186738,-0.008 0.255788,-0.2882 0.983392,-0.62181 z m -34.559974,-5.12934 c -1.030202,-0.53818 -1.632234,-1.09032 -2.213026,-2.02961 l -0.797835,-1.2903 -0.07127,-19.18227 c -0.05464,-14.70716 -0.147229,-19.27434 -0.396875,-19.57696 -0.265378,-0.32168 -0.252196,-0.37043 0.07127,-0.26354 0.34637,0.11447 0.41371,2.60309 0.529167,19.55605 0.132182,19.40878 0.132772,19.42567 0.711092,20.35545 0.88134,1.41695 1.778361,2.13958 3.314713,2.67026 0.768984,0.26562 1.143859,0.48684 0.833054,0.49159 -0.310804,0.005 -1.201935,-0.32405 -1.98029,-0.73067 z m 30.633624,0.35966 c 1.576942,-0.49319 2.627678,-1.32669 3.462309,-2.7465 l 0.728625,-1.23948 0.07287,-19.30313 c 0.05615,-14.87459 0.147205,-19.35035 0.396875,-19.50897 0.178201,-0.11321 1.470283,-0.20766 2.8713,-0.20989 1.86714,-0.003 2.62954,0.0951 2.85536,0.36715 0.46257,0.55737 0.28597,39.71514 -0.18329,40.63922 -0.33173,0.65326 -0.33361,0.65162 -0.15246,-0.1323 0.10089,-0.43656 0.2268,-9.69032 0.2798,-20.56391 l 0.0964,-19.77017 -0.60487,-0.15165 c -0.33268,-0.0834 -1.6169,-0.11652 -2.85383,-0.0736 l -2.248961,0.0781 -0.132291,19.31459 -0.132292,19.31458 -0.702426,1.19063 c -0.386334,0.65484 -0.983272,1.45283 -1.326528,1.7733 -0.71258,0.6653 -2.357318,1.41021 -3.055777,1.384 -0.259336,-0.01 0.02381,-0.17262 0.629214,-0.36195 z M 54.371873,166.6875 c -0.09934,-0.31297 -0.121077,-0.62857 -0.04832,-0.70133 0.07276,-0.0728 0.213566,0.12377 0.3129,0.43675 0.09933,0.31297 0.121077,0.62857 0.04832,0.70134 -0.07276,0.0728 -0.213565,-0.12378 -0.3129,-0.43676 z m -0.491636,-2.3151 c -0.0902,-0.54571 -0.165309,-9.45158 -0.166911,-19.79084 -0.0022,-14.27168 0.07355,-18.8751 0.314588,-19.11614 0.174625,-0.17463 0.680641,-0.30183 1.124479,-0.28267 0.800875,0.0346 0.799974,0.0361 -0.119062,0.19844 l -0.926042,0.1636 v 19.90997 c 0,10.95048 -0.01419,19.90993 -0.03153,19.9099 -0.01734,-4e-5 -0.105326,-0.44656 -0.195525,-0.99226 z m 3.208353,-39.15165 c 0.475549,-0.0589 1.189924,-0.0577 1.5875,0.003 0.397577,0.0604 0.0085,0.10855 -0.864634,0.10706 -0.873125,-0.001 -1.198415,-0.0509 -0.722866,-0.10976 z M 31.508061,110.86042 c -0.008,-0.21828 0.100871,-0.57547 0.241936,-0.79375 0.312558,-0.48365 0.312558,-0.0659 0,0.66146 -0.149935,0.34891 -0.232346,0.39397 -0.241936,0.13229 z m 1.007609,-2.31511 c 0.946424,-1.8346 4.085263,-4.48722 5.84891,-4.94289 0.363802,-0.094 0.04221,0.13773 -0.714661,0.51493 -1.758358,0.87633 -3.870256,2.77394 -4.741236,4.26016 -0.831163,1.41827 -1.096553,1.53158 -0.393013,0.1678 z m 7.304119,-5.35781 c 0.436562,-0.11109 1.031875,-0.20419 1.322916,-0.2069 0.414654,-0.004 0.386026,0.0409 -0.132291,0.2069 -0.363802,0.11651 -0.959115,0.20962 -1.322917,0.20691 -0.594147,-0.004 -0.580685,-0.0255 0.132292,-0.20691 z"
         id="path25" /><path
         style="fill:#da310b"
         d="m 109.00833,193.94371 c 0,-0.52019 0.29888,-0.52608 32.34532,-0.63756 17.78992,-0.0619 32.94245,-0.11948 33.67229,-0.12799 0.72984,-0.009 1.56169,-0.18711 1.84857,-0.39688 0.50342,-0.36811 0.50499,-0.39975 0.0449,-0.9082 -0.61431,-0.6788 -0.21703,-0.94177 1.08935,-0.72106 0.89143,0.15061 1.07681,0.0701 1.98935,-0.86447 0.71787,-0.73517 1.12095,-1.46955 1.40626,-2.56213 0.21997,-0.84237 0.58657,-1.81639 0.81466,-2.1645 0.49081,-0.74907 0.35053,-3.90753 -0.19595,-4.41189 -0.25303,-0.23352 -0.28863,-0.2295 -0.1498,0.0169 0.10015,0.17779 -0.0213,0.63361 -0.26979,1.01293 -0.58363,0.89073 -0.94212,0.362 -0.71278,-1.05127 0.12373,-0.76241 0.26359,-0.96122 0.61208,-0.87009 0.4135,0.10813 0.4663,-0.43291 0.62415,-6.39523 0.0948,-3.58234 0.18245,-19.18009 0.1947,-34.66167 0.0232,-29.28298 0.0378,-28.86344 -0.99668,-28.4854 -0.21584,0.0789 -0.26805,-0.15421 -0.16996,-0.75872 0.12539,-0.77265 -0.009,-1.02839 -1.17684,-2.23329 -0.72514,-0.7484 -1.43006,-1.36073 -1.56648,-1.36073 -0.13642,0 -0.59774,-0.36783 -1.02515,-0.8174 -0.7426,-0.78111 -0.84474,-0.80988 -2.30075,-0.64806 -1.12229,0.12473 -1.66732,0.0687 -2.06908,-0.2127 -0.39777,-0.2786 -0.45087,-0.41984 -0.19614,-0.52167 0.1921,-0.0768 -14.08704,-0.14904 -31.73145,-0.16053 -28.33053,-0.0185 -32.08073,-0.0673 -32.08073,-0.41776 0,-0.35058 3.69614,-0.3967 31.68386,-0.39535 19.45865,9.4e-4 32.29639,0.10172 33.27135,0.26119 4.17612,0.68304 7.78358,3.84714 9.0161,7.90801 0.55324,1.82278 0.55324,73.11701 0,74.9398 -1.33434,4.39632 -5.03163,7.4465 -9.60843,7.92673 -1.12942,0.1185 -16.07311,0.22188 -33.20819,0.22973 -30.90152,0.0142 -31.15469,0.01 -31.15469,-0.51078 z m -0.24369,-3.59805 c 0.0127,-0.30822 0.0754,-0.37092 0.15985,-0.15985 0.0764,0.191 0.067,0.4192 -0.0209,0.50712 -0.0879,0.0879 -0.15045,-0.0683 -0.13896,-0.34727 z m 0.12854,-10.66585 c -0.17697,-0.28633 0.59201,-0.62045 0.9371,-0.40718 0.13476,0.0833 0.17652,0.26227 0.0928,0.39774 -0.19383,0.31362 -0.83826,0.31953 -1.0299,0.009 z m 49.59224,0.0311 c 0,-0.11314 0.18932,-0.47601 0.42071,-0.80637 0.33051,-0.47186 0.49951,-0.53526 0.78819,-0.29567 0.26939,0.22357 0.29585,0.43882 0.0992,0.80636 -0.25787,0.48183 -1.30805,0.71921 -1.30805,0.29568 z m -36.18345,-1.18335 c 0.0597,-0.1819 0.50857,-0.3697 0.99746,-0.41732 0.78361,-0.0763 0.84786,-0.0372 0.54254,0.33073 -0.41582,0.50103 -1.69975,0.57322 -1.54,0.0866 z m 39.95376,-0.63825 c -0.51868,-0.2093 -0.39027,-0.73591 0.33274,-1.36456 0.83721,-0.72794 0.92403,-0.72203 0.92403,0.0629 0,1.28707 -0.36247,1.66248 -1.25677,1.30162 z m -37.79131,-2.1763 c -0.44869,-0.27361 -1.2226,-0.58251 -1.7198,-0.68645 -0.4972,-0.10393 -1.1677,-0.35587 -1.49,-0.55987 -0.3223,-0.204 -0.80632,-0.3709 -1.0756,-0.3709 -0.57494,0 -4.82069,-4.57836 -4.82069,-5.19835 0,-0.30682 -0.13396,-0.25201 -0.50861,0.2081 l -0.50861,0.62462 -0.28518,-0.74493 c -0.21111,-0.55145 -0.2017,-0.89504 0.0362,-1.32291 0.41101,-0.73917 0.42671,-0.9617 0.12473,-1.76862 -0.24537,-0.65563 -0.29078,-30.35078 -0.048,-31.37117 0.43209,-1.8159 1.12595,-3.88226 1.35496,-4.03511 0.47495,-0.317 0.64766,-1.16088 0.31871,-1.55724 -0.1809,-0.21798 -0.28975,-0.97553 -0.25179,-1.75241 0.0728,-1.49065 0.44974,-1.97156 2.11498,-2.69866 1.11266,-0.48583 1.62133,-0.49482 1.62133,-0.0286 0,0.19851 -0.51711,0.55842 -1.14915,0.7998 -1.23729,0.47253 -1.86212,1.30316 -1.71869,2.28479 0.14062,0.96245 0.50973,0.87623 2.10891,-0.4926 0.81952,-0.70146 1.95061,-1.49402 2.51354,-1.76123 0.56294,-0.26722 0.90446,-0.51519 0.75894,-0.55104 -0.14553,-0.0359 -0.59201,-0.13741 -0.99219,-0.22567 -0.40018,-0.0883 -0.72761,-0.32389 -0.72761,-0.52363 0,-0.55734 1.21627,-0.73676 2.20213,-0.32484 0.60825,0.25414 1.48177,0.32643 2.80262,0.23192 1.63442,-0.11694 1.9524,-0.22006 2.1445,-0.69547 0.18275,-0.45224 0.22873,-0.4703 0.24232,-0.0951 0.0158,0.43521 0.8988,0.46302 14.70114,0.46302 14.3316,0 14.69709,-0.0127 15.21355,-0.52917 0.67791,-0.67792 0.84936,-0.66597 1.62881,0.11347 0.35345,0.35345 0.97183,0.72527 1.37419,0.82625 1.20139,0.30153 1.4806,1.04458 1.54972,4.12418 0.0745,3.31793 -0.24028,4.06274 -1.83874,4.35119 -0.54681,0.0987 -1.0915,0.23528 -1.21042,0.30356 -0.11893,0.0683 -7.59058,0.10648 -16.60366,0.0849 l -16.38743,-0.0393 -0.91048,0.69446 c -1.67082,1.2744 -1.70435,1.60046 -1.64969,16.04372 0.0268,7.08201 0.13803,12.96569 0.24717,13.07482 0.10914,0.10914 0.19844,0.48007 0.19844,0.8243 0,0.34422 0.16956,1.03166 0.37679,1.52764 0.30759,0.73617 0.5627,0.93536 1.38906,1.08459 0.55675,0.10054 1.13134,0.25311 1.27686,0.33904 0.14552,0.0859 0.44318,0.21421 0.66146,0.28505 0.21828,0.0709 7.64629,0.1585 16.50669,0.1948 l 16.10982,0.066 1.03619,0.68571 c 1.011,0.66905 1.03189,0.71441 0.85926,1.86558 -0.21593,1.43992 0.17954,2.1191 0.95274,1.63623 0.66398,-0.41466 0.8711,-0.14071 0.65105,0.86115 -0.17321,0.78863 -0.20742,0.80847 -0.67084,0.38908 -0.46531,-0.4211 -0.50465,-0.38653 -0.83484,0.73361 -0.41111,1.39461 -1.91651,3.22532 -2.47574,3.01073 -0.21138,-0.0811 -0.38432,-0.24052 -0.3843,-0.35422 6e-5,-0.32142 -32.84904,-0.13961 -33.17224,0.18359 -0.38436,0.38435 -0.71266,0.33872 -1.64254,-0.22832 z m 36.53796,-1.26156 c 0.36572,-0.36573 0.42347,-0.90851 0.34963,-3.28593 -0.0487,-1.56631 -0.18755,-2.94675 -0.30865,-3.06764 -0.1211,-0.12089 -7.9197,-0.27933 -17.33021,-0.35209 -16.70641,-0.12918 -17.13499,-0.14533 -18.16836,-0.68503 -0.58208,-0.304 -1.41552,-1.05829 -1.85208,-1.6762 l -0.79375,-1.12347 -0.0803,-13.93421 c -0.0552,-9.56945 0.0107,-14.24639 0.21037,-14.93079 0.15988,-0.54812 0.65372,-1.41004 1.09741,-1.91538 1.50428,-1.71328 1.55633,-1.71778 19.92108,-1.72231 9.8873,-0.002 16.58022,-0.10389 16.81917,-0.25493 0.31518,-0.19924 0.39687,-0.87646 0.39687,-3.29001 0,-1.8131 -0.11464,-3.15378 -0.28419,-3.32332 -0.31085,-0.31086 -35.32718,-0.40471 -36.93592,-0.099 -3.91185,0.74336 -7.60277,4.19424 -8.83765,8.26287 -0.54556,1.79749 -0.54556,31.60273 0,33.40022 0.63927,2.10625 1.49534,3.4859 3.20385,5.16336 1.31716,1.29323 2.07529,1.78828 3.73256,2.43734 l 2.07969,0.8145 18.1712,0.01 c 16.56746,0.009 18.20987,-0.0286 18.6093,-0.42803 z m 2.12721,0.98985 c -0.0852,-0.13784 -0.0421,-0.32032 0.0957,-0.40551 0.13784,-0.0852 0.32032,-0.0421 0.40551,0.0957 0.0852,0.13784 0.0421,0.32032 -0.0957,0.40551 -0.13784,0.0852 -0.32032,0.0421 -0.40551,-0.0957 z m -54.38584,-0.68406 c 0,-0.39441 0.11393,-0.62227 0.26458,-0.52916 0.14552,0.0899 0.26459,0.32806 0.26459,0.52916 0,0.20111 -0.11907,0.43923 -0.26459,0.52917 -0.15065,0.0931 -0.26458,-0.13475 -0.26458,-0.52917 z m 0,-1.5875 c 0,-0.39441 0.11393,-0.62227 0.26458,-0.52916 0.14552,0.0899 0.26459,0.32806 0.26459,0.52916 0,0.20111 -0.11907,0.43923 -0.26459,0.52917 -0.15065,0.0931 -0.26458,-0.13475 -0.26458,-0.52917 z m 7.2099,-0.5721 c -0.46525,-0.18773 -0.41316,-0.8831 0.0661,-0.8831 0.22049,0 0.39688,0.23518 0.39688,0.52916 0,0.29104 -0.0298,0.51977 -0.0661,0.50828 -0.0364,-0.0115 -0.21497,-0.0809 -0.39687,-0.15434 z m -2.71198,-1.69247 c 0,-0.29963 0.11906,-0.4712 0.26458,-0.38126 0.14552,0.0899 0.26458,0.33509 0.26458,0.54478 0,0.20969 -0.11906,0.38126 -0.26458,0.38126 -0.14552,0 -0.26458,-0.24515 -0.26458,-0.54478 z m -3.6607,-2.71013 c -0.29998,-0.36145 -0.12993,-1.50759 0.22366,-1.50759 0.25947,0 0.52662,0.6821 0.52662,1.34456 0,0.58659 -0.33783,0.66 -0.75028,0.16303 z m 52.92942,-1.02803 c -0.37015,-0.37016 -0.42957,-1.43944 -0.0916,-1.64833 0.12607,-0.0779 0.43416,0.0848 0.68465,0.36158 0.75203,0.83098 0.18387,2.06369 -0.59307,1.28675 z m -38.24596,-5.62345 c -0.32564,-0.84859 -0.18811,-1.67009 0.30099,-1.79799 0.36201,-0.0947 0.48867,0.044 0.52949,0.5796 0.0295,0.38721 -0.10595,0.92228 -0.301,1.18903 -0.33097,0.45262 -0.36631,0.45458 -0.52948,0.0294 z m 0.9597,-26.85803 c 0.1606,-0.42548 0.38774,-0.71442 0.50477,-0.6421 0.38402,0.23734 0.22274,0.87007 -0.292,1.14555 -0.46838,0.25067 -0.48372,0.21437 -0.21277,-0.50345 z m -15.42205,0.23631 c 0,-0.15411 0.11907,-0.20662 0.26459,-0.11668 0.14552,0.0899 0.26458,0.21603 0.26458,0.2802 0,0.0642 -0.11906,0.11667 -0.26458,0.11667 -0.14552,0 -0.26459,-0.12608 -0.26459,-0.28019 z m 3.43959,-1.15721 c 0,-0.81963 -0.93742,-1.83991 -1.42322,-1.54902 -0.1761,0.10545 -0.16316,0.0127 0.0319,-0.22828 0.18064,-0.22322 0.25009,-0.4842 0.15434,-0.57995 -0.0957,-0.0958 0.041,-0.1741 0.30386,-0.1741 0.26287,0 0.64019,-0.20835 0.83849,-0.46302 0.33959,-0.4361 0.35124,-0.43628 0.20048,-0.003 -0.088,0.25297 -0.0146,1.06627 0.16317,1.80733 0.23842,0.99388 0.24554,1.42507 0.0271,1.64349 -0.21842,0.21842 -0.2961,0.0995 -0.2961,-0.45338 z m 49.37352,-0.8321 c -0.0936,-0.24387 -0.0289,-0.61355 0.14365,-0.8215 0.17259,-0.20796 0.46971,-0.93701 0.66027,-1.62011 l 0.34647,-1.24201 -0.0604,1.98114 c -0.0484,1.58719 -0.14585,1.99753 -0.49012,2.06351 -0.23636,0.0453 -0.5063,-0.11716 -0.59988,-0.36103 z m -52.01936,-4.44275 c 0,-0.51775 0.17025,-0.65447 0.9783,-0.7856 0.53806,-0.0873 1.02382,-0.11322 1.07947,-0.0576 0.0556,0.0556 -0.10062,0.40917 -0.34726,0.78559 -0.59858,0.91355 -1.71051,0.95098 -1.71051,0.0576 z m 52.68363,0.0143 c -0.35963,-0.90457 -0.38452,-1.76871 -0.0509,-1.76871 0.13485,0 0.29389,-0.20836 0.35343,-0.46302 0.0654,-0.27955 0.1885,-0.0755 0.31077,0.51496 0.11302,0.5458 0.0877,1.30581 -0.0573,1.7198 l -0.25983,0.7418 z m -0.34675,-4.1342 c -0.68195,-1.37854 -0.73484,-1.86785 -0.20189,-1.86785 0.37256,0 1.08019,1.88355 0.99186,2.64011 -0.0673,0.57649 -0.17469,0.47151 -0.78997,-0.77226 z m -53.10974,-3.08052 c 0.0127,-0.30822 0.0754,-0.37092 0.15985,-0.15985 0.0764,0.19099 0.067,0.4192 -0.0209,0.50712 -0.0879,0.0879 -0.15046,-0.0683 -0.13897,-0.34727 z m 15.06036,-0.11024 c 0,-0.14552 0.24516,-0.26459 0.54479,-0.26459 0.29963,0 0.47119,0.11907 0.38126,0.26459 -0.0899,0.14552 -0.33509,0.26458 -0.54479,0.26458 -0.20969,0 -0.38126,-0.11906 -0.38126,-0.26458 z m 34.34623,-0.18074 c 0.191,-0.0764 0.4192,-0.067 0.50712,0.0209 0.0879,0.0879 -0.0684,0.15045 -0.34727,0.13896 -0.30822,-0.0127 -0.37092,-0.0754 -0.15985,-0.15985 z m -50.46492,-13.99652 c 0.0127,-0.30822 0.0754,-0.37092 0.15985,-0.15985 0.0764,0.19099 0.067,0.4192 -0.0209,0.50712 -0.0879,0.0879 -0.15045,-0.0684 -0.13896,-0.34727 z"
         id="path24" /><path
         style="fill:#e12d06"
         d="m 108.91759,190.83484 c -0.0941,-1.42109 -0.17172,-4.49825 -0.17247,-6.83814 -0.001,-3.88386 0.0389,-4.25251 0.46165,-4.23333 0.25466,0.0115 0.46302,-0.0981 0.46302,-0.24358 0,-0.14552 -0.20836,-0.23622 -0.46302,-0.20155 -0.40289,0.0548 -0.46302,-0.17757 -0.46302,-1.78953 0,-1.01891 0.14585,-2.08609 0.3241,-2.37153 0.24479,-0.39197 0.24943,-0.59365 0.019,-0.82411 -0.23047,-0.23047 -0.23047,-0.42472 0,-0.79375 0.23285,-0.37286 0.22836,-0.56539 -0.019,-0.81271 -0.25215,-0.25215 -0.3238,-7.34642 -0.32273,-31.95505 7.5e-4,-17.39701 0.0782,-32.79179 0.1722,-34.21062 l 0.17082,-2.57969 32.04083,0.0209 c 17.62245,0.0115 31.88364,0.0837 31.69154,0.16053 -0.25473,0.10183 -0.20163,0.24307 0.19614,0.52167 0.40176,0.2814 0.94679,0.33743 2.06908,0.2127 1.45601,-0.16182 1.55815,-0.13305 2.30075,0.64806 0.42741,0.44957 0.88873,0.8174 1.02515,0.8174 0.13642,0 0.84134,0.61233 1.56648,1.36073 1.16746,1.2049 1.30223,1.46064 1.17684,2.23329 -0.0981,0.60451 -0.0459,0.8376 0.16996,0.75872 1.03452,-0.37804 1.01984,-0.79758 0.99668,28.4854 -0.0122,15.48158 -0.0999,31.07933 -0.1947,34.66167 -0.15785,5.96232 -0.21065,6.50336 -0.62415,6.39523 -0.34849,-0.0911 -0.48835,0.10768 -0.61208,0.87009 -0.22934,1.41327 0.12915,1.942 0.71278,1.05127 0.24854,-0.37932 0.36994,-0.83514 0.26979,-1.01293 -0.13883,-0.24644 -0.10323,-0.25046 0.1498,-0.0169 0.54648,0.50436 0.68676,3.66282 0.19595,4.41189 -0.22809,0.34811 -0.59469,1.32213 -0.81466,2.1645 -0.28531,1.09258 -0.68839,1.82696 -1.40626,2.56213 -0.91254,0.93452 -1.09792,1.01508 -1.98935,0.86447 -1.30638,-0.22071 -1.70366,0.0423 -1.08935,0.72106 0.46014,0.50845 0.45857,0.54009 -0.0449,0.9082 -0.28688,0.20977 -1.11873,0.38836 -1.84857,0.39688 -0.72984,0.009 -15.86429,0.0661 -33.63212,0.12798 l -32.30514,0.1125 z m 50.87588,-11.41956 c 0.1967,-0.36754 0.17024,-0.58279 -0.0992,-0.80636 -0.28868,-0.23959 -0.45768,-0.17619 -0.78819,0.29567 -0.55257,0.78891 -0.53071,1.01208 0.0992,1.01208 0.28592,0 0.6406,-0.22562 0.78819,-0.50139 z m -35.9515,-0.97426 c 0.30532,-0.3679 0.24107,-0.40707 -0.54254,-0.33073 -0.48889,0.0476 -0.93774,0.23542 -0.99746,0.41732 -0.15975,0.48663 1.12418,0.41444 1.54,-0.0866 z m 39.50993,-0.79495 c 0.19261,-0.50192 0.21397,-1.69815 0.0303,-1.69815 -0.29714,0 -1.45722,1.1789 -1.45722,1.48087 0,0.64752 1.19215,0.82905 1.4269,0.21728 z m -37.24494,-1.70469 c 0.3232,-0.3232 33.1723,-0.50501 33.17224,-0.18359 -2e-5,0.1137 0.17292,0.2731 0.3843,0.35422 0.55923,0.21459 2.06463,-1.61612 2.47574,-3.01073 0.33019,-1.12014 0.36953,-1.15471 0.83484,-0.73361 0.46342,0.41939 0.49763,0.39955 0.67084,-0.38908 0.22005,-1.00186 0.0129,-1.27581 -0.65105,-0.86115 -0.7732,0.48287 -1.16867,-0.19631 -0.95274,-1.63623 0.17263,-1.15117 0.15174,-1.19653 -0.85926,-1.86558 l -1.03619,-0.68571 -16.10982,-0.066 c -8.8604,-0.0363 -16.28841,-0.12395 -16.50669,-0.1948 -0.21828,-0.0708 -0.51594,-0.19911 -0.66146,-0.28505 -0.14552,-0.0859 -0.72011,-0.2385 -1.27686,-0.33904 -0.82636,-0.14923 -1.08147,-0.34842 -1.38906,-1.08459 -0.20723,-0.49598 -0.37679,-1.18342 -0.37679,-1.52764 0,-0.34423 -0.0893,-0.71516 -0.19844,-0.8243 -0.10914,-0.10913 -0.22036,-5.99281 -0.24717,-13.07482 -0.0547,-14.44326 -0.0211,-14.76932 1.64969,-16.04372 l 0.91048,-0.69446 16.38743,0.0393 c 9.01308,0.0216 16.48473,-0.0166 16.60366,-0.0849 0.11892,-0.0683 0.66361,-0.20488 1.21042,-0.30356 1.59846,-0.28845 1.9132,-1.03326 1.83874,-4.35119 -0.0691,-3.0796 -0.34833,-3.82265 -1.54972,-4.12418 -0.40236,-0.10098 -1.02074,-0.4728 -1.37419,-0.82625 -0.77945,-0.77944 -0.9509,-0.79139 -1.62881,-0.11347 -0.51646,0.51645 -0.88195,0.52917 -15.21355,0.52917 -13.80234,0 -14.68538,-0.0278 -14.70114,-0.46302 -0.0136,-0.37516 -0.0596,-0.3571 -0.24232,0.0951 -0.1921,0.47541 -0.51008,0.57853 -2.1445,0.69547 -1.32085,0.0945 -2.19437,0.0222 -2.80262,-0.23192 -0.98586,-0.41192 -2.20213,-0.2325 -2.20213,0.32484 0,0.19974 0.32743,0.43537 0.72761,0.52363 0.40018,0.0883 0.84666,0.18981 0.99219,0.22567 0.14552,0.0358 -0.196,0.28382 -0.75894,0.55104 -0.56293,0.26721 -1.69402,1.05977 -2.51354,1.76123 -1.59918,1.36883 -1.96829,1.45505 -2.10891,0.4926 -0.14343,-0.98163 0.4814,-1.81226 1.71869,-2.28479 0.63204,-0.24138 1.14915,-0.60129 1.14915,-0.7998 0,-0.46617 -0.50867,-0.45718 -1.62133,0.0286 -1.66524,0.7271 -2.04214,1.20801 -2.11498,2.69866 -0.038,0.77688 0.0709,1.53443 0.25179,1.75241 0.32895,0.39636 0.15624,1.24024 -0.31871,1.55724 -0.22901,0.15285 -0.92287,2.21921 -1.35496,4.03511 -0.24279,1.02039 -0.19738,30.71554 0.048,31.37117 0.30198,0.80692 0.28628,1.02945 -0.12473,1.76862 -0.23792,0.42787 -0.24733,0.77146 -0.0362,1.32291 l 0.28518,0.74493 0.50861,-0.62462 c 0.37465,-0.46011 0.50861,-0.51492 0.50861,-0.2081 0,0.61999 4.24575,5.19835 4.82069,5.19835 0.26928,0 0.7533,0.1669 1.0756,0.3709 0.3223,0.204 0.9928,0.45594 1.49,0.55987 0.4972,0.10394 1.27111,0.41284 1.7198,0.68645 0.92988,0.56704 1.25818,0.61267 1.64254,0.22832 z m 37.52387,-0.80981 c -0.0852,-0.13784 -0.26767,-0.18092 -0.40551,-0.0957 -0.13784,0.0852 -0.18092,0.26767 -0.0957,0.40551 0.0852,0.13784 0.26767,0.18092 0.40551,0.0957 0.13784,-0.0852 0.18092,-0.26767 0.0957,-0.40551 z m -47.21416,-2.88782 c 0,-0.29398 -0.17639,-0.52916 -0.39688,-0.52916 -0.72089,0 -0.47086,0.78431 0.33073,1.03744 0.0364,0.0115 0.0661,-0.21724 0.0661,-0.50828 z m -2.64584,-1.17501 c 0,-0.20969 -0.11906,-0.45484 -0.26458,-0.54478 -0.14552,-0.0899 -0.26458,0.0816 -0.26458,0.38126 0,0.29963 0.11906,0.54478 0.26458,0.54478 0.14552,0 0.26458,-0.17157 0.26458,-0.38126 z m -3.43958,-3.03668 c 0,-0.66246 -0.26715,-1.34456 -0.52662,-1.34456 -0.35359,0 -0.52364,1.14614 -0.22366,1.50759 0.41245,0.49697 0.75028,0.42356 0.75028,-0.16303 z m 53.1383,-1.18773 c 0.1017,-0.52457 -0.7034,-1.54027 -1.05074,-1.3256 -0.33799,0.20889 -0.27857,1.27817 0.0916,1.64833 0.41157,0.41157 0.84507,0.2657 0.95916,-0.32273 z m -38.37464,-6.51911 c -0.0408,-0.53562 -0.16748,-0.67427 -0.52949,-0.5796 -0.4891,0.1279 -0.62663,0.9494 -0.30099,1.79799 0.16317,0.42522 0.19851,0.42326 0.52948,-0.0294 0.19505,-0.26675 0.3305,-0.80182 0.301,-1.18903 z m 0.84676,-25.77829 c 0,-0.7123 -0.42753,-0.62969 -0.71754,0.13865 -0.27095,0.71782 -0.25561,0.75412 0.21277,0.50345 0.27762,-0.14858 0.50477,-0.43752 0.50477,-0.6421 z m -15.61042,0.53848 c 0,-0.0642 -0.11906,-0.19026 -0.26458,-0.2802 -0.14552,-0.0899 -0.26459,-0.0374 -0.26459,0.11668 0,0.15411 0.11907,0.28019 0.26459,0.28019 0.14552,0 0.26458,-0.0525 0.26458,-0.11667 z m 3.1794,-2.51084 c -0.17778,-0.74106 -0.25121,-1.55436 -0.16317,-1.80733 0.15076,-0.43321 0.13911,-0.43303 -0.20048,0.003 -0.1983,0.25467 -0.57562,0.46302 -0.83849,0.46302 -0.26288,0 -0.39961,0.0784 -0.30386,0.1741 0.0957,0.0957 0.0263,0.35673 -0.15434,0.57995 -0.19502,0.241 -0.20796,0.33373 -0.0319,0.22828 0.4858,-0.29089 1.42322,0.72939 1.42322,1.54902 0,0.55285 0.0777,0.6718 0.2961,0.45338 0.21842,-0.21842 0.2113,-0.64961 -0.0271,-1.64349 z m 50.19454,-1.34447 0.0604,-1.98114 -0.34647,1.24201 c -0.19056,0.6831 -0.48768,1.41215 -0.66027,1.62011 -0.40676,0.49011 -0.0986,1.28888 0.45623,1.18253 0.34427,-0.066 0.44173,-0.47632 0.49012,-2.06351 z m -51.39885,-2.79785 c 0.24664,-0.37642 0.40291,-0.72994 0.34726,-0.78559 -0.0556,-0.0556 -0.54141,-0.0297 -1.07947,0.0576 -0.80805,0.13113 -0.9783,0.26785 -0.9783,0.7856 0,0.8934 1.11193,0.85597 1.71051,-0.0576 z m 51.58638,-1.64489 c -0.12227,-0.59046 -0.24541,-0.79451 -0.31077,-0.51496 -0.0595,0.25466 -0.21858,0.46302 -0.35343,0.46302 -0.33358,0 -0.30869,0.86414 0.0509,1.76871 l 0.29612,0.74483 0.25983,-0.7418 c 0.145,-0.41399 0.17033,-1.174 0.0573,-1.7198 z m -0.50432,-3.29881 c -0.3976,-0.95161 -0.75828,-1.22063 -1.03538,-0.77227 -0.0728,0.11782 0.18805,0.86196 0.57969,1.65365 0.61528,1.24377 0.72267,1.34875 0.78997,0.77226 0.0428,-0.36695 -0.10758,-1.11109 -0.33428,-1.65364 z m -53.40558,-2.35899 c -0.0845,-0.21107 -0.14715,-0.14837 -0.15985,0.15985 -0.0115,0.27892 0.0511,0.43519 0.13897,0.34727 0.0879,-0.0879 0.0973,-0.31613 0.0209,-0.50712 z m 15.82656,0.0496 c 0.0899,-0.14552 -0.0816,-0.26459 -0.38126,-0.26459 -0.29963,0 -0.54479,0.11907 -0.54479,0.26459 0,0.14552 0.17157,0.26458 0.38126,0.26458 0.2097,0 0.45485,-0.11906 0.54479,-0.26458 z m 33.9273,-0.15985 c -0.0879,-0.0879 -0.31612,-0.0973 -0.50712,-0.0209 -0.21107,0.0845 -0.14837,0.14715 0.15985,0.15985 0.27892,0.0115 0.43519,-0.0511 0.34727,-0.13896 z"
         id="path23" /><path
         style="fill:#1c1c1c"
         d="m 41.137757,194.21894 c -3.396937,-0.315 -7.146589,-2.73087 -8.566968,-5.51962 -1.412031,-2.77236 -1.349959,-0.93296 -1.349959,-40.00349 0,-40.00701 -0.105409,-37.51355 1.705525,-40.3445 1.031675,-1.61277 2.938193,-3.34354 4.534015,-4.11606 2.7367,-1.32482 2.374383,-1.31235 38.144217,-1.31235 h 33.403743 l -1e-5,1.65364 -2e-5,1.65365 H 74.678627 40.348955 l -1.320015,0.66146 c -1.700441,0.85209 -3.283502,2.4316 -4.110256,4.10104 l -0.655146,1.32292 v 36.3802 36.38021 l 0.630184,1.39439 c 0.790893,1.74998 2.922151,3.73663 4.679081,4.36161 1.218878,0.43358 3.561177,0.46424 35.370425,0.46302 l 34.065102,-0.001 v 1.5875 1.5875 l -33.006769,-0.0388 c -18.153725,-0.0213 -33.842437,-0.11629 -34.863804,-0.21101 z m 21.330492,-20.66767 c -2.590489,-0.52319 -5.163433,-2.38181 -6.754702,-4.87939 -1.661134,-2.60725 -1.606258,-1.80728 -1.606258,-23.41563 v -19.71146 l 2.606785,-0.0761 c 1.694816,-0.0494 2.73615,0.0313 2.976563,0.23083 0.310362,0.25758 0.369778,3.35778 0.369778,19.29428 v 18.98739 l 0.739304,1.41519 c 0.538143,1.03013 1.090363,1.63228 2.02951,2.21303 l 1.290205,0.79783 14.573095,0.0802 c 9.880093,0.0543 14.888772,-0.0118 15.553359,-0.20549 1.291039,-0.37621 2.435921,-1.36774 3.324405,-2.87913 l 0.722415,-1.22888 0.132292,-19.31458 0.132291,-19.31459 2.248959,-0.0781 c 1.23693,-0.0429 2.51685,-0.0109 2.84427,0.0712 l 0.59531,0.14926 -0.01,18.97881 c -0.007,14.38275 -0.0924,19.406 -0.35129,20.74282 -0.63938,3.30213 -2.85412,5.99441 -6.25357,7.602 l -1.455209,0.68816 -16.271876,0.0437 c -8.949531,0.024 -16.795694,-0.0621 -17.435916,-0.19139 z"
         id="path22" /></g></g></svg>
