<?xml version="1.0" encoding="UTF-8" standalone="no"?>
<!-- Created with Inkscape (http://www.inkscape.org/) -->

<svg
   width="188.5981mm"
   height="69.764679mm"
   viewBox="0 0 188.5981 69.764679"
   version="1.1"
   id="svg1"
   xml:space="preserve"
   inkscape:export-filename="mikrotik.svg"
   inkscape:export-xdpi="96"
   inkscape:export-ydpi="96"
   xmlns:inkscape="http://www.inkscape.org/namespaces/inkscape"
   xmlns:sodipodi="http://sodipodi.sourceforge.net/DTD/sodipodi-0.dtd"
   xmlns="http://www.w3.org/2000/svg"
   xmlns:svg="http://www.w3.org/2000/svg"><sodipodi:namedview
     id="namedview1"
     pagecolor="#ffffff"
     bordercolor="#000000"
     borderopacity="0.25"
     inkscape:showpageshadow="2"
     inkscape:pageopacity="0.0"
     inkscape:pagecheckerboard="0"
     inkscape:deskcolor="#d1d1d1"
     inkscape:document-units="mm"><inkscape:page
       x="0"
       y="0"
       width="188.5981"
       height="69.764679"
       id="page2"
       margin="0"
       bleed="0" /></sodipodi:namedview><defs
     id="defs1" /><g
     inkscape:label="Capa 1"
     inkscape:groupmode="layer"
     id="layer1"
     transform="translate(-11.726493,-96.919301)"><g
       id="g22"><path
         style="fill:#469cce"
         d="m 123.48798,166.55164 c 0.25743,-0.0671 0.61462,-0.0627 0.79375,0.01 0.17913,0.0725 -0.0315,0.12736 -0.46806,0.12197 -0.43656,-0.005 -0.58312,-0.0647 -0.32569,-0.13177 z m -111.451453,-0.593 c -0.493105,-0.92138 -0.362551,-17.35344 0.141882,-17.85787 0.895857,-0.89586 3.817559,-0.47956 3.817559,0.54395 v 0.63853 l 1.047793,-0.53455 c 0.576286,-0.294 1.082302,-0.53482 1.124479,-0.53516 0.364089,-0.003 -0.171183,4.18133 -0.592862,4.63444 -1.145467,1.23084 -1.314826,2.22784 -1.314826,7.74018 0,3.72842 -0.0919,5.33915 -0.3175,5.56475 -0.559364,0.55936 -3.583683,0.40896 -3.906525,-0.19427 z m 41.583191,0.19427 c -0.454577,-0.45458 -0.454577,-17.69584 0,-18.15042 0.174625,-0.17462 0.621109,-0.30369 0.992187,-0.28681 0.448429,0.0204 0.519412,0.0713 0.211667,0.1517 -0.599501,0.15666 -0.728939,18.18705 -0.132292,18.4278 0.181901,0.0734 0.08665,0.14285 -0.211667,0.15434 -0.298317,0.0115 -0.68527,-0.12199 -0.859895,-0.29661 z m 15.623645,0.14227 c -0.468205,-0.18893 -0.480959,-17.82496 -0.01323,-18.29269 0.174625,-0.17462 1.008063,-0.3175 1.852083,-0.3175 H 72.6168 v 9.39271 9.39271 l -1.521354,-0.0209 c -0.836745,-0.0115 -1.670183,-0.0809 -1.852084,-0.15434 z m 27.097743,-10e-4 c -0.09701,-0.097 -0.176389,-4.25146 -0.176389,-9.23211 0,-10.21113 -0.190484,-9.40399 2.204452,-9.34089 0.752083,0.0198 1.099532,0.0876 0.77211,0.1507 l -0.595312,0.11466 v 9.09215 9.09215 l 0.727604,0.11022 c 0.400182,0.0606 -0.05622,0.12806 -1.014236,0.14986 -0.958012,0.0218 -1.821215,-0.0397 -1.918229,-0.13674 z m 70.379164,0 c -0.097,-0.097 -0.17639,-4.26193 -0.17639,-9.25538 v -9.07898 l 0.67378,-0.16911 c 0.37058,-0.093 0.74761,-0.0953 0.83785,-0.005 0.0902,0.0902 -0.0344,0.16407 -0.27691,0.16407 -0.58042,0 -0.68925,18.11196 -0.11024,18.3456 0.1819,0.0734 0.0827,0.14285 -0.22048,0.15434 -0.30317,0.0115 -0.63059,-0.0585 -0.72761,-0.1555 z m 15.49759,-0.13047 c -0.24798,-0.24798 -0.32814,-2.47822 -0.32814,-9.12946 0,-9.97234 -0.14732,-9.3491 2.20992,-9.3491 2.03988,0 1.89749,-0.73505 1.83284,9.46178 l -0.0583,9.19135 -1.6641,0.0768 c -1.06596,0.0492 -1.78204,-0.0412 -1.99223,-0.25135 z m 3.95904,-2.62358 c -0.0516,-2.17423 -0.0235,-2.29577 0.67375,-2.91042 l 0.72761,-0.64143 -0.58362,0.66606 c -0.48294,0.55116 -0.59917,1.05323 -0.67375,2.91042 l -0.0901,2.24435 z m -39.89093,-4.74248 c 0,-3.71078 0.0372,-5.22883 0.0827,-3.37344 0.0455,1.85539 0.0455,4.89149 0,6.74688 -0.0455,1.85539 -0.0827,0.33734 -0.0827,-3.37344 z m -29.31248,5.15658 c -3.90752,-3.90752 -3.61721,-11.39807 0.55695,-14.37033 l 0.72699,-0.51766 v 8.0407 c 0,4.42239 -0.0204,8.04071 -0.0453,8.04071 -0.0249,0 -0.5823,-0.53704 -1.23868,-1.19342 z m -92.166986,-3.3045 c 0,-0.80036 0.0496,-1.12778 0.110223,-0.7276 0.06062,0.40018 0.06062,1.05503 0,1.45521 -0.06062,0.40018 -0.110223,0.0728 -0.110223,-0.72761 z m 95.013286,0.46303 -0.50403,-0.59532 0.59531,0.50403 c 0.32742,0.27722 0.59531,0.54511 0.59531,0.59531 0,0.21174 -0.21293,0.0554 -0.68659,-0.50402 z m -45.350906,-1.12448 c 0.341774,-0.36381 0.680939,-0.66146 0.753699,-0.66146 0.07276,0 -0.147341,0.29765 -0.489116,0.66146 -0.341774,0.3638 -0.680939,0.66145 -0.753699,0.66145 -0.07276,0 0.147342,-0.29765 0.489116,-0.66145 z m 43.941716,-1.87414 c 0.0127,-0.30822 0.0754,-0.37091 0.15986,-0.15985 0.0764,0.191 0.067,0.4192 -0.0209,0.50712 -0.0879,0.0879 -0.15045,-0.0684 -0.13897,-0.34727 z m 67.81441,-6.46024 c 0,-1.81901 0.0423,-2.56315 0.0939,-1.65364 0.0517,0.9095 0.0517,2.39778 0,3.30729 -0.0517,0.9095 -0.0939,0.16536 -0.0939,-1.65365 z m 1.88241,2.38125 c 0.26339,-0.29104 0.53842,-0.52916 0.61118,-0.52916 0.0728,0 -0.0832,0.23812 -0.34659,0.52916 -0.26339,0.29104 -0.53842,0.52917 -0.61118,0.52917 -0.0728,0 0.0832,-0.23813 0.34659,-0.52917 z m -107.288536,0.16469 c 0,-0.0549 0.208359,-0.2633 0.463021,-0.46302 0.419644,-0.32911 0.429002,-0.31975 0.0999,0.0999 -0.345644,0.44073 -0.562916,0.58089 -0.562916,0.36313 z m -4.7625,-1.05833 c 0,-0.0549 0.208359,-0.2633 0.463021,-0.46302 0.419644,-0.32911 0.429002,-0.31975 0.09989,0.0999 -0.345644,0.44073 -0.562916,0.58089 -0.562916,0.36313 z m 63.698436,-1.5088 c -0.55402,-0.32269 -0.66575,-3.10983 -0.14552,-3.63006 0.21915,-0.21915 1.34606,-0.30145 3.63802,-0.26568 1.96828,0.0307 2.59322,0.0895 1.53458,0.14438 l -1.78593,0.0926 v 1.82679 1.82679 l 1.52135,0.0955 c 0.83675,0.0525 0.21167,0.11436 -1.38906,0.13745 -1.60073,0.0231 -3.11878,-0.0794 -3.37344,-0.2277 z M 20.444275,151.473 c 0.190997,-0.0764 0.4192,-0.067 0.507118,0.0209 0.08792,0.0879 -0.06835,0.15045 -0.347265,0.13896 -0.308225,-0.0127 -0.370919,-0.0754 -0.159853,-0.15985 z m 103.187495,0 c 0.191,-0.0764 0.4192,-0.067 0.50712,0.0209 0.0879,0.0879 -0.0684,0.15045 -0.34726,0.13896 -0.30823,-0.0127 -0.37092,-0.0754 -0.15986,-0.15985 z m -89.693745,-3.96875 c 0.190996,-0.0764 0.419199,-0.067 0.507118,0.0209 0.08792,0.0879 -0.06835,0.15045 -0.347265,0.13896 -0.308225,-0.0127 -0.37092,-0.0754 -0.159853,-0.15985 z m 85.913805,-15.94768 c -1.53514,-2.48389 1.83817,-8.56917 5.35091,-9.65276 2.16326,-0.66732 0.50561,6.53742 -1.82327,7.92456 -0.92535,0.55116 -2.05999,1.22639 -2.52141,1.5005 -0.53044,0.31512 -0.90046,0.39885 -1.00623,0.2277 z m -5.34016,-8.8747 c 9.6e-4,-1.16417 0.0475,-1.60751 0.10337,-0.9852 0.0559,0.62231 0.0551,1.57481 -0.002,2.11667 -0.0569,0.54186 -0.10258,0.0327 -0.10162,-1.13147 z m -27.987184,-9.03638 c 0.0913,-6.47679 0.09169,-6.47786 2.962552,-8.14644 l 2.047471,-1.19002 0.23691,1.59094 c 0.466146,3.13034 -1.462157,6.69774 -4.144688,7.66775 l -0.969606,0.35062 -0.1039,2.52968 c -0.05714,1.39132 -0.07008,0.13019 -0.02874,-2.80253 z"
         id="path28" /><path
         style="fill:#4d8eb5"
         d="m 26.248572,166.27901 c 0.472943,-0.0587 1.246849,-0.0587 1.719792,0 0.472943,0.0587 0.08599,0.10671 -0.859896,0.10671 -0.945885,0 -1.332838,-0.048 -0.859896,-0.10671 z m 12.438502,0.004 c 0.329118,-0.0633 0.805368,-0.0609 1.058333,0.005 0.252965,0.0662 -0.01631,0.118 -0.598397,0.11506 -0.582084,-0.003 -0.789055,-0.0571 -0.459936,-0.1204 z m 16.801594,-0.003 c 0.402183,-0.0608 0.997496,-0.0592 1.322917,0.004 0.325421,0.0628 -0.0036,0.11256 -0.731242,0.11057 -0.727605,-0.002 -0.993858,-0.0534 -0.591675,-0.11418 z m 27.513028,0.007 c 0.254662,-0.0665 0.671381,-0.0665 0.926042,0 0.254661,0.0666 0.0463,0.121 -0.463021,0.121 -0.509323,0 -0.717682,-0.0545 -0.463021,-0.121 z m 64.690624,-0.009 c 0.47294,-0.0587 1.24685,-0.0587 1.71979,0 0.47294,0.0587 0.086,0.10671 -0.85989,0.10671 -0.94589,0 -1.33284,-0.048 -0.8599,-0.10671 z m 20.77343,0.002 c 0.40218,-0.0608 0.9975,-0.0592 1.32292,0.004 0.32542,0.0628 -0.004,0.11256 -0.73125,0.11057 -0.7276,-0.002 -0.99385,-0.0534 -0.59167,-0.11418 z m 26.76029,-0.40545 c -0.5011,-0.59185 -0.50092,-0.5927 0.0311,-0.14576 0.35943,0.30195 1.14128,0.4804 2.38125,0.54349 l 1.84613,0.0939 -1.87722,0.0518 c -1.65617,0.0457 -1.93658,-0.0183 -2.38125,-0.54349 z M 72.616801,157.0777 c 0,-6.03886 0.09014,-9.10364 0.264583,-8.99583 0.164528,0.10168 0.264583,2.57118 0.264583,6.5303 0,6.02381 0.02494,6.34747 0.463021,6.00822 0.440972,-0.3415 0.440972,-0.3326 0,0.18687 -0.362908,0.42751 -0.463021,1.03812 -0.463021,2.8241 0,1.25326 -0.119062,2.35224 -0.264583,2.44217 -0.174443,0.10781 -0.264583,-2.95697 -0.264583,-8.99583 z m 26.048276,0 c 9.1e-5,-5.09323 0.03564,-7.13938 0.07899,-4.547 0.04335,2.59239 0.04328,6.75957 -1.65e-4,9.26042 -0.04345,2.50085 -0.07892,0.37981 -0.07883,-4.71342 z m -69.594239,3.96875 c 2.54e-4,-2.7649 0.03946,-3.86004 0.08713,-2.43365 0.04767,1.42638 0.04746,3.68857 -4.62e-4,5.02708 -0.04792,1.33851 -0.08692,0.17147 -0.08666,-2.59343 z m 8.732563,-0.39688 c 0,-2.98317 0.03859,-4.20356 0.08575,-2.71197 0.04716,1.49158 0.04716,3.93237 0,5.42395 -0.04716,1.49159 -0.08575,0.2712 -0.08575,-2.71198 z m 19.850922,-3.57187 c 9.6e-5,-4.94771 0.03579,-6.93438 0.07931,-4.41483 0.04353,2.51955 0.04345,6.56767 -1.73e-4,8.99583 -0.04362,2.42816 -0.07923,0.36671 -0.07914,-4.581 z m 128.321827,0 c -0.002,-4.94771 0.0328,-7.50755 0.077,-5.68854 0.0669,2.75498 0.15673,3.36847 0.53811,3.67361 0.43383,0.34711 0.43383,0.35807 1.6e-4,0.20879 -0.42262,-0.14546 -0.4636,0.26227 -0.53484,5.32222 -0.0424,3.01386 -0.0786,1.43163 -0.0804,-3.51608 z m -85.73336,3.96875 c 2.7e-4,-2.61938 0.0399,-3.65515 0.088,-2.30172 0.0481,1.35343 0.0479,3.49655 -5.1e-4,4.7625 -0.0484,1.26595 -0.0878,0.15859 -0.0875,-2.46078 z m -75.428752,2.64583 c 0.0012,-1.01864 0.049,-1.40294 0.106272,-0.85399 0.05728,0.54895 0.05632,1.38238 -0.0021,1.85208 -0.05845,0.4697 -0.105311,0.0206 -0.104138,-0.99809 z m 93.331982,-6.53282 c -0.0115,-4.32066 0.0684,-7.911 0.17755,-7.97854 0.20331,-0.12582 0.16077,15.0774 -0.0436,15.56459 -0.0622,0.14833 -0.12251,-3.26539 -0.134,-7.58605 z m 11.88536,7.37607 c 0,-0.0455 0.38696,-0.43248 0.8599,-0.85989 l 0.85989,-0.77711 -0.7771,0.8599 c -0.72437,0.80154 -0.94269,0.98151 -0.94269,0.7771 z m -2.51354,-3.35679 c 0.26339,-0.29104 0.53842,-0.52917 0.61118,-0.52917 0.0728,0 -0.0832,0.23813 -0.3466,0.52917 -0.26338,0.29104 -0.53842,0.52917 -0.61118,0.52917 -0.0728,0 0.0832,-0.23813 0.3466,-0.52917 z m 60.325,-1.5875 c 0.26339,-0.29104 0.53842,-0.52917 0.61118,-0.52917 0.0728,0 -0.0832,0.23813 -0.3466,0.52917 -0.26339,0.29104 -0.53842,0.52917 -0.61118,0.52917 -0.0728,0 0.0832,-0.23813 0.3466,-0.52917 z M 24.819667,157.20999 c 0,-1.23693 0.04558,-1.74294 0.10128,-1.12448 0.0557,0.61847 0.0557,1.6305 0,2.24896 -0.0557,0.61846 -0.10128,0.11245 -0.10128,-1.12448 z m 164.626253,1.71138 c -0.28248,-0.21365 -0.38635,-0.38846 -0.23084,-0.38846 0.15552,0 0.43098,0.17859 0.61214,0.39687 0.41201,0.49645 0.2824,0.49358 -0.3813,-0.008 z m -60.3972,-1.84367 c 0.002,-0.7276 0.0534,-0.99386 0.11419,-0.59167 0.0608,0.40218 0.0592,0.99749 -0.004,1.32291 -0.0628,0.32542 -0.11256,-0.004 -0.11058,-0.73124 z m -87.056862,-1.85208 c 0.0029,-0.58209 0.05712,-0.78906 0.120406,-0.45994 0.06329,0.32912 0.06088,0.80537 -0.0053,1.05833 -0.06622,0.25297 -0.118003,-0.0163 -0.115066,-0.59839 z m 91.235412,0.24253 c 0.0127,-0.30822 0.0754,-0.37092 0.15985,-0.15985 0.0764,0.191 0.067,0.4192 -0.0209,0.50712 -0.0879,0.0879 -0.15046,-0.0683 -0.13897,-0.34727 z m 59.24578,0.25694 c 0,-0.1376 0.80367,-1.02064 1.78594,-1.96232 l 1.78593,-1.71215 -1.71979,1.84514 c -0.94588,1.01483 -1.74956,1.89788 -1.78594,1.96233 -0.0364,0.0644 -0.0661,0.005 -0.0661,-0.133 z M 74.468884,154.74595 c 0,-0.0455 0.386953,-0.43249 0.859896,-0.85989 l 0.859896,-0.77711 -0.777106,0.8599 c -0.724371,0.80154 -0.942686,0.98151 -0.942686,0.7771 z m 9.525,-3.75367 c 1.3767,-1.38244 2.562621,-2.51354 2.635382,-2.51354 0.07276,0 -0.994099,1.1311 -2.370799,2.51354 -1.3767,1.38245 -2.562621,2.51355 -2.635382,2.51355 -0.07276,0 0.994099,-1.1311 2.370799,-2.51355 z m 17.197916,2.41365 c 0,-0.0549 0.20836,-0.2633 0.46302,-0.46302 0.41964,-0.32911 0.429,-0.31975 0.0999,0.0999 -0.34565,0.44073 -0.56292,0.58089 -0.56292,0.36313 z m 26.16,-0.62771 c -0.32911,-0.41964 -0.31975,-0.429 0.0999,-0.0999 0.44072,0.34564 0.58088,0.56291 0.36312,0.56291 -0.0549,0 -0.2633,-0.20836 -0.46302,-0.46302 z M 23.635136,152.51364 c -0.329108,-0.41965 -0.319749,-0.429 0.0999,-0.0999 0.254661,0.19972 0.46302,0.40808 0.46302,0.46302 0,0.21776 -0.217272,0.0776 -0.562915,-0.36312 z m 166.192084,0.11564 c 0,-0.0455 0.38695,-0.43248 0.85989,-0.85989 l 0.8599,-0.77711 -0.77711,0.8599 c -0.72437,0.80154 -0.94268,0.98151 -0.94268,0.7771 z M 18.112635,150.36206 c 0,-1.01865 0.119062,-1.92567 0.264583,-2.01561 0.166764,-0.10307 0.264583,0.52121 0.264583,1.68856 0,1.01865 -0.119062,1.92567 -0.264583,2.01561 -0.166764,0.10306 -0.264583,-0.52122 -0.264583,-1.68856 z m 132.788955,1.48134 c 0.1145,-0.11397 1.62703,-0.17296 3.36118,-0.13109 l 3.15299,0.0761 -3.36118,0.13109 c -1.84865,0.0721 -3.26749,0.0378 -3.15299,-0.0761 z m -45.93948,-0.11458 c 0.40018,-0.0606 1.05503,-0.0606 1.45521,0 0.40018,0.0606 0.0728,0.11022 -0.7276,0.11022 -0.80037,0 -1.12779,-0.0496 -0.72761,-0.11022 z M 33.408859,151.473 c 0.190996,-0.0764 0.419199,-0.067 0.507118,0.0209 0.08792,0.0879 -0.06835,0.15045 -0.347266,0.13896 -0.308224,-0.0127 -0.370919,-0.0754 -0.159852,-0.15985 z m 45.293358,-0.7453 c 0.493655,-0.50932 0.957086,-0.92604 1.029847,-0.92604 0.07276,0 -0.271608,0.41672 -0.765263,0.92604 -0.493656,0.50932 -0.957087,0.92604 -1.029847,0.92604 -0.07276,0 0.271608,-0.41672 0.765263,-0.92604 z m 44.135803,0.7453 c 0.191,-0.0764 0.4192,-0.067 0.50712,0.0209 0.0879,0.0879 -0.0683,0.15045 -0.34726,0.13896 -0.30823,-0.0127 -0.37092,-0.0754 -0.15986,-0.15985 z m 1.5875,0 c 0.191,-0.0764 0.4192,-0.067 0.50712,0.0209 0.0879,0.0879 -0.0684,0.15045 -0.34726,0.13896 -0.30823,-0.0127 -0.37092,-0.0754 -0.15986,-0.15985 z m 18.57045,-1.67134 c 0,-1.05833 0.11339,-1.85208 0.26458,-1.85208 0.15119,0 0.26458,0.79375 0.26458,1.85208 0,1.05833 -0.11339,1.85208 -0.26458,1.85208 -0.15119,0 -0.26458,-0.79375 -0.26458,-1.85208 z m -34.84032,0 c 0,-0.94589 0.048,-1.33284 0.10672,-0.8599 0.0587,0.47295 0.0587,1.24685 0,1.71979 -0.0587,0.47295 -0.10672,0.086 -0.10672,-0.85989 z m 49.47709,0 c 0,-0.94589 0.048,-1.33284 0.10671,-0.8599 0.0587,0.47295 0.0587,1.24685 0,1.71979 -0.0587,0.47295 -0.10671,0.086 -0.10671,-0.85989 z m 36.42781,-1.19063 c 0.34177,-0.3638 0.68094,-0.66145 0.7537,-0.66145 0.0728,0 -0.14734,0.29765 -0.48912,0.66145 -0.34177,0.36381 -0.68094,0.66146 -0.7537,0.66146 -0.0728,0 0.14734,-0.29765 0.48912,-0.66146 z M 55.617322,147.76285 c 0.327422,-0.0631 0.863203,-0.0631 1.190625,0 0.327422,0.0631 0.05953,0.11466 -0.595313,0.11466 -0.654843,0 -0.922734,-0.0516 -0.595312,-0.11466 z m 27.516666,-0.007 c 0.618464,-0.0557 1.630495,-0.0557 2.248958,0 0.618464,0.0557 0.112448,0.10128 -1.124479,0.10128 -1.236927,0 -1.742943,-0.0456 -1.124479,-0.10128 z m 66.027922,-0.004 c 1.57226,-0.0469 4.07257,-0.0467 5.55625,4e-4 1.48368,0.0471 0.19729,0.0854 -2.85865,0.0852 -3.05594,-2.1e-4 -4.26986,-0.0387 -2.6976,-0.0856 z m 19.43249,0.0109 c 0.32743,-0.0631 0.86321,-0.0631 1.19063,0 0.32742,0.0631 0.0595,0.11466 -0.59531,0.11466 -0.65485,0 -0.92274,-0.0516 -0.59532,-0.11466 z m 27.51667,-0.007 c 0.61846,-0.0557 1.63049,-0.0557 2.24896,0 0.61846,0.0557 0.11245,0.10128 -1.12448,0.10128 -1.23693,0 -1.74294,-0.0456 -1.12448,-0.10128 z M 119.31203,129.4641 c 0.0185,-4.14221 3.00098,-8.04848 6.07495,-7.95662 0.35128,0.0105 0.10063,0.22094 -0.70907,0.59531 -3.10053,1.43357 -4.93474,4.31534 -4.87167,7.65398 0.0226,1.19539 -0.0746,2.0912 -0.23346,2.15203 -0.17531,0.0671 -0.26809,-0.80269 -0.26075,-2.4447 z m -32.831752,-6.64994 c 0,-2.11005 0.04109,-2.97326 0.09131,-1.91823 0.05022,1.05503 0.05022,2.78143 0,3.83646 -0.05022,1.05502 -0.09131,0.19182 -0.09131,-1.91823 z m 28.074852,3.44261 c -0.0927,-0.14998 0.0135,-0.19433 0.24897,-0.10398 0.45837,0.17589 0.54223,0.36554 0.16165,0.36554 -0.13693,0 -0.32171,-0.1177 -0.41062,-0.26156 z m -16.696421,-4.50094 c 0,-2.25558 0.04058,-3.17831 0.09018,-2.05052 0.0496,1.12778 0.0496,2.97325 0,4.10104 -0.0496,1.12778 -0.09018,0.20505 -0.09018,-2.05052 z m 20.001841,3.0751 c 0,-0.0549 0.20836,-0.2633 0.46302,-0.46302 0.41964,-0.32911 0.429,-0.31975 0.0999,0.0999 -0.34565,0.44072 -0.56292,0.58088 -0.56292,0.36312 z m -24.235175,-5.19177 c 0,-2.25557 0.04058,-3.17831 0.09018,-2.05052 0.0496,1.12779 0.0496,2.97325 0,4.10104 -0.0496,1.12779 -0.09018,0.20505 -0.09018,-2.05052 z m 25.136635,-0.26458 c 0,-2.4011 0.0401,-3.38336 0.0891,-2.18282 0.049,1.20055 0.049,3.16508 0,4.36563 -0.049,1.20055 -0.0891,0.21828 -0.0891,-2.18281 z m -4.24566,-1.05834 c 0,-1.38244 0.0446,-1.94799 0.0991,-1.25677 0.0545,0.69123 0.0545,1.82232 0,2.51354 -0.0545,0.69123 -0.0991,0.12568 -0.0991,-1.25677 z m -20.732883,-6.97906 c 0,-0.0549 0.208359,-0.2633 0.463021,-0.46302 0.419644,-0.32911 0.429002,-0.31975 0.0999,0.0999 -0.345644,0.44073 -0.562916,0.58088 -0.562916,0.36312 z M 105.88815,96.974349 c 0.18191,-0.0734 0.47956,-0.0734 0.66146,0 0.1819,0.0734 0.0331,0.133452 -0.33073,0.133452 -0.3638,0 -0.51263,-0.06005 -0.33073,-0.133452 z"
         id="path27" /><path
         style="fill:#3d86b1"
         d="m 121.33882,166.20654 c -0.48805,-0.11533 -1.35125,-0.41888 -1.91823,-0.67456 l -1.03087,-0.46486 0.006,-3.20096 0.006,-3.20096 0.4857,1.06928 c 0.53881,1.18617 1.84631,2.41667 2.83036,2.66365 0.60604,0.1521 0.64107,0.26776 0.64107,2.11659 0,1.07563 -0.0298,1.9435 -0.0661,1.9286 -0.0364,-0.0149 -0.46546,-0.12144 -0.9535,-0.23678 z M 54.360551,157.0777 c 0,-7.9375 0.05177,-9.12812 0.396875,-9.12812 0.345109,0 0.396875,1.19062 0.396875,9.12812 0,7.9375 -0.05177,9.12812 -0.396875,9.12812 -0.345109,0 -0.396875,-1.19062 -0.396875,-9.12812 z m 44.449999,-0.0184 v -9.14653 l 0.595313,0.0846 c 0.426245,0.0605 0.619087,0.29118 0.679037,0.81215 0.0912,0.79262 0.29896,0.90055 0.7894,0.41011 0.54731,-0.54731 0.4228,4.11665 -0.13773,5.15928 -0.3777,0.70254 -0.47237,1.78179 -0.5559,6.33686 l -0.10067,5.4901 H 99.445274 98.81055 Z m 47.75008,8.8158 c -0.0676,-0.18191 -0.15315,-3.42636 -0.19013,-7.2099 l -0.0672,-6.87917 -1.38906,-0.08 -1.38907,-0.08 v -1.83826 -1.83825 h 1.85209 1.85208 v 9.12812 c 0,8.42572 -0.137,10.22822 -0.66867,8.7974 z m 20.777,-8.7974 c 0,-8.95174 0.0102,-9.12812 0.52917,-9.12812 0.51894,0 0.52917,0.17638 0.52917,9.12812 0,8.95174 -0.0102,9.12812 -0.52917,9.12812 -0.51894,0 -0.52917,-0.17638 -0.52917,-9.12812 z m 18.78542,1.09319 c 0,-2.57689 0.0612,-3.03748 0.38685,-2.91251 0.23606,0.0906 0.95797,-0.3917 1.85208,-1.23731 l 1.46524,-1.38575 v 3.07278 c 0,2.48296 -0.0691,3.04626 -0.36005,2.93462 -0.19969,-0.0766 -1.02456,0.46917 -1.85208,1.22548 l -1.49204,1.36364 z M 73.145967,158.04444 c 0,-2.42397 0.06526,-2.90947 0.375082,-2.79058 0.226208,0.0868 1.197597,-0.62331 2.447395,-1.78913 1.139773,-1.06319 1.797198,-1.62235 1.460944,-1.24257 -0.57821,0.65305 -0.606912,0.86347 -0.529167,3.87956 0.0763,2.95989 0.05059,3.16039 -0.35776,2.78999 -0.397037,-0.36015 -0.539022,-0.31254 -1.455208,0.48791 -2.108004,1.8417 -1.941286,1.95637 -1.941286,-1.33518 z m 45.305133,-5.72766 0.0709,-3.17342 1.03934,-0.48889 c 0.57164,-0.26889 1.43485,-0.55307 1.91823,-0.63151 l 0.87889,-0.14262 v 1.8867 c 0,1.40748 -0.0907,1.8867 -0.35718,1.8867 -0.71487,0 -2.4838,1.55866 -3.04536,2.68335 l -0.57574,1.15311 z m -94.199108,0.8049 c -0.551217,-1.20979 -2.934046,-1.98493 -4.647468,-1.51183 l -0.962723,0.26582 v -1.80245 c 0,-1.35154 0.09848,-1.84024 0.393653,-1.95351 1.008069,-0.38683 3.112349,-0.47156 4.348188,-0.17509 l 1.343576,0.32232 v 2.75173 c 0,2.96569 -0.02724,3.08623 -0.475226,2.10301 z m 92.127138,-20.30036 c -0.74874,-2.22997 0.17248,-7.21236 1.46826,-7.94111 0.62182,-0.34972 0.83498,-0.69321 0.9755,-1.57196 0.28705,-1.79512 3.55866,-4.46351 6.24756,-5.09562 l 0.7276,-0.17105 v 1.66995 1.66996 l -1.12547,0.30102 c -3.44892,0.92245 -5.74071,4.47045 -5.38535,8.33731 l 0.16373,1.7817 -1.07993,0.68173 c -1.57479,0.99412 -1.76101,1.02573 -1.9919,0.33807 z m -29.728568,-17.3559 0.01085,-1.5148 1.309948,-0.61434 c 2.583566,-1.21164 4.166888,-4.2073 3.847119,-7.27878 l -0.169893,-1.63188 1.041773,-0.58844 c 1.316312,-0.74351 1.407728,-0.56901 1.378024,2.63049 -0.04283,4.61336 -2.74585,8.74292 -6.701058,10.2376 l -0.727604,0.27496 z"
         id="path26" /><path
         style="fill:#367094"
         d="m 40.408816,166.28705 c 0.257431,-0.0671 0.614618,-0.0627 0.79375,0.01 0.179131,0.0725 -0.03149,0.12736 -0.468057,0.12197 -0.436562,-0.005 -0.583124,-0.0647 -0.325693,-0.13178 z m 44.18038,9.7e-4 c 0.254662,-0.0665 0.671381,-0.0665 0.926042,0 0.254661,0.0666 0.0463,0.121 -0.463021,0.121 -0.509323,0 -0.717682,-0.0545 -0.463021,-0.121 z m 1.736328,0.002 c 0.190997,-0.0764 0.4192,-0.067 0.507118,0.0209 0.08792,0.0879 -0.06835,0.15045 -0.347265,0.13896 -0.308225,-0.0127 -0.370919,-0.0754 -0.159853,-0.15985 z m 36.032946,-1.60653 v -1.85525 l 1.68895,-0.10755 c 1.2754,-0.0812 1.95563,-0.28403 2.77812,-0.82832 l 1.08918,-0.72079 v 2.25926 c 0,2.67967 -0.0891,2.75532 -3.50573,2.97567 l -2.05052,0.13224 z m -97.220637,1.19196 c -0.225621,-0.73197 -0.407282,-17.39636 -0.18964,-17.39636 0.127653,0 0.796781,0.43117 1.486952,0.95816 l 1.254855,0.95815 0.701422,-0.57013 c 0.897874,-0.72981 3.095017,-1.77506 4.219219,-2.00721 l 0.871965,-0.18006 -0.07822,1.93188 c -0.07751,1.91451 -0.0854,1.93334 -0.8775,2.09452 -2.862788,0.58255 -3.413165,1.976 -3.522931,8.91938 l -0.08888,5.62239 h -1.83765 c -1.239361,0 -1.87084,-0.10767 -1.939594,-0.33072 z m 30.016468,-8.7974 v -9.12812 h 0.661458 0.661459 v 9.12812 9.12812 h -0.661459 -0.661458 z m 26.545633,8.13594 c -0.437257,-0.54571 -1.70734,-2.16061 -2.822406,-3.58869 l -2.027394,-2.5965 v -3.10944 -3.10945 l 2.579687,-2.49614 2.579688,-2.49614 0.0767,2.49454 0.0767,2.49454 -1.33347,1.35024 c -1.627109,1.64757 -1.654217,1.29218 0.284673,3.73207 0.889978,1.11994 1.485291,1.95415 1.322917,1.8538 -0.4286,-0.26489 -0.406921,5.71666 0.02227,6.14585 0.174625,0.17463 0.254083,0.3175 0.176573,0.3175 -0.07751,0 -0.498682,-0.44648 -0.93594,-0.99218 z m 65.529366,-8.12331 v -9.14075 h 2.64583 2.64584 v 1.83532 1.83531 l -0.8599,0.0829 -0.8599,0.0829 -0.13229,7.14375 -0.13229,7.14375 -1.65364,0.0788 -1.65365,0.0788 z m 21.16667,-0.0126 c 0,-8.95174 0.0102,-9.12812 0.52916,-9.12812 0.51894,0 0.52917,0.17638 0.52917,9.12812 0,8.95174 -0.0102,9.12812 -0.52917,9.12812 -0.51894,0 -0.52916,-0.17638 -0.52916,-9.12812 z m -126.361011,3.83646 c 0,-2.69214 0.03929,-3.79347 0.08731,-2.4474 0.04802,1.34607 0.04802,3.54873 0,4.89479 -0.04802,1.34607 -0.08731,0.24474 -0.08731,-2.44739 z m 150.371941,1.2987 -2.57968,-3.27234 v -3.09158 -3.09159 l 2.57968,-2.42222 2.57969,-2.42223 0.0767,2.44673 0.0767,2.44673 -1.37715,1.39447 c -1.53837,1.55771 -1.57449,1.20305 0.36513,3.58496 l 1.00751,1.23726 -0.0744,3.23107 -0.0744,3.23108 z M 101.1918,151.1507 v -2.17255 l 1.12448,-0.48237 c 0.61846,-0.26531 1.42213,-0.5513 1.78594,-0.63554 l 0.66146,-0.15317 -0.1323,2.01151 -0.13229,2.01151 -1.14595,0.33713 c -0.63028,0.18542 -1.37442,0.54388 -1.65365,0.79658 -0.49662,0.44943 -0.50769,0.41207 -0.50769,-1.7131 z m 25.93075,1.29962 c -0.88987,-0.67344 -2.6767,-1.14653 -3.82433,-1.01255 l -0.93975,0.10971 v -1.79391 c 0,-2.09445 0.24766,-2.26781 2.80971,-1.96669 2.75521,0.32382 2.89973,0.48134 2.74654,2.99349 l -0.1323,2.16933 z m 69.98071,-1.59033 c 0.71666,-0.7276 1.36255,-1.32291 1.43531,-1.32291 0.0728,0 -0.45407,0.59531 -1.17073,1.32291 -0.71666,0.72761 -1.36256,1.32292 -1.43532,1.32292 -0.0728,0 0.45407,-0.59531 1.17074,-1.32292 z M 112.1158,135.40883 c -0.42962,-4.25096 0.18075,-8.43075 1.64038,-11.23327 l 0.64015,-1.22911 0.0123,1.63803 c 0.0147,1.9513 0.199,2.11932 1.56206,1.42394 l 1.03873,-0.52992 -0.37666,1.24752 c -0.4207,1.39339 -0.573,4.78284 -0.2709,6.02885 0.16691,0.6884 0.10441,0.85791 -0.40893,1.10922 -0.33327,0.16315 -1.32032,0.70259 -2.19344,1.19875 -1.51986,0.86368 -1.5899,0.87842 -1.64371,0.34599 z m 6.8071,-15.70352 0.004,-2.57969 1.34009,-0.9831 c 1.45397,-1.06663 3.64528,-2.17818 4.80344,-2.43654 l 0.7276,-0.16232 v 2.2438 2.2438 l -0.99219,0.27316 c -1.43577,0.39528 -3.63465,1.72825 -4.84112,2.93472 l -1.04586,1.04585 z m -32.283183,-0.84862 c 0,-1.804 0.0281,-1.88708 0.727604,-2.15142 4.580313,-1.7309 8.174562,-8.84539 6.554075,-12.97319 -0.232791,-0.59298 2.19496,-2.06177 2.525057,-1.52767 0.348384,0.5637 0.588855,3.55756 0.395996,4.93015 -0.317789,2.26171 -0.609955,2.80626 -1.811578,3.37648 -1.494853,0.70936 -1.922011,1.80623 -0.995563,2.55642 l 0.638054,0.51667 -0.498979,0.8447 c -0.274439,0.46459 -0.500469,0.90424 -0.502289,0.977 -0.01088,0.43502 -3.765922,3.95924 -4.708821,4.41937 -2.349852,1.14673 -2.323556,1.15769 -2.323556,-0.96851 z m 32.086643,-4.77378 c 0,-0.65484 0.0516,-0.92273 0.11467,-0.59531 0.0631,0.32742 0.0631,0.8632 0,1.19062 -0.0631,0.32742 -0.11467,0.0595 -0.11467,-0.59531 z"
         id="path25" /><path
         style="fill:#2b516c"
         d="m 38.091614,165.8751 c -0.06201,-0.18191 -0.148488,-2.89058 -0.192172,-6.01928 -0.0995,-7.12645 -0.392098,-7.86155 -3.316495,-8.3322 l -1.124479,-0.18097 v -1.86652 -1.86652 l 1.521354,0.16115 c 5.849546,0.6196 6.945312,2.52784 6.945312,12.09499 v 6.34007 h -1.860387 c -1.25179,0 -1.89727,-0.10819 -1.973133,-0.33072 z m 18.385604,-8.8168 c 0,-8.56948 0.02926,-9.1419 0.46302,-9.05843 0.777333,0.14958 0.846381,18.20595 0.06962,18.20595 -0.523527,0 -0.53264,-0.1565 -0.53264,-9.14752 z m 25.952633,8.77893 c -0.202389,-0.24387 -0.280504,-1.38193 -0.230834,-3.36305 l 0.07507,-2.99444 2.579688,3.19017 c 1.418828,1.7546 2.579687,3.26796 2.579687,3.36304 0,0.36676 -4.689024,0.18334 -5.003616,-0.19572 z M 169.4543,157.0777 c 0,-8.77977 0.0191,-9.12812 0.50086,-9.12812 0.78941,0 0.82206,0.36245 0.82206,9.12812 0,8.76567 -0.0326,9.12812 -0.82206,9.12812 -0.48175,0 -0.50086,-0.34835 -0.50086,-9.12812 z m 25.95292,8.75987 c -0.20251,-0.24401 -0.28039,-1.39693 -0.23084,-3.41719 l 0.0748,-3.04894 2.45842,3.02739 c 1.35213,1.66507 2.52572,3.20281 2.60799,3.4172 0.212,0.55245 -4.45276,0.57292 -4.91036,0.0215 z m -67.4925,-2.37782 c 0,-1.85927 0.10354,-2.42597 0.59531,-3.25807 0.48381,-0.81864 0.59531,-1.40377 0.59531,-3.12398 0,-1.72021 -0.1115,-2.30534 -0.59531,-3.12398 -0.48285,-0.81701 -0.59531,-1.40433 -0.59531,-3.10885 0,-2.3849 0.005,-2.38874 1.64939,-1.29944 5.31008,3.51724 4.98661,12.43544 -0.56419,15.55517 l -1.0852,0.60992 z M 82.141801,150.39113 v -2.44155 h 2.248958 c 1.236927,0 2.248958,0.0919 2.248958,0.20427 0,0.11236 -1.012031,1.21106 -2.248958,2.44156 l -2.248958,2.23727 z m 112.977079,-0.0328 v -2.40873 h 2.26836 c 2.80685,0 2.80506,0.0578 -0.0855,2.76965 l -2.18281,2.04782 z m -90.43294,-0.6228 0.0777,-1.91823 1.11437,-0.0809 c 1.84793,-0.1341 2.19292,0.21308 2.19292,2.20684 v 1.71048 h -1.73139 -1.73138 z m 47.83503,0.0661 v -1.85208 h 2.51354 2.51354 v 1.85208 1.85208 h -2.51354 -2.51354 z m -47.28424,-11.2901 c -0.64115,-0.13272 -0.64339,0.007 0.0564,-3.52657 0.68696,-3.46926 0.83645,-3.7947 1.98497,-4.32127 l 1.05744,-0.48481 0.008,-2.29331 c 0.01,-2.66306 1.64966,-6.38801 4.50191,-10.22426 l 1.44303,-1.94086 0.0736,3.54098 c 0.0691,3.32797 0.0338,3.61938 -0.58693,4.84441 -1.47483,2.91044 -2.11039,7.13619 -1.67421,11.13168 0.13212,1.21023 -5.00284,3.65938 -6.86438,3.27401 z M 86.639717,124.0253 v -3.28677 l 0.992188,-0.32572 c 1.538818,-0.50517 2.72136,-1.35332 4.370584,-3.13467 l 1.516395,-1.63789 v 2.90174 2.90174 l -1.024782,1.28053 c -1.54048,1.92492 -4.81984,4.58782 -5.649914,4.58782 -0.112459,0 -0.204471,-1.47905 -0.204471,-3.28678 z m 32.237813,-9.65066 c -0.0747,-2.15169 -0.18531,-2.72888 -0.6201,-3.23659 -0.29553,-0.34508 -0.34125,-0.47329 -0.10356,-0.29037 0.35511,0.27326 0.57428,0.19439 1.32292,-0.47604 0.49352,-0.44196 1.76248,-1.46277 2.81993,-2.26846 1.18108,-0.89991 1.85345,-1.58547 1.74327,-1.77748 -0.0986,-0.17192 0.13768,-0.0238 0.52517,0.32923 0.91551,0.83401 1.2296,2.03431 1.23141,4.7058 l 10e-4,2.17262 -1.12448,0.29445 c -1.21783,0.31889 -4.39538,2.0872 -4.94877,2.75399 -0.62876,0.75762 -0.7558,0.42667 -0.84727,-2.20715 z m -23.24198,1.56035 c -0.654843,-0.41368 -1.346184,-0.76151 -1.536312,-0.77295 -0.261849,-0.0158 -0.235398,-0.2075 0.10906,-0.79062 l 0.454749,-0.76983 1.389578,0.68151 c 1.350406,0.6623 1.378388,0.69859 0.992612,1.28736 -0.218331,0.33322 -0.320145,0.73014 -0.226253,0.88206 0.226949,0.36722 0.194844,0.35318 -1.183434,-0.51753 z m 2.513542,-5.44454 c -0.582083,-0.34769 -1.260499,-0.63413 -1.507591,-0.63652 -0.392095,-0.004 -0.410911,-0.11376 -0.147884,-0.86425 0.342751,-0.97796 0.426406,-4.56835 0.143329,-6.15156 l -0.189229,-1.05833 1.559568,-0.8599 c 0.857762,-0.47294 1.608427,-0.8599 1.668143,-0.8599 0.831582,0 0.788802,5.5228 -0.06805,8.78648 -0.274503,1.04557 -0.439998,1.99665 -0.367766,2.11353 0.173143,0.28015 0.142455,0.26693 -1.090523,-0.46955 z"
         id="path24" /><path
         style="fill:#1a344b"
         d="m 101.44306,136.53374 c -14.503057,-7.62249 -15.655686,-8.48902 -13.255922,-9.96561 1.690286,-1.04005 3.077014,-2.2743 4.318711,-3.84387 l 1.013035,-1.28053 v 1.15551 c 0,1.51771 0.504579,2.178 2.392787,3.13116 1.908646,0.96348 1.775616,0.96812 2.063063,-0.072 l 0.237647,-0.8599 0.271522,0.67234 c 0.650878,1.61168 1.889777,1.63434 4.061257,0.0743 l 1.27083,-0.91299 0.0983,-2.03348 c 0.0541,-1.11841 0.11066,-0.069 0.1258,2.33215 0.0151,2.40109 0.0353,4.57591 0.0448,4.83292 0.0135,0.36468 1.02139,1.04466 2.05587,1.38702 0.0298,0.01 -0.17311,0.90159 -0.45091,1.9816 -0.27781,1.08002 -0.584,2.5951 -0.68042,3.36685 -0.23202,1.85699 -0.10123,1.85573 -3.56638,0.0345 z m 6.90068,-14.13203 c -0.01,-3.81713 -0.10017,-3.66112 3.13409,-5.41066 3.01024,-1.62836 3.08291,-1.58899 1.33592,0.72375 -0.75988,1.00596 -2.07465,3.18993 -2.92171,4.85325 l -1.54012,3.02423 z m -10.311021,-2.70904 c -0.01456,-2.00802 -0.07401,-2.24928 -0.696409,-2.8261 -0.618613,-0.57331 -0.592652,-1.72533 0.03888,-1.72533 0.12921,0 2.277982,1.05067 2.443045,1.19455 0.0449,0.0391 -0.118458,0.53053 -0.363029,1.09196 -0.244571,0.56143 -0.661101,1.79469 -0.925622,2.74058 l -0.480948,1.71979 z m 2.155901,-8.14735 c -0.79832,-0.47845 -1.095115,-0.81159 -0.99957,-1.12198 1.01624,-3.30133 1.32703,-6.71896 0.84655,-9.30906 -0.217682,-1.173448 -0.205852,-1.20262 0.66573,-1.641525 0.48804,-0.245765 1.51648,-0.821658 2.28542,-1.279764 0.76894,-0.458105 1.37307,-0.731452 1.34251,-0.607437 -0.0306,0.124015 0.0377,1.135902 0.1518,2.248639 0.33407,3.259297 -0.16669,5.582877 -1.32189,6.133747 -1.07118,0.51082 -1.17073,1.12791 -0.24965,1.54759 0.40571,0.18485 0.57758,0.4117 0.44674,0.58964 -0.11695,0.15906 -0.55167,1.1524 -0.96604,2.20743 -0.86405,2.2 -0.72114,2.11998 -2.2016,1.23272 z m 16.49857,-1.46212 c -2.24886,-1.27093 -2.15297,-1.17061 -1.7079,-1.78705 2.87437,-3.98114 3.41822,-4.83449 3.25225,-5.10305 -0.18843,-0.30487 1.44877,0.55802 4.45766,2.34943 1.85045,1.10171 1.89434,0.81816 -0.39688,2.56395 -1.05503,0.80388 -2.32132,1.82259 -2.81398,2.26381 -0.49266,0.44121 -0.90938,0.79042 -0.92604,0.77602 -0.0167,-0.0144 -0.85596,-0.4928 -1.86511,-1.06311 z"
         id="path23" /><path
         style="fill:#132335"
         d="m 99.066824,126.33848 c -1.459377,-1.80886 -1.323432,-4.97604 0.381726,-8.89327 l 0.436746,-1.00333 1.564524,0.83388 c 2.5027,1.33393 2.52989,1.39323 2.4362,5.31514 l -0.0484,2.0257 -1.30116,0.93479 c -1.63069,1.17154 -2.922963,1.46469 -3.469646,0.78709 z M 103.83763,113.514 c -1.0914,-0.60009 -2.03333,-1.13365 -2.09317,-1.18568 -0.12496,-0.10866 1.29395,-3.81402 1.59675,-4.16973 0.24967,-0.29332 7.40676,3.57564 7.28841,3.93995 -0.59741,1.83893 -4.5309,2.65869 -6.79199,1.41546 z m 6.74688,-6.84356 c -4.25585,-2.25126 -4.50736,-2.32647 -5.70628,-1.70648 l -0.7852,0.40604 0.20303,-1.13365 c 0.22916,-1.27951 0.26284,-4.04488 0.0686,-5.631564 -0.15604,-1.274551 1.00499,-1.791206 2.89284,-1.287311 1.03953,0.277468 10.75509,5.521345 11.01811,5.946925 0.127,0.20549 -1.77771,3.0875 -3.25217,4.92083 l -0.47017,0.5846 z"
         id="path22" /></g></g></svg>
