<?xml version="1.0" encoding="UTF-8" standalone="no"?>
<!-- Created with Inkscape (http://www.inkscape.org/) -->

<svg
   width="199.86531mm"
   height="64.123428mm"
   viewBox="0 0 199.86531 64.123428"
   version="1.1"
   id="svg1"
   xml:space="preserve"
   xmlns:inkscape="http://www.inkscape.org/namespaces/inkscape"
   xmlns:sodipodi="http://sodipodi.sourceforge.net/DTD/sodipodi-0.dtd"
   xmlns="http://www.w3.org/2000/svg"
   xmlns:svg="http://www.w3.org/2000/svg"><sodipodi:namedview
     id="namedview1"
     pagecolor="#ffffff"
     bordercolor="#000000"
     borderopacity="0.25"
     inkscape:showpageshadow="2"
     inkscape:pageopacity="0.0"
     inkscape:pagecheckerboard="0"
     inkscape:deskcolor="#d1d1d1"
     inkscape:document-units="mm"><inkscape:page
       x="-9.171062e-15"
       y="0"
       width="199.86533"
       height="64.123428"
       id="page2"
       margin="0"
       bleed="0" /></sodipodi:namedview><defs
     id="defs1" /><g
     inkscape:label="Capa 1"
     inkscape:groupmode="layer"
     id="layer1"
     transform="translate(-6.4386398,-150.28724)"><g
       id="g1"><path
         style="fill:#edccb9"
         d="m 134.45374,214.37662 c 0.28465,-0.0187 0.75045,-0.0187 1.0351,5e-5 0.28465,0.0187 0.0517,0.034 -0.51755,0.034 -0.56931,-3e-5 -0.80221,-0.0153 -0.51755,-0.034 z m -1.92957,-0.0891 c 0.065,-0.0272 0.14261,-0.0239 0.17252,0.007 0.0299,0.0313 -0.0232,0.0536 -0.11814,0.0495 -0.10485,-0.005 -0.12618,-0.0269 -0.0544,-0.0569 z m 4.77048,2.3e-4 c 0.065,-0.0272 0.1426,-0.0239 0.17251,0.007 0.0299,0.0313 -0.0233,0.0536 -0.11814,0.0495 -0.10485,-0.005 -0.12618,-0.0268 -0.0544,-0.0569 z m -45.460116,-0.37713 c 0.06188,-0.0261 0.163143,-0.0261 0.225023,1e-5 0.06188,0.0262 0.01125,0.0475 -0.112513,0.0475 -0.123763,-1e-5 -0.174392,-0.0214 -0.11251,-0.0475 z m 3.240321,1.6e-4 c 0.06188,-0.0261 0.163143,-0.0261 0.225023,1e-5 0.06188,0.0261 0.01125,0.0475 -0.112514,0.0475 -0.123762,0 -0.174391,-0.0214 -0.112509,-0.0475 z m 1.265755,-0.0961 c 0.06498,-0.0272 0.142609,-0.0239 0.172517,0.007 0.02991,0.0313 -0.02325,0.0536 -0.118139,0.0495 -0.104855,-0.005 -0.126182,-0.0269 -0.05438,-0.0569 z m 70.98862,-16.84728 c 3.9e-4,-8.91453 0.0111,-12.54744 0.0239,-8.07311 0.0127,4.47433 0.0124,11.76804 -7e-4,16.20825 -0.0131,4.44022 -0.0236,0.7794 -0.0232,-8.13514 z m 15.93158,7.6e-4 c 3.8e-4,-8.91454 0.0111,-12.54744 0.0239,-8.07312 0.0127,4.47433 0.0124,11.76805 -7.1e-4,16.20826 -0.0131,4.44021 -0.0235,0.7794 -0.0232,-8.13514 z M 22.017297,212.21858 c 0.0043,-0.10977 0.02565,-0.1321 0.05438,-0.0569 0.026,0.068 0.0228,0.14931 -0.0071,0.18062 -0.02991,0.0313 -0.05118,-0.0244 -0.04727,-0.12369 z m 28.532908,-1.88333 c 0.0043,-0.10977 0.02565,-0.1321 0.05438,-0.0569 0.026,0.068 0.0228,0.14931 -0.0071,0.18062 -0.02991,0.0313 -0.05118,-0.0244 -0.04727,-0.12369 z m -0.08997,-0.94234 c 0.0043,-0.10978 0.02565,-0.13211 0.05438,-0.0569 0.026,0.068 0.0228,0.1493 -0.0071,0.18061 -0.02991,0.0313 -0.05118,-0.0243 -0.04727,-0.12368 z m 99.452805,-1.29518 c 0,-0.0196 0.0709,-0.0938 0.15752,-0.1649 0.14277,-0.11721 0.14595,-0.11387 0.034,0.0356 -0.11759,0.15697 -0.19151,0.20688 -0.1915,0.12932 z M 22.647637,205.8107 c 0.0043,-0.10978 0.02565,-0.13211 0.05438,-0.0569 0.026,0.068 0.0228,0.1493 -0.0071,0.18061 -0.02991,0.0313 -0.05118,-0.0243 -0.04727,-0.12368 z m 27.272795,-2.16609 c 0.0043,-0.10978 0.02565,-0.13211 0.05438,-0.0569 0.026,0.068 0.0228,0.1493 -0.0071,0.18061 -0.02991,0.0313 -0.05118,-0.0243 -0.04727,-0.12368 z m -27.002651,-0.56668 c 0.0043,-0.10978 0.02565,-0.13211 0.05438,-0.0569 0.026,0.068 0.0228,0.14931 -0.0071,0.18062 -0.02991,0.0313 -0.05118,-0.0243 -0.04727,-0.12368 z M 49.560563,199.781 c 0.0043,-0.10978 0.02565,-0.13211 0.05438,-0.0569 0.026,0.068 0.0228,0.1493 -0.0071,0.18061 -0.02991,0.0313 -0.05118,-0.0244 -0.04727,-0.12368 z M 153.9781,197.67353 c 10e-6,-0.12957 0.0204,-0.18258 0.0454,-0.11779 0.025,0.0648 0.025,0.1708 -1e-5,0.23558 -0.025,0.0648 -0.0454,0.0118 -0.0454,-0.11779 z m -104.687438,-0.8138 c 0.0043,-0.10978 0.02565,-0.13211 0.05438,-0.0569 0.026,0.068 0.0228,0.1493 -0.0071,0.18061 -0.02991,0.0313 -0.05118,-0.0243 -0.04727,-0.12368 z m 24.212427,-0.65849 c 0.0043,-0.10978 0.02565,-0.13211 0.05438,-0.0569 0.026,0.068 0.0228,0.1493 -0.0071,0.18061 -0.02991,0.0313 -0.05118,-0.0243 -0.04727,-0.12368 z M 113.7371,195.5435 c 0.004,-0.10977 0.0257,-0.1321 0.0544,-0.0569 0.026,0.068 0.0228,0.14931 -0.007,0.18062 -0.0299,0.0313 -0.0512,-0.0243 -0.0473,-0.12369 z m 40.23401,-0.46926 c 0.004,-0.10978 0.0256,-0.13211 0.0544,-0.0569 0.026,0.068 0.0228,0.1493 -0.007,0.18061 -0.0299,0.0313 -0.0512,-0.0243 -0.0473,-0.12368 z m -80.550869,-0.13731 c 5e-6,-0.12958 0.02044,-0.18258 0.0454,-0.11779 0.02497,0.0648 0.02496,0.1708 -1e-5,0.23558 -0.02497,0.0648 -0.0454,0.0118 -0.04539,-0.11779 z m 40.414039,-0.75196 c 0,-0.12957 0.0204,-0.18258 0.0454,-0.11779 0.025,0.0648 0.025,0.1708 -10e-6,0.23558 -0.025,0.0648 -0.0454,0.0118 -0.0454,-0.11779 z m -64.813518,-0.24651 c 0.0043,-0.10978 0.02565,-0.13211 0.05438,-0.0569 0.026,0.068 0.0228,0.1493 -0.0071,0.18061 -0.02991,0.0313 -0.05118,-0.0243 -0.04727,-0.12368 z m 40.324002,-0.18656 c 0.0043,-0.10978 0.02565,-0.1321 0.05438,-0.0569 0.026,0.068 0.0228,0.1493 -0.0071,0.18062 -0.02991,0.0313 -0.05118,-0.0243 -0.04727,-0.12369 z m -16.000749,-1.21795 c 5.18e-4,-0.31097 0.01733,-0.42682 0.03735,-0.25745 0.02003,0.16937 0.0196,0.4238 -9.43e-4,0.5654 -0.02054,0.1416 -0.03693,0.003 -0.03641,-0.30795 z m 15.924575,-0.14059 c 8e-6,-0.1814 0.01853,-0.25561 0.04117,-0.16491 0.02264,0.0907 0.02263,0.23912 -1.4e-5,0.32982 -0.02264,0.0907 -0.04116,0.0165 -0.04116,-0.16491 z m -40.427761,-0.43382 c 0.0043,-0.10978 0.02565,-0.13211 0.05438,-0.0569 0.026,0.068 0.0228,0.1493 -0.0071,0.18061 -0.02991,0.0313 -0.05118,-0.0243 -0.04727,-0.12368 z m 49.182138,-13.37105 c 3.25e-4,-7.46334 0.01112,-10.5026 0.02399,-6.75392 0.01287,3.74869 0.01261,9.85505 -5.9e-4,13.5697 -0.0132,3.71466 -0.02373,0.64755 -0.0234,-6.81578 z m 15.931563,-0.4233 c 3.1e-4,-7.23011 0.0111,-10.18788 0.024,-6.57283 0.0129,3.61506 0.0126,9.5306 -5.7e-4,13.14565 -0.0132,3.61505 -0.0238,0.65728 -0.0234,-6.57282 z m 9.44308,12.51001 -0.17145,-0.21203 0.20251,0.17952 c 0.19031,0.16871 0.24348,0.24455 0.17145,0.24455 -0.0171,0 -0.10821,-0.0954 -0.20251,-0.21204 z m -74.736713,-0.69459 c 0.0043,-0.10977 0.02565,-0.1321 0.05438,-0.0569 0.026,0.068 0.0228,0.14931 -0.0071,0.18062 -0.02991,0.0313 -0.05118,-0.0243 -0.04727,-0.12369 z m -0.08996,-1.03658 c 0.0043,-0.10977 0.02565,-0.1321 0.05438,-0.0569 0.026,0.068 0.0228,0.14931 -0.0071,0.18062 -0.02991,0.0313 -0.05118,-0.0243 -0.04727,-0.12369 z m -0.08996,-1.03657 c 0.0043,-0.10978 0.02565,-0.13211 0.05438,-0.0569 0.026,0.068 0.0228,0.1493 -0.0071,0.18061 -0.02991,0.0313 -0.05118,-0.0243 -0.04727,-0.12368 z m -0.08996,-1.03658 c 0.0043,-0.10978 0.02565,-0.13211 0.05438,-0.0569 0.026,0.068 0.0228,0.1493 -0.0071,0.18061 -0.02991,0.0313 -0.05118,-0.0243 -0.04727,-0.12368 z m -23.852355,-0.1896 c 0.0043,-0.10978 0.02565,-0.13211 0.05438,-0.0569 0.026,0.068 0.0228,0.1493 -0.0071,0.18061 -0.02991,0.0313 -0.05118,-0.0243 -0.04727,-0.12368 z m 23.731097,-0.97293 c -0.03915,-0.15674 -0.02743,-0.19353 0.03936,-0.1236 0.0523,0.0548 0.07738,0.15519 0.05574,0.22317 -0.02247,0.0706 -0.06327,0.0279 -0.0951,-0.0996 z m 71.778991,-3.34946 c 0.002,-0.15549 0.022,-0.20768 0.0448,-0.116 0.0228,0.0917 0.0213,0.21891 -0.003,0.28271 -0.0247,0.0638 -0.0433,-0.0112 -0.0415,-0.16671 z m 8e-5,-1.88468 c 0.002,-0.15549 0.022,-0.20769 0.0448,-0.116 0.0228,0.0917 0.0213,0.21891 -0.003,0.2827 -0.0246,0.0638 -0.0433,-0.0112 -0.0415,-0.1667 z m 3.9433,-10.44825 c 0,-0.0196 0.0709,-0.0938 0.15752,-0.16491 0.14276,-0.1172 0.14595,-0.11387 0.034,0.0356 -0.11759,0.15696 -0.19151,0.20687 -0.1915,0.12932 z m 42.91196,-5.02747 c 4.61634,-0.0133 12.17033,-0.0129 16.78667,8e-4 4.61633,0.0137 0.83933,0.0246 -8.39334,0.0241 -9.23266,-4.4e-4 -13.00966,-0.0117 -8.39333,-0.0249 z m -30.24295,-1.02974 c 0.0619,-0.0261 0.16314,-0.0261 0.22502,1e-5 0.0619,0.0261 0.0113,0.0475 -0.11251,0.0475 -0.12376,0 -0.17439,-0.0214 -0.11251,-0.0475 z m 3.42034,1.6e-4 c 0.0619,-0.0261 0.16314,-0.0261 0.22502,1e-5 0.0619,0.0262 0.0112,0.0475 -0.11251,0.0475 -0.12376,-1e-5 -0.17439,-0.0214 -0.11251,-0.0475 z m 59.68157,-0.75301 c 0.065,-0.0272 0.14261,-0.0239 0.17252,0.007 0.0299,0.0313 -0.0233,0.0536 -0.11814,0.0495 -0.10486,-0.005 -0.12618,-0.0269 -0.0544,-0.0569 z m 0.71445,0.002 c 0.0619,-0.0261 0.16314,-0.0261 0.22502,1e-5 0.0619,0.0261 0.0113,0.0475 -0.11252,0.0475 -0.12376,0 -0.17439,-0.0214 -0.1125,-0.0475 z m -33.14647,-6.34708 0.001,-6.26656 7.96579,3.8e-4 7.96579,3.7e-4 6.9e-4,6.31368 7e-4,6.31369 -0.0238,-6.29013 -0.0238,-6.29012 -7.91951,-3.8e-4 -7.9195,-3.7e-4 -0.0244,6.243 -0.0244,6.24301 z m 29.15802,3.65295 -0.26435,-0.30627 0.29252,0.27679 c 0.27267,0.258 0.33389,0.33576 0.26435,0.33576 -0.0155,0 -0.14712,-0.13783 -0.29252,-0.30628 z m -2.46234,-3.14125 c 0.004,-0.10978 0.0257,-0.1321 0.0544,-0.0569 0.026,0.068 0.0228,0.1493 -0.007,0.18062 -0.0299,0.0313 -0.0512,-0.0243 -0.0473,-0.12369 z m 4.56324,-0.2024 c 0.2117,-0.0199 0.53574,-0.0196 0.72007,6.6e-4 0.18433,0.0203 0.0111,0.0365 -0.38492,0.0362 -0.39604,-3.6e-4 -0.54686,-0.0169 -0.33515,-0.0368 z m -3.56601,-0.40222 c 1e-5,-0.12957 0.0204,-0.18258 0.0454,-0.11779 0.025,0.0648 0.025,0.1708 -1e-5,0.23559 -0.025,0.0648 -0.0454,0.0118 -0.0454,-0.1178 z m 3.74368,-0.44653 c 0.30941,-0.0184 0.81571,-0.0184 1.12511,5e-5 0.30941,0.0184 0.0563,0.0335 -0.56255,0.0334 -0.61881,-2e-5 -0.87196,-0.0151 -0.56256,-0.0335 z m -0.58493,-2.92176 c 0.48268,-0.0169 1.2725,-0.0169 1.75518,8e-5 0.48267,0.017 0.0877,0.0308 -0.87759,0.0308 -0.96535,-5e-5 -1.36026,-0.0139 -0.87759,-0.0309 z m -2.63272,-0.90779 c 0,-0.0196 0.0709,-0.0938 0.15752,-0.16491 0.14277,-0.1172 0.14595,-0.11387 0.034,0.0356 -0.11759,0.15697 -0.1915,0.20688 -0.1915,0.12933 z m 0.36005,-0.37692 c 0,-0.0196 0.0709,-0.0938 0.15752,-0.16491 0.14277,-0.1172 0.14595,-0.11387 0.034,0.0356 -0.11759,0.15697 -0.19151,0.20688 -0.19151,0.12933 z m 4.11904,-1.82132 c 0.11196,-0.0225 0.27398,-0.0217 0.36003,0.002 0.0861,0.0236 -0.006,0.042 -0.20357,0.041 -0.19802,-10e-4 -0.26843,-0.0204 -0.15646,-0.0429 z"
         id="path7" /><path
         style="fill:#e4b196"
         d="m 148.56284,209.51118 c 0,-0.0196 0.0709,-0.0938 0.15753,-0.1649 0.14276,-0.11721 0.14594,-0.11388 0.034,0.0356 -0.11759,0.15696 -0.19151,0.20688 -0.19151,0.12932 z M 124.66721,169.3077 c 0.24382,-0.25914 0.46355,-0.47115 0.48831,-0.47115 0.0247,0 -0.15448,0.21202 -0.3983,0.47115 -0.24381,0.25913 -0.46355,0.47115 -0.4883,0.47115 -0.0247,0 0.15448,-0.21202 0.39829,-0.47115 z m 71.10173,-8.03009 -0.26435,-0.30627 0.29252,0.27679 c 0.27266,0.258 0.33388,0.33576 0.26435,0.33576 -0.0155,-1e-5 -0.14713,-0.13783 -0.29252,-0.30628 z m 4.44978,-3.72203 c -0.11195,-0.14947 -0.10876,-0.1528 0.034,-0.0356 0.0866,0.0711 0.15751,0.14535 0.15751,0.16492 -1e-5,0.0776 -0.0739,0.0276 -0.1915,-0.12934 z M 196.27,153.26181 c 0,-0.0162 0.13164,-0.15403 0.29254,-0.30624 l 0.29254,-0.27676 -0.26438,0.30624 c -0.24643,0.28547 -0.3207,0.34957 -0.3207,0.27676 z"
         id="path6" /><path
         style="fill:#dc9473"
         d="m 132.7942,214.28758 c 0.065,-0.0272 0.14261,-0.0239 0.17252,0.007 0.0299,0.0313 -0.0233,0.0536 -0.11814,0.0495 -0.10486,-0.005 -0.12618,-0.0269 -0.0544,-0.0569 z m 4.14041,1.9e-4 c 0.065,-0.0272 0.14261,-0.0239 0.17252,0.007 0.0299,0.0313 -0.0233,0.0536 -0.11814,0.0495 -0.10486,-0.005 -0.12618,-0.0269 -0.0544,-0.0569 z m -44.605026,-0.37963 c 0.08663,-0.0237 0.228398,-0.0237 0.315031,1e-5 0.08663,0.0237 0.01575,0.0431 -0.157518,0.0431 -0.173267,-10e-6 -0.244148,-0.0194 -0.157513,-0.0431 z m 2.206267,-0.002 c 0.111965,-0.0225 0.273981,-0.0217 0.360036,0.002 0.08606,0.0236 -0.0056,0.042 -0.203571,0.041 -0.19802,-0.001 -0.268429,-0.0204 -0.156465,-0.0429 z m -3.595776,-0.0921 c 0.06498,-0.0272 0.142609,-0.0239 0.172517,0.007 0.02991,0.0313 -0.02326,0.0536 -0.118139,0.0495 -0.104855,-0.005 -0.126182,-0.0269 -0.05438,-0.0569 z m -40.659762,-6.5889 c 0.0043,-0.10978 0.02565,-0.13211 0.05438,-0.0569 0.026,0.068 0.0228,0.1493 -0.0071,0.18061 -0.02991,0.0313 -0.05118,-0.0243 -0.04727,-0.12368 z m 43.131263,-8.3032 c 0.13682,-0.0217 0.33934,-0.0211 0.450044,0.001 0.110705,0.0224 -0.0012,0.0401 -0.248764,0.0394 -0.247524,-7.2e-4 -0.3381,-0.019 -0.20128,-0.0407 z m -43.940969,-0.36637 c 0.0043,-0.10978 0.02565,-0.13211 0.05438,-0.0569 0.026,0.068 0.0228,0.1493 -0.0071,0.18061 -0.02991,0.0313 -0.05118,-0.0243 -0.04727,-0.12368 z m 87.769153,-0.45916 c 0.002,-0.15549 0.022,-0.20769 0.0448,-0.116 0.0228,0.0917 0.0213,0.2189 -0.003,0.2827 -0.0247,0.0638 -0.0433,-0.0112 -0.0415,-0.1667 z m 16.74503,-0.89443 c 1e-5,-0.1814 0.0185,-0.25561 0.0412,-0.16491 0.0226,0.0907 0.0226,0.23912 -1e-5,0.32982 -0.0226,0.0907 -0.0412,0.0165 -0.0412,-0.16491 z m -80.481689,-1.28383 c 0.0043,-0.10977 0.02565,-0.1321 0.05438,-0.0569 0.026,0.068 0.0228,0.14931 -0.0071,0.18062 -0.02991,0.0313 -0.05118,-0.0243 -0.04727,-0.12369 z M 49.200706,195.6343 c 0.0043,-0.10978 0.02565,-0.1321 0.05438,-0.0569 0.026,0.068 0.0228,0.1493 -0.0071,0.18062 -0.02991,0.0313 -0.05118,-0.0244 -0.04727,-0.12369 z m 104.780824,-0.17565 c 0.002,-0.15549 0.022,-0.20769 0.0448,-0.116 0.0228,0.0917 0.0213,0.2189 -0.003,0.2827 -0.0247,0.0638 -0.0433,-0.0112 -0.0415,-0.1667 z m -40.24442,-0.19823 c 0.004,-0.10978 0.0257,-0.1321 0.0544,-0.0569 0.026,0.068 0.0228,0.1493 -0.007,0.18062 -0.0299,0.0313 -0.0512,-0.0243 -0.0473,-0.12369 z m -40.313516,-0.74793 c 0.0018,-0.15548 0.02202,-0.20768 0.04483,-0.11599 0.02282,0.0917 0.02131,0.2189 -0.0033,0.2827 -0.02466,0.0638 -0.04333,-0.0112 -0.04149,-0.16671 z m 40.414036,-0.84619 c 0.002,-0.15549 0.022,-0.20768 0.0448,-0.116 0.0228,0.0917 0.0213,0.21891 -0.003,0.28271 -0.0247,0.0638 -0.0433,-0.0112 -0.0415,-0.16671 z m -24.575731,-0.80215 c 6e-6,-0.12957 0.02044,-0.18258 0.04541,-0.11779 0.02497,0.0648 0.02496,0.1708 -1.1e-5,0.23558 -0.02497,0.0648 -0.0454,0.0118 -0.04539,-0.11779 z m 8.734223,-0.51788 c 0.0018,-0.15548 0.02202,-0.20768 0.04483,-0.11599 0.02282,0.0917 0.02131,0.2189 -0.0033,0.2827 -0.02466,0.0638 -0.04333,-0.0112 -0.04149,-0.16671 z M 73.360514,178.5402 c 3.19e-4,-7.38559 0.01112,-10.40697 0.024,-6.71417 0.01288,3.69279 0.01262,9.73555 -5.8e-4,13.42835 -0.0132,3.69279 -0.02374,0.67141 -0.02342,-6.71418 z m -24.699605,11.15771 c 0.0043,-0.10978 0.02565,-0.1321 0.05438,-0.0569 0.026,0.068 0.0228,0.1493 -0.0071,0.18062 -0.02991,0.0313 -0.05118,-0.0243 -0.04727,-0.12369 z m -0.269892,-3.10973 c 0.0043,-0.10978 0.02565,-0.13211 0.05438,-0.0569 0.026,0.068 0.0228,0.1493 -0.0071,0.18061 -0.02991,0.0313 -0.05118,-0.0243 -0.04727,-0.12368 z m -0.138229,-1.06934 c -0.02848,-0.0483 -0.01062,-0.11436 0.0397,-0.14691 0.05031,-0.0325 0.09148,0.007 0.09147,0.0877 -7e-6,0.16552 -0.05402,0.18989 -0.131172,0.0592 z m 71.809302,-4.10229 c 3.4e-4,-0.41463 0.0162,-0.57253 0.0352,-0.35088 0.019,0.22164 0.0187,0.56088 -6.3e-4,0.75387 -0.0193,0.19298 -0.0349,0.0116 -0.0345,-0.40299 z m 72.01962,-8.52477 c 1.8e-4,-4.3277 0.0113,-6.09812 0.0247,-3.93427 0.0134,2.16385 0.0132,5.70469 -3.4e-4,7.86854 -0.0136,2.16385 -0.0245,0.39343 -0.0243,-3.93427 z m -56.01459,6.4995 c 0,-0.12958 0.0204,-0.18258 0.0454,-0.11779 0.025,0.0648 0.025,0.1708 -1e-5,0.23558 -0.025,0.0648 -0.0454,0.0118 -0.0454,-0.11779 z m 3.38934,-2.2316 c 0.065,-0.0272 0.14261,-0.0239 0.17252,0.007 0.0299,0.0313 -0.0233,0.0536 -0.11814,0.0495 -0.10485,-0.005 -0.12618,-0.0269 -0.0544,-0.0569 z m -2.38857,-13.19381 c 0.0876,-0.0239 0.20908,-0.0223 0.27002,0.004 0.0609,0.0258 -0.0107,0.0454 -0.15923,0.0434 -0.14851,-0.002 -0.19837,-0.0231 -0.11079,-0.0469 z m 2.61025,1.3e-4 c 0.0876,-0.0239 0.20909,-0.0223 0.27003,0.004 0.0609,0.0258 -0.0107,0.0454 -0.15923,0.0434 -0.14851,-0.002 -0.19837,-0.023 -0.1108,-0.0469 z m 31.63646,-0.75772 c 2.19059,-0.0139 5.77519,-0.0138 7.96579,3.7e-4 2.19059,0.0142 0.39828,0.0256 -3.9829,0.0254 -4.38118,-2.1e-4 -6.17349,-0.0118 -3.98289,-0.0257 z m 28.80285,0.01 c 0.0619,-0.0261 0.16314,-0.0261 0.22502,1e-5 0.0619,0.0262 0.0113,0.0475 -0.11251,0.0475 -0.12376,-1e-5 -0.17439,-0.0214 -0.11251,-0.0475 z m -0.09,-1.04067 c 0.11138,-0.0225 0.29365,-0.0224 0.40504,2e-5 0.11138,0.0225 0.0202,0.0408 -0.20253,0.0408 -0.22277,-2e-5 -0.3139,-0.0184 -0.20251,-0.0409 z m -2.38391,-2.07438 c 0.13682,-0.0217 0.33934,-0.0211 0.45004,0.001 0.11071,0.0224 -0.001,0.0401 -0.24876,0.0394 -0.24753,-7.2e-4 -0.3381,-0.019 -0.20128,-0.0407 z m 4.54421,-3.3e-4 c 0.16089,-0.0209 0.42417,-0.0209 0.58506,2e-5 0.16089,0.0209 0.0292,0.038 -0.29253,0.038 -0.32179,-2e-5 -0.45342,-0.0171 -0.29253,-0.038 z m -7.16387,-2.94766 c 0,-0.12958 0.0204,-0.18258 0.0454,-0.11779 0.025,0.0648 0.025,0.1708 -1e-5,0.23558 -0.025,0.0648 -0.0454,0.0118 -0.0454,-0.11779 z m -0.97855,-0.32987 c 6.8e-4,-0.25914 0.0182,-0.35397 0.0388,-0.21073 0.0207,0.14324 0.0201,0.35527 -10e-4,0.47117 -0.0214,0.1159 -0.0383,-0.001 -0.0376,-0.26044 z m 0.97147,-0.38474 c 0.004,-0.10978 0.0257,-0.13211 0.0544,-0.0569 0.026,0.068 0.0228,0.1493 -0.007,0.18061 -0.0299,0.0313 -0.0512,-0.0243 -0.0473,-0.12368 z m 6.57781,-1.16976 c 1e-5,-0.12957 0.0204,-0.18258 0.0454,-0.11779 0.025,0.0648 0.025,0.1708 -1e-5,0.23558 -0.025,0.0648 -0.0454,0.0118 -0.0454,-0.11779 z m 0.90009,4e-5 c 0,-0.12957 0.0204,-0.18258 0.0454,-0.11779 0.025,0.0648 0.025,0.1708 -1e-5,0.23558 -0.025,0.0648 -0.0454,0.0118 -0.0454,-0.11779 z"
         id="path5" /><path
         style="fill:#d37653"
         d="m 149.23794,208.79292 c 0.24382,-0.25913 0.46355,-0.47115 0.4883,-0.47115 0.0248,0 -0.15448,0.21202 -0.39829,0.47115 -0.24381,0.25914 -0.46355,0.47115 -0.4883,0.47115 -0.0248,0 0.15448,-0.21202 0.39829,-0.47115 z m -70.886833,-0.73367 -0.310171,-0.35339 0.33752,0.32476 c 0.314155,0.30228 0.378902,0.38203 0.310169,0.38202 -0.01504,0 -0.166925,-0.15903 -0.337518,-0.35339 z m 58.240983,-8.44321 c 0,-0.0196 0.0709,-0.0938 0.15752,-0.1649 0.14276,-0.11721 0.14595,-0.11388 0.034,0.0356 -0.11759,0.15696 -0.19151,0.20688 -0.1915,0.12932 z m -45.915958,-1.73348 c -0.111953,-0.14947 -0.108769,-0.1528 0.03399,-0.0356 0.149927,0.12311 0.197604,0.2005 0.123524,0.20049 -0.01869,0 -0.08957,-0.0742 -0.157509,-0.16491 z m 59.957888,-10.81052 c -0.21863,-0.23324 -0.37725,-0.42407 -0.3525,-0.42407 0.0248,0 0.22388,0.19084 0.44251,0.42407 0.21862,0.23324 0.37724,0.42408 0.35249,0.42407 -0.0247,0 -0.22388,-0.19083 -0.4425,-0.42407 z m -14.08601,-9.00002 c 0.0896,-0.10365 0.18318,-0.18846 0.20793,-0.18846 0.0247,1e-5 -0.0283,0.0848 -0.11792,0.18847 -0.0896,0.10365 -0.18317,0.18846 -0.20793,0.18846 -0.0248,-1e-5 0.0283,-0.0848 0.11792,-0.18847 z m 67.01238,-17.1769 c 0,-0.0162 0.13165,-0.15403 0.29254,-0.30625 l 0.29254,-0.27676 -0.26437,0.30625 c -0.24644,0.28546 -0.32071,0.34956 -0.32071,0.27676 z m -2.26143,-6.35498 c -0.11195,-0.14947 -0.10877,-0.1528 0.034,-0.0356 0.14992,0.12311 0.1976,0.2005 0.12352,0.2005 -0.0187,0 -0.0896,-0.0742 -0.15751,-0.16492 z m 2.52032,-1.60186 c -0.11195,-0.14947 -0.10877,-0.1528 0.034,-0.0356 0.14992,0.12311 0.1976,0.2005 0.12352,0.2005 -0.0187,0 -0.0896,-0.0742 -0.15751,-0.16492 z"
         id="path4" /><path
         style="fill:#cd613f"
         d="m 133.15424,214.28759 c 0.065,-0.0272 0.1426,-0.0239 0.17251,0.007 0.0299,0.0313 -0.0232,0.0536 -0.11814,0.0495 -0.10485,-0.005 -0.12618,-0.0269 -0.0544,-0.0569 z m 3.51034,1.7e-4 c 0.065,-0.0272 0.14261,-0.0239 0.17252,0.007 0.0299,0.0313 -0.0232,0.0536 -0.11814,0.0495 -0.10485,-0.005 -0.12618,-0.0269 -0.0544,-0.0569 z m -43.432191,-0.384 c 0.236643,-0.0195 0.601179,-0.0192 0.81008,5.6e-4 0.208901,0.0198 0.01528,0.0357 -0.43026,0.0354 -0.445544,-3.1e-4 -0.616463,-0.0165 -0.37982,-0.0359 z m -2.022287,-0.0893 c 0.06498,-0.0272 0.142609,-0.0239 0.172516,0.007 0.02991,0.0313 -0.02325,0.0536 -0.118138,0.0495 -0.104855,-0.005 -0.126183,-0.0269 -0.05438,-0.0569 z m 42.254138,-13.28812 c 0.13614,-0.0216 0.35891,-0.0216 0.49505,2e-5 0.13613,0.0216 0.0247,0.0393 -0.24753,0.0392 -0.27228,-1e-5 -0.38366,-0.0177 -0.24752,-0.0393 z m -40.453317,-1.60078 c 0.06498,-0.0272 0.142609,-0.0239 0.172517,0.007 0.02991,0.0313 -0.02326,0.0536 -0.118139,0.0495 -0.104855,-0.005 -0.126182,-0.0269 -0.05438,-0.0569 z m 60.981837,-2.57129 c 1e-5,-0.33688 0.0163,-0.4747 0.0363,-0.30626 0.02,0.16845 0.02,0.44408 -2e-5,0.61252 -0.02,0.16845 -0.0363,0.0306 -0.0363,-0.30626 z m -80.489647,-0.71842 c 0.0043,-0.10977 0.02565,-0.1321 0.05438,-0.0569 0.026,0.068 0.0228,0.1493 -0.0071,0.18062 -0.02991,0.0313 -0.05118,-0.0243 -0.04727,-0.12369 z m -0.0795,-1.59413 c 0.0018,-0.15548 0.02202,-0.20768 0.04483,-0.11599 0.02282,0.0917 0.02131,0.2189 -0.0033,0.2827 -0.02466,0.0638 -0.04333,-0.0112 -0.04149,-0.16671 z m 15.831164,-0.85521 c 0.0043,-0.10977 0.02565,-0.1321 0.05438,-0.0569 0.026,0.068 0.0228,0.14931 -0.0071,0.18062 -0.02991,0.0313 -0.05118,-0.0243 -0.04727,-0.12369 z M 113.841,193.05416 c 0,-0.1814 0.0185,-0.25561 0.0412,-0.16491 0.0226,0.0907 0.0226,0.23912 -2e-5,0.32982 -0.0226,0.0907 -0.0412,0.0165 -0.0412,-0.16491 z m -15.855339,-0.24419 c 0.0043,-0.10978 0.02565,-0.1321 0.05438,-0.0569 0.026,0.068 0.0228,0.1493 -0.0071,0.18061 -0.02991,0.0313 -0.05118,-0.0243 -0.04727,-0.12368 z m 62.700879,-12.0746 c 1.19706,-0.0148 3.18176,-0.0147 4.41044,1.8e-4 1.22868,0.0149 0.24927,0.027 -2.17647,0.0269 -2.42574,-1e-4 -3.43103,-0.0123 -2.23397,-0.0271 z m 24.75245,0.001 c 1.19706,-0.0148 3.18176,-0.0147 4.41044,1.8e-4 1.22868,0.0149 0.24927,0.027 -2.17647,0.0269 -2.42574,-9e-5 -3.43103,-0.0123 -2.23397,-0.0271 z m -65.31057,-1.02405 c 0.004,-0.10978 0.0256,-0.13211 0.0544,-0.0569 0.026,0.068 0.0228,0.1493 -0.007,0.18061 -0.0299,0.0313 -0.0512,-0.0243 -0.0473,-0.12368 z m 18.87237,-2.55087 c 0.0619,-0.0261 0.16315,-0.0261 0.22503,1e-5 0.0619,0.0262 0.0112,0.0475 -0.11252,0.0475 -0.12376,-1e-5 -0.17439,-0.0214 -0.11251,-0.0475 z m 0.8568,-0.003 c 0.0876,-0.0239 0.20909,-0.0223 0.27003,0.004 0.0609,0.0258 -0.0107,0.0454 -0.15923,0.0434 -0.14852,-0.002 -0.19838,-0.0231 -0.1108,-0.0469 z M 18.164347,165.0857 c 2.26485,-0.0139 5.970967,-0.0137 8.235815,3.9e-4 2.264849,0.0141 0.41179,0.0255 -4.117909,0.0253 -4.529698,-2.1e-4 -6.382756,-0.0118 -4.117906,-0.0257 z m 29.111088,0.001 c 2.236359,-0.0139 5.922224,-0.0137 8.190811,3.7e-4 2.268586,0.0141 0.438838,0.0255 -4.066109,0.0253 -4.504946,-2.1e-4 -6.361062,-0.0118 -4.124702,-0.0257 z m 30.069773,0.001 c 2.190593,-0.014 5.775198,-0.0138 7.965789,3.7e-4 2.190592,0.0142 0.398289,0.0256 -3.982895,0.0254 -4.381184,-2.1e-4 -6.173486,-0.0118 -3.982894,-0.0257 z m 24.662442,10e-4 c 2.19059,-0.0139 5.7752,-0.0138 7.96579,3.8e-4 2.19059,0.0142 0.39829,0.0256 -3.9829,0.0254 -4.38118,-2.1e-4 -6.173481,-0.0118 -3.98289,-0.0257 z m 36.00714,-1.12832 c 0.31135,-0.0184 0.7974,-0.0183 1.08011,3.9e-4 0.28271,0.0187 0.028,0.0337 -0.56608,0.0335 -0.59406,-2.1e-4 -0.82537,-0.0155 -0.51403,-0.0339 z m 59.37574,-7.18334 c 8e-5,-1.83992 0.0122,-2.59261 0.0269,-1.67265 0.0147,0.91996 0.0146,2.42535 -1.5e-4,3.34531 -0.0148,0.91996 -0.0268,0.16726 -0.0267,-1.67266 z m 7.9911,3.8e-4 c 1e-5,-0.1814 0.0185,-0.25561 0.0412,-0.16491 0.0226,0.0907 0.0226,0.23912 -1e-5,0.32982 -0.0226,0.0907 -0.0412,0.0165 -0.0412,-0.16491 z m -6.56518,-2.6146 c 0.33622,-0.0182 0.86277,-0.018 1.17012,3.6e-4 0.30735,0.0184 0.0323,0.0332 -0.6113,0.033 -0.64357,-1.9e-4 -0.89503,-0.0152 -0.55882,-0.0334 z m 1.16774,-2.82462 c 0.13682,-0.0216 0.33934,-0.0211 0.45004,0.001 0.11071,0.0224 -0.001,0.0401 -0.24876,0.0394 -0.24753,-7.2e-4 -0.3381,-0.019 -0.20128,-0.0407 z"
         id="path3" /><path
         style="fill:#c74c30"
         d="m 108.68896,208.08424 c 0.2689,-0.28504 0.50917,-0.51826 0.53392,-0.51826 0.0247,0 -0.17501,0.23322 -0.44392,0.51827 -0.2689,0.28504 -0.50917,0.51826 -0.53392,0.51826 -0.0247,0 0.17501,-0.23322 0.44392,-0.51827 z m 15.11075,-17.0792 c -0.11195,-0.14947 -0.10877,-0.1528 0.034,-0.0356 0.0866,0.0711 0.15751,0.14535 0.15751,0.16492 0,0.0776 -0.0739,0.0276 -0.19149,-0.12934 z m -0.63003,-0.65967 c -0.11196,-0.14946 -0.10877,-0.1528 0.034,-0.0356 0.0866,0.0711 0.15751,0.14534 0.15751,0.16491 0,0.0776 -0.0739,0.0276 -0.19149,-0.12934 z m 81.38079,-29.07936 c 0,-0.0196 0.0709,-0.0938 0.15753,-0.16491 0.14276,-0.1172 0.14594,-0.11387 0.034,0.0356 -0.11759,0.15697 -0.19151,0.20688 -0.19151,0.12933 z m -3.24697,-3.71038 -0.2182,-0.25916 0.24752,0.22847 c 0.13613,0.12565 0.24751,0.24227 0.24751,0.25915 0,0.0739 -0.0729,0.0138 -0.27683,-0.22846 z m 3.19381,-5.32407 -0.17146,-0.21204 0.20251,0.17953 c 0.19031,0.16871 0.24349,0.24455 0.17146,0.24454 -0.0171,0 -0.10821,-0.0954 -0.20251,-0.21203 z"
         id="path2" /><path
         style="fill:#c0221f"
         d="m 132.58606,214.24827 c -2.05482,-0.17655 -3.94102,-0.5546 -6.30544,-1.26381 -2.43445,-0.7302 -4.89906,-1.80782 -7.21789,-3.15593 -0.73036,-0.42461 -1.34329,-0.78768 -1.36209,-0.80683 -0.0188,-0.0191 1.10964,-3.04098 2.50762,-6.71517 l 2.54177,-6.68035 1.63304,1.14338 c 2.83864,1.98749 5.26827,3.16756 7.40797,3.59803 1.16499,0.23438 2.87113,0.21395 3.6309,-0.0435 1.0796,-0.3658 1.76865,-1.11609 1.86745,-2.03343 0.0621,-0.57625 -0.10691,-1.01863 -0.57276,-1.4995 -0.80506,-0.83102 -2.06067,-1.34445 -4.86582,-1.9897 -2.26115,-0.5201 -3.52821,-0.94054 -4.8444,-1.60746 -2.16718,-1.09812 -3.66659,-2.42852 -4.9276,-4.37216 -1.22096,-1.88192 -1.83198,-4.0199 -1.92914,-6.75015 -0.22706,-6.37999 2.35885,-11.6614 7.37874,-15.07019 2.18135,-1.48125 4.97238,-2.46689 8.04188,-2.83993 1.73917,-0.21136 5.34324,-0.13664 7.00891,0.14531 2.29931,0.38921 4.5393,1.05774 6.79559,2.02815 1.13685,0.48896 3.6656,1.78695 3.85429,1.97838 0.0982,0.0996 -0.29582,1.20423 -2.24923,6.30635 -1.30254,3.40208 -2.39596,6.1856 -2.42984,6.1856 -0.0339,0 -0.37871,-0.22787 -0.76631,-0.50638 -1.09148,-0.78427 -2.56121,-1.63832 -3.61571,-2.10104 -3.66412,-1.60786 -7.50999,-1.31927 -8.01964,0.60178 -0.20539,0.77418 -0.0141,1.36371 0.62969,1.94069 0.90901,0.81468 2.36349,1.3881 5.78976,2.28257 3.59543,0.93863 4.57542,1.32661 6.18529,2.44876 1.7907,1.2482 3.03583,2.72979 3.95517,4.70629 0.90545,1.94663 1.25436,3.66869 1.25516,6.19493 0.002,6.26389 -2.56742,11.35271 -7.42584,14.70726 -3.64119,2.5141 -8.56078,3.63121 -13.95152,3.16803 z M 90.731931,213.7821 c -2.851834,-0.3276 -5.318521,-1.06353 -7.650659,-2.28257 -3.02136,-1.5793 -5.075538,-3.47683 -6.906149,-6.37949 -1.44174,-2.28607 -2.102954,-4.50206 -2.560464,-8.58113 -0.136848,-1.22011 -0.15659,-2.97306 -0.184401,-16.37317 l -0.03114,-15.00677 7.924885,3.8e-4 7.924885,3.7e-4 -6.04e-4,13.98893 c -6.56e-4,15.19063 0.0019,15.27931 0.494613,16.89524 0.538005,1.76462 1.37179,2.56865 2.963697,2.85796 0.356084,0.0647 0.916296,0.0894 1.305126,0.0576 2.440322,-0.19985 3.61369,-1.79493 3.95801,-5.38055 0.0668,-0.69563 0.09904,-5.46953 0.09944,-14.72407 l 5.92e-4,-13.69468 7.920778,3.7e-4 7.92079,3.8e-4 -0.001,13.40479 c -8.3e-4,7.70537 -0.04,14.18608 -0.0922,15.24235 -0.35321,7.15453 -1.73427,10.85674 -5.44186,14.58798 -2.712,2.72929 -6.40876,4.50432 -10.938265,5.2521 -1.095465,0.18084 -5.526908,0.26939 -6.70567,0.13399 z m 76.643319,-16.86181 7e-4,-16.20825 -4.41044,-2.1e-4 -4.41043,-2.1e-4 3.4e-4,-7.82143 3.3e-4,-7.82142 16.74166,7.9e-4 16.74166,7.9e-4 -3.4e-4,7.82143 -3.4e-4,7.82142 -4.41043,-2.1e-4 -4.41044,-2e-4 -7e-4,16.20825 -7e-4,16.20825 -7.92079,-3.7e-4 -7.92078,-3.8e-4 z M 6.4386441,212.33464 c 3e-6,-0.0696 1.7218815,-10.67079 3.8263969,-23.55809 2.104515,-12.88729 3.826393,-23.47395 3.826395,-23.52591 3e-6,-0.0625 2.78382,-0.0943 8.213518,-0.0941 l 8.213513,3.9e-4 0.664922,2.66214 c 2.737751,10.96111 4.848039,19.99659 5.158048,22.08487 0.09351,0.62987 0.12444,0.702 0.290405,0.67716 0.120254,-0.018 0.1967,-0.11087 0.216802,-0.26338 0.11594,-0.87968 2.042502,-8.59562 4.71161,-18.87015 l 1.634022,-6.29004 8.201753,3.9e-4 8.201753,3.9e-4 3.354291,23.2524 c 1.844859,12.78883 3.377221,23.43263 3.405248,23.65291 l 0.05096,0.40049 -7.784697,-3.6e-4 -7.784698,-3.7e-4 -0.0568,-0.63609 c -0.03124,-0.34984 -0.339373,-3.64687 -0.684742,-7.32672 -0.345369,-3.67986 -0.849624,-9.15017 -1.120567,-12.15625 -0.672118,-7.45707 -0.644169,-7.1789 -0.705382,-7.02047 -0.03004,0.0777 -0.40589,1.51951 -0.83523,3.20392 -0.873722,3.42785 -5.827246,22.09135 -6.308914,23.77024 -0.04427,0.15432 -0.349349,0.16489 -4.751549,0.16468 l -4.704238,-2.2e-4 -0.09129,-0.4005 c -0.05021,-0.22027 -0.864902,-3.39011 -1.81043,-7.04408 -2.215892,-8.56326 -3.94937,-15.36892 -4.542526,-17.83401 -0.25878,-1.07545 -0.492261,-1.95538 -0.518848,-1.95538 -0.0389,0 -0.83925,7.97305 -2.632061,26.2205 l -0.09953,1.01301 -7.769072,-3.7e-4 c -6.4448605,-3e-4 -7.7690715,-0.022 -7.7690669,-0.12701 z m 160.9383359,-55.4167 2.7e-4,-6.26656 7.92078,3.7e-4 7.92079,3.8e-4 -2.7e-4,6.26656 -2.7e-4,6.26657 -7.92079,-3.8e-4 -7.92078,-3.7e-4 z m 31.50285,6.12812 c -0.32177,-0.0756 -0.96808,-0.33567 -1.43622,-0.57798 -2.00988,-1.04027 -3.33734,-3.2848 -3.33242,-5.63462 0.007,-3.40252 2.41628,-6.14361 5.64746,-6.42557 2.85693,-0.24931 5.61846,1.81687 6.37337,4.76856 0.31783,1.24271 0.18637,2.95351 -0.32242,4.19604 -0.43646,1.06588 -1.44852,2.26337 -2.44895,2.89765 -1.22488,0.77658 -3.09751,1.10086 -4.48082,0.77592 z m 2.55666,-0.98844 c 0.98549,-0.26382 1.70739,-0.69629 2.44102,-1.46233 1.00439,-1.04876 1.51419,-2.33379 1.51426,-3.8169 7e-5,-1.82134 -0.82495,-3.43992 -2.28182,-4.47657 -0.93325,-0.66407 -1.77467,-0.93747 -2.87948,-0.93562 -3.3462,0.006 -5.84058,3.25894 -5.0821,6.62844 0.24023,1.06722 0.62536,1.76972 1.4275,2.60385 1.38437,1.43958 3.05751,1.94185 4.86062,1.45913 z m -3.99653,-5.27961 1.5e-4,-3.29819 1.66073,8e-5 c 2.366,1.1e-4 2.84689,0.1473 3.20904,0.98221 0.45575,1.05069 -0.0196,2.14959 -1.06772,2.46854 l -0.47586,0.14481 0.44154,0.41565 c 0.36497,0.34358 1.72253,2.33673 1.72253,2.529 0,0.031 -0.21859,0.0564 -0.48574,0.0563 l -0.48573,-2e-5 -0.41578,-0.69847 c -0.6576,-1.10472 -1.20169,-1.83515 -1.51685,-2.03635 -0.22745,-0.1452 -0.45346,-0.18592 -1.03367,-0.18622 l -0.74257,-3.9e-4 -7e-5,1.46063 -6e-5,1.46062 -0.40504,-1e-5 -0.40504,-2e-5 z m 3.53577,-0.50511 c 0.65142,-0.28863 0.87337,-0.98638 0.49794,-1.56542 -0.28826,-0.44459 -0.68534,-0.55184 -2.0759,-0.56068 l -1.14761,-0.007 -5e-5,1.13081 -5e-5,1.13081 1.21801,5e-5 c 0.82604,4e-5 1.31122,-0.0412 1.50766,-0.12827 z"
         id="path1" /></g></g></svg>
